<?xml version="1.0" encoding="UTF-8"?>
<svg version="1.1" xmlns="http://www.w3.org/2000/svg" width="500" height="500">
<path d="M0 0 C165 0 330 0 500 0 C500 165 500 330 500 500 C335 500 170 500 0 500 C0 335 0 170 0 0 Z " fill="#FEFEFE" transform="translate(0,0)"/>
<path d="M0 0 C39.6 0 79.2 0 120 0 C120 4.95 120 9.9 120 15 C119.67 15.33 119.34 15.66 119 16 C118.90053547 17.76859193 118.86919783 19.54111451 118.8671875 21.3125 C118.86589844 22.38757813 118.86460937 23.46265625 118.86328125 24.5703125 C118.86714844 25.70210937 118.87101562 26.83390625 118.875 28 C118.87113281 29.13179687 118.86726563 30.26359375 118.86328125 31.4296875 C118.86457031 32.50476563 118.86585938 33.57984375 118.8671875 34.6875 C118.86887939 36.17830078 118.86887939 36.17830078 118.87060547 37.69921875 C118.7416567 39.96375226 118.7416567 39.96375226 120 41 C120.08631874 42.34267413 120.10706473 43.68974322 120.09765625 45.03515625 C120.09282227 46.24848633 120.09282227 46.24848633 120.08789062 47.48632812 C120.07532227 48.7615332 120.07532227 48.7615332 120.0625 50.0625 C120.05798828 50.91650391 120.05347656 51.77050781 120.04882812 52.65039062 C120.03700373 54.76695663 120.01906769 56.88348685 120 59 C121.98 59 123.96 59 126 59 C126 59.99 126 60.98 126 62 C124.02 62 122.04 62 120 62 C120 75.53 120 89.06 120 103 C121.98 103 123.96 103 126 103 C126 103.99 126 104.98 126 106 C124.02 106 122.04 106 120 106 C120 110.62 120 115.24 120 120 C80.4 120 40.8 120 0 120 C0 117.36 0 114.72 0 112 C4.29 112 8.58 112 13 112 C10.85124107 105.92579973 10.85124107 105.92579973 6 102 C4.02 101.67 2.04 101.34 0 101 C0 67.67 0 34.34 0 0 Z " fill="#FCFCFC" transform="translate(69,190)"/>
<path d="M0 0 C39.6 0 79.2 0 120 0 C120 4.95 120 9.9 120 15 C119.67 15.33 119.34 15.66 119 16 C118.90053547 17.76859193 118.86919783 19.54111451 118.8671875 21.3125 C118.86589844 22.38757813 118.86460937 23.46265625 118.86328125 24.5703125 C118.86714844 25.70210937 118.87101562 26.83390625 118.875 28 C118.87113281 29.13179687 118.86726563 30.26359375 118.86328125 31.4296875 C118.86457031 32.50476563 118.86585938 33.57984375 118.8671875 34.6875 C118.86887939 36.17830078 118.86887939 36.17830078 118.87060547 37.69921875 C118.7416567 39.96375226 118.7416567 39.96375226 120 41 C120.08631874 42.34267413 120.10706473 43.68974322 120.09765625 45.03515625 C120.09282227 46.24848633 120.09282227 46.24848633 120.08789062 47.48632812 C120.07532227 48.7615332 120.07532227 48.7615332 120.0625 50.0625 C120.05798828 50.91650391 120.05347656 51.77050781 120.04882812 52.65039062 C120.03700373 54.76695663 120.01906769 56.88348685 120 59 C121.98 59 123.96 59 126 59 C126 59.66 126 60.32 126 61 C123.69 61 121.38 61 119 61 C119 62.98 119 64.96 119 67 C118.67 67 118.34 67 118 67 C118 62.71 118 58.42 118 54 C98.53 54 79.06 54 59 54 C59 51.03 59 48.06 59 45 C63.95 44.505 63.95 44.505 69 44 C68.67 43.34 68.34 42.68 68 42 C65.87423218 41.53348793 65.87423218 41.53348793 63.4375 41.375 C62.61121094 41.30023438 61.78492188 41.22546875 60.93359375 41.1484375 C60.29550781 41.09945312 59.65742188 41.05046875 59 41 C59 40.67 59 40.34 59 40 C61.31 40 63.62 40 66 40 C66.495 39.01 66.495 39.01 67 38 C67.33 38.33 67.66 38.66 68 39 C69.53382679 39.1225355 71.07310519 39.17777938 72.61157227 39.20532227 C73.59251358 39.22526749 74.5734549 39.24521271 75.5841217 39.26576233 C77.18410255 39.29083107 77.18410255 39.29083107 78.81640625 39.31640625 C80.44569313 39.3475779 80.44569313 39.3475779 82.1078949 39.37937927 C85.59269627 39.44499442 89.07757568 39.50381511 92.5625 39.5625 C94.91862801 39.60567385 97.27474799 39.64928776 99.63085938 39.69335938 C105.42048937 39.80068792 111.21019775 39.90243165 117 40 C117 38.68 117 37.36 117 36 C97.86 36 78.72 36 59 36 C59 34.68 59 33.36 59 32 C52.07 32 45.14 32 38 32 C37.67 33.32 37.34 34.64 37 36 C37 34.68 37 33.36 37 32 C33.37 32 29.74 32 26 32 C26 22.1 26 12.2 26 2 C18.08 2 10.16 2 2 2 C2.11971452 7.94497217 2.24228245 13.88973803 2.37231445 19.83447266 C2.41569395 21.85787416 2.45736678 23.88131299 2.49731445 25.90478516 C2.55494408 28.80903384 2.6186594 31.71309411 2.68359375 34.6171875 C2.70866249 35.97975174 2.70866249 35.97975174 2.73423767 37.36984253 C2.75418289 38.21056305 2.77412811 39.05128357 2.79467773 39.91748047 C2.81022202 40.65916473 2.8257663 41.400849 2.84178162 42.16500854 C2.89473496 44.09674104 2.89473496 44.09674104 4 46 C3.34 46 2.68 46 2 46 C2 47.98 2 49.96 2 52 C13.55 52 25.1 52 37 52 C37.33 50.68 37.66 49.36 38 48 C38 49.98 38 51.96 38 54 C26.12 54 14.24 54 2 54 C2 69.51 2 85.02 2 101 C1.34 101 0.68 101 0 101 C0 67.67 0 34.34 0 0 Z " fill="#DAD6CE" transform="translate(69,190)"/>
<path d="M0 0 C18.48 0 36.96 0 56 0 C55.67 2.31 55.34 4.62 55 7 C54.030625 6.979375 53.06125 6.95875 52.0625 6.9375 C49.12534105 6.64381501 49.12534105 6.64381501 48 8 C50.64 8 53.28 8 56 8 C56 16.25 56 24.5 56 33 C48.41 33 40.82 33 33 33 C32.67 31.35 32.34 29.7 32 28 C21.44 28 10.88 28 0 28 C0 18.76 0 9.52 0 0 Z " fill="#F7F6F6" transform="translate(96,192)"/>
<path d="M0 0 C7.26 0 14.52 0 22 0 C21.67 2.31 21.34 4.62 21 7 C20.030625 6.979375 19.06125 6.95875 18.0625 6.9375 C15.12534105 6.64381501 15.12534105 6.64381501 14 8 C16.64 8 19.28 8 22 8 C22 16.25 22 24.5 22 33 C14.41 33 6.82 33 -1 33 C-1.33 30.36 -1.66 27.72 -2 25 C-5.3 24.67 -8.6 24.34 -12 24 C-9.88929889 17.99261993 -9.88929889 17.99261993 -7 16 C-3.535 15.505 -3.535 15.505 0 15 C0 10.05 0 5.1 0 0 Z " fill="#FDFDFD" transform="translate(130,192)"/>
<path d="M0 0 C39.27 0 78.54 0 119 0 C119 4.62 119 9.24 119 14 C118.67 14 118.34 14 118 14 C118 10.04 118 6.08 118 2 C98.86 2 79.72 2 60 2 C60 6.62 60 11.24 60 16 C59.67 16 59.34 16 59 16 C59 11.38 59 6.76 59 2 C48.44 2 37.88 2 27 2 C27 11.24 27 20.48 27 30 C37.56 30 48.12 30 59 30 C59.33 29.34 59.66 28.68 60 28 C60 30.64 60 33.28 60 36 C59.505 34.02 59.505 34.02 59 32 C52.07 32 45.14 32 38 32 C37.67 33.32 37.34 34.64 37 36 C37 34.68 37 33.36 37 32 C33.37 32 29.74 32 26 32 C26 22.1 26 12.2 26 2 C18.08 2 10.16 2 2 2 C2.11971452 7.94497217 2.24228245 13.88973803 2.37231445 19.83447266 C2.41569395 21.85787416 2.45736678 23.88131299 2.49731445 25.90478516 C2.55494408 28.80903384 2.6186594 31.71309411 2.68359375 34.6171875 C2.70866249 35.97975174 2.70866249 35.97975174 2.73423767 37.36984253 C2.75418289 38.21056305 2.77412811 39.05128357 2.79467773 39.91748047 C2.81022202 40.65916473 2.8257663 41.400849 2.84178162 42.16500854 C2.89473496 44.09674104 2.89473496 44.09674104 4 46 C3.34 46 2.68 46 2 46 C2 47.98 2 49.96 2 52 C13.55 52 25.1 52 37 52 C37.33 50.68 37.66 49.36 38 48 C38 49.98 38 51.96 38 54 C26.12 54 14.24 54 2 54 C2 69.51 2 85.02 2 101 C1.34 101 0.68 101 0 101 C0 67.67 0 34.34 0 0 Z " fill="#5A5A5A" transform="translate(69,190)"/>
<path d="M0 0 C3.22887109 1.27809481 4.54896002 2.48674761 6.8125 5.0625 C8.578959 9.43216175 8.90841161 13.36421696 8 18 C5.72155001 21.97654007 3.37009421 24.54330193 -1 26 C-5.06311767 26.48953225 -9.16483044 26.90076551 -12.91796875 25.05859375 C-16.14217999 22.51902983 -18.05558104 19.96655961 -19 16 C-19.46725516 11.71682772 -19.30749558 9.57106322 -17.25 5.75 C-12.11756837 -0.52297199 -7.84117542 -0.85052869 0 0 Z " fill="#0B0B0B" transform="translate(339,232)"/>
<path d="M0 0 C0.99 0 1.98 0 3 0 C3 5.94 3 11.88 3 18 C4.98 18 6.96 18 9 18 C9 18.66 9 19.32 9 20 C6.69 20 4.38 20 2 20 C2 21.98 2 23.96 2 26 C1.67 26 1.34 26 1 26 C1 21.71 1 17.42 1 13 C-18.47 13 -37.94 13 -58 13 C-58 10.03 -58 7.06 -58 4 C-49.31126982 3.10884819 -40.73139464 2.88375362 -32 3 C-32 3.99 -32 4.98 -32 6 C-25.07 6 -18.14 6 -11 6 C-10.67 5.01 -10.34 4.02 -10 3 C-6.7 3.33 -3.4 3.66 0 4 C0 2.68 0 1.36 0 0 Z " fill="#8D8D8D" transform="translate(186,231)"/>
<path d="M0 0 C7.92 0 15.84 0 24 0 C24 6.93 24 13.86 24 21 C16.08 21 8.16 21 0 21 C0 14.07 0 7.14 0 0 Z " fill="#FFFFFF" transform="translate(153,203)"/>
<path d="M0 0 C12.9 0 12.9 0 17 3 C19.80168958 6.24406162 20.9043675 8.23494 21.4375 12.5 C20.78545069 17.71639451 19.32924251 20.70484063 15.5625 24.375 C12 26 12 26 0 26 C0 17.42 0 8.84 0 0 Z " fill="#0B0B0B" transform="translate(318,193)"/>
<path d="M0 0 C3.90775329 1.95387664 5.47622339 3.38892729 8.25 6.625 C8.95640625 7.44226563 9.6628125 8.25953125 10.390625 9.1015625 C10.92171875 9.72804687 11.4528125 10.35453125 12 11 C12.721875 10.278125 13.44375 9.55625 14.1875 8.8125 C15.5796875 7.4203125 15.5796875 7.4203125 17 6 C17.886875 5.071875 18.77375 4.14375 19.6875 3.1875 C22 1 22 1 24 1 C24 9.58 24 18.16 24 27 C22.35 27 20.7 27 19 27 C18.505 20.565 18.505 20.565 18 14 C17.21625 14.825 16.4325 15.65 15.625 16.5 C13 19 13 19 11 19 C9.68 17.35 8.36 15.7 7 14 C6.67 18.29 6.34 22.58 6 27 C4.02 27 2.04 27 0 27 C0 18.09 0 9.18 0 0 Z " fill="#0F0F0F" transform="translate(277,192)"/>
<path d="M0 0 C13 0 13 0 16.375 2.0625 C18 5 18 5 18 8.625 C17.06579141 11.77795399 16.58725064 13.08768431 14 15 C15.44950455 18.7910119 17.15172566 22.3874638 19 26 C16.3125 26.5 16.3125 26.5 13 26 C10.52424998 23.19798835 8 19.83491389 8 16 C7.01 16 6.02 16 5 16 C5 19.3 5 22.6 5 26 C3.35 26 1.7 26 0 26 C0 17.42 0 8.84 0 0 Z " fill="#050505" transform="translate(352,232)"/>
<path d="M0 0 C4.29 0 8.58 0 13 0 C18 5 18 5 18 10 C16.9790625 11.2375 16.9790625 11.2375 15.9375 12.5 C15.298125 13.325 14.65875 14.15 14 15 C14.52437773 18.07416306 14.52437773 18.07416306 16 21 C16.37125 21.94875 16.7425 22.8975 17.125 23.875 C17.41375 24.57625 17.7025 25.2775 18 26 C16.02 26 14.04 26 12 26 C11.32845067 24.71086513 10.66291141 23.41859796 10 22.125 C9.62875 21.40570313 9.2575 20.68640625 8.875 19.9453125 C8 18 8 18 8 16 C7.01 16 6.02 16 5 16 C5 19.3 5 22.6 5 26 C3.35 26 1.7 26 0 26 C0 17.42 0 8.84 0 0 Z " fill="#070707" transform="translate(288,232)"/>
<path d="M0 0 C2.908125 -0.061875 5.81625 -0.12375 8.8125 -0.1875 C9.72491455 -0.21481201 10.6373291 -0.24212402 11.57739258 -0.27026367 C12.66250122 -0.28150269 12.66250122 -0.28150269 13.76953125 -0.29296875 C14.87711792 -0.31653442 14.87711792 -0.31653442 16.00708008 -0.34057617 C18.63811545 0.1090495 19.39587508 0.8846736 21 3 C21.66 4.65 22.32 6.3 23 8 C18.38 8 13.76 8 9 8 C9 14.6 9 21.2 9 28 C6.03 28 3.06 28 0 28 C0 18.76 0 9.52 0 0 Z " fill="#ECECEC" transform="translate(96,192)"/>
<path d="M0 0 C0.66 0 1.32 0 2 0 C2 1.98 2 3.96 2 6 C4.31 6 6.62 6 9 6 C9 6.66 9 7.32 9 8 C7.02 8 5.04 8 3 8 C3 12.62 3 17.24 3 22 C-36.6 22 -76.2 22 -117 22 C-117 19.36 -117 16.72 -117 14 C-112.71 14 -108.42 14 -104 14 C-104 14.33 -104 14.66 -104 15 C-107.63 15 -111.26 15 -115 15 C-115 16.65 -115 18.3 -115 20 C-77.05 20 -39.1 20 0 20 C0 13.4 0 6.8 0 0 Z " fill="#606060" transform="translate(186,288)"/>
<path d="M0 0 C30.69 0 61.38 0 93 0 C93 4.62 93 9.24 93 14 C92.67 14 92.34 14 92 14 C92 10.04 92 6.08 92 2 C72.86 2 53.72 2 34 2 C34 6.62 34 11.24 34 16 C33.67 16 33.34 16 33 16 C33 11.38 33 6.76 33 2 C22.44 2 11.88 2 1 2 C1 11.24 1 20.48 1 30 C11.56 30 22.12 30 33 30 C33.33 29.34 33.66 28.68 34 28 C34 30.64 34 33.28 34 36 C33.505 34.02 33.505 34.02 33 32 C26.07 32 19.14 32 12 32 C11.67 33.32 11.34 34.64 11 36 C11 34.68 11 33.36 11 32 C7.37 32 3.74 32 0 32 C0 21.44 0 10.88 0 0 Z " fill="#434343" transform="translate(95,190)"/>
<path d="M0 0 C4.26687808 2.13343904 5.83389766 3.93698822 8.75 7.625 C9.54921875 8.62789062 10.3484375 9.63078125 11.171875 10.6640625 C12.07679688 11.82035156 12.07679688 11.82035156 13 13 C13.33 8.71 13.66 4.42 14 0 C15.65 0 17.3 0 19 0 C19 8.58 19 17.16 19 26 C14.93729679 23.9686484 13.18814351 22.24522343 10.25 18.875 C9.45078125 17.96492188 8.6515625 17.05484375 7.828125 16.1171875 C6.92320312 15.06917969 6.92320312 15.06917969 6 14 C5.67 17.96 5.34 21.92 5 26 C3.35 26 1.7 26 0 26 C0 17.42 0 8.84 0 0 Z " fill="#080808" transform="translate(224,232)"/>
<path d="M0 0 C0.66 0 1.32 0 2 0 C3.67223282 4.12276549 5.33684063 8.24856675 7 12.375 C7.47695313 13.550625 7.95390625 14.72625 8.4453125 15.9375 C8.89648438 17.05898437 9.34765625 18.18046875 9.8125 19.3359375 C10.23144531 20.37282715 10.65039062 21.4097168 11.08203125 22.47802734 C12 25 12 25 12 27 C10.02 27 8.04 27 6 27 C5.67 26.34 5.34 25.68 5 25 C2.87423218 24.53348793 2.87423218 24.53348793 0.4375 24.375 C-0.38878906 24.30023438 -1.21507812 24.22546875 -2.06640625 24.1484375 C-2.70449219 24.09945312 -3.34257812 24.05046875 -4 24 C-4 24.99 -4 25.98 -4 27 C-5.98 27 -7.96 27 -10 27 C-7.58650007 17.64481454 -3.75743534 8.873724 0 0 Z " fill="#181818" transform="translate(352,192)"/>
<path d="M0 0 C2.22321844 2.76824513 3.72485076 5.36801944 5.04296875 8.66015625 C5.39423828 9.53607422 5.74550781 10.41199219 6.10742188 11.31445312 C6.46384766 12.22130859 6.82027344 13.12816406 7.1875 14.0625 C7.55552734 14.97322266 7.92355469 15.88394531 8.30273438 16.82226562 C11 23.61296962 11 23.61296962 11 27 C9.35 27 7.7 27 6 27 C5.67 26.01 5.34 25.02 5 24 C3.5199159 24.11362262 2.04089926 24.24122908 0.5625 24.375 C-0.26121094 24.44460937 -1.08492187 24.51421875 -1.93359375 24.5859375 C-2.61550781 24.72257812 -3.29742187 24.85921875 -4 25 C-4.33 25.66 -4.66 26.32 -5 27 C-6.98 27 -8.96 27 -11 27 C-7.65430679 17.83670965 -4.21735778 8.80793307 0 0 Z " fill="#181818" transform="translate(239,192)"/>
<path d="M0 0 C2.31 0 4.62 0 7 0 C7.66 1.98 8.32 3.96 9 6 C9.66 6 10.32 6 11 6 C11.309375 5.195625 11.61875 4.39125 11.9375 3.5625 C13 1 13 1 14 0 C15.99958364 -0.04080783 18.00045254 -0.04254356 20 0 C19.54367187 0.73605469 19.08734375 1.47210938 18.6171875 2.23046875 C18.04226563 3.20628906 17.46734375 4.18210938 16.875 5.1875 C16.29492188 6.15042969 15.71484375 7.11335937 15.1171875 8.10546875 C13.71329639 10.90603026 13.71329639 10.90603026 14.65625 13.53125 C15.0996875 14.3459375 15.543125 15.160625 16 16 C16.42539062 16.88300781 16.85078125 17.76601562 17.2890625 18.67578125 C17.72992188 19.54589844 18.17078125 20.41601562 18.625 21.3125 C19.07101562 22.19550781 19.51703125 23.07851562 19.9765625 23.98828125 C20.31429688 24.65214844 20.65203125 25.31601563 21 26 C18.25 26.375 18.25 26.375 15 26 C11 21.15789474 11 21.15789474 11 18 C10.34 18 9.68 18 9 18 C8.71125 18.763125 8.4225 19.52625 8.125 20.3125 C7 23 7 23 5 26 C1.875 26.1875 1.875 26.1875 -1 26 C-0.566875 25.18015625 -0.13375 24.3603125 0.3125 23.515625 C0.869375 22.43796875 1.42625 21.3603125 2 20.25 C2.8353125 18.64898437 2.8353125 18.64898437 3.6875 17.015625 C5.26604902 13.93686532 5.26604902 13.93686532 5 10 C3.92710592 7.37165703 3.92710592 7.37165703 2.5 4.75 C2.0359375 3.85796875 1.571875 2.9659375 1.09375 2.046875 C0.7328125 1.37140625 0.371875 0.6959375 0 0 Z " fill="#0B0B0B" transform="translate(253,193)"/>
<path d="M0 0 C3.00606028 1.50303014 3.2132079 3.68120559 4.3828125 6.78515625 C4.82753906 7.95498047 5.27226562 9.12480469 5.73046875 10.33007812 C6.19066406 11.56177734 6.65085937 12.79347656 7.125 14.0625 C7.5970115 15.31079086 8.06965984 16.55884112 8.54296875 17.80664062 C9.70161539 20.86877817 10.85363867 23.93324658 12 27 C10.02 27 8.04 27 6 27 C5.67 26.34 5.34 25.68 5 25 C2.87423218 24.53348793 2.87423218 24.53348793 0.4375 24.375 C-0.38878906 24.30023438 -1.21507812 24.22546875 -2.06640625 24.1484375 C-2.70449219 24.09945312 -3.34257812 24.05046875 -4 24 C-4.33 24.99 -4.66 25.98 -5 27 C-6.65 27 -8.3 27 -10 27 C-9.43343202 20.88106577 -6.89348871 15.67636193 -4.4375 10.125 C-4.01275391 9.15046875 -3.58800781 8.1759375 -3.15039062 7.171875 C-2.10624496 4.77855235 -1.05597786 2.38811986 0 0 Z " fill="#171717" transform="translate(416,192)"/>
<path d="M0 0 C4.29 0 8.58 0 13 0 C13 1.65 13 3.3 13 5 C10.36 5 7.72 5 5 5 C5 6.65 5 8.3 5 10 C7.31 10 9.62 10 12 10 C12 11.98 12 13.96 12 16 C10.02 16 8.04 16 6 16 C6 17.65 6 19.3 6 21 C8.64 21 11.28 21 14 21 C14 22.65 14 24.3 14 26 C9.38 26 4.76 26 0 26 C0 17.42 0 8.84 0 0 Z " fill="#0F0F0F" transform="translate(269,232)"/>
<path d="M0 0 C0 3.3 0 6.6 0 10 C-6.40845607 10.094242 -12.63592553 9.80939027 -19.015625 9.22265625 C-23.34772212 8.89945005 -27.659025 8.91356466 -32 9 C-32 6.69 -32 4.38 -32 2 C-26.2868339 1.45865093 -20.61833997 0.92504613 -14.875 1 C-9.82370228 1 -5.2803412 -0.07543345 0 0 Z " fill="#FDFDFD" transform="translate(186,192)"/>
<path d="M0 0 C4.05557571 1.82661843 7.77195513 3.74353889 10.96875 6.88671875 C11.7753644 9.90204908 11.45805345 11.73342982 10.96875 14.88671875 C-4.77612472 15.25573925 -4.77612472 15.25573925 -12.03125 12.88671875 C-12.328125 10.66015625 -12.328125 10.66015625 -12.03125 7.88671875 C-9.984375 5.61328125 -9.984375 5.61328125 -7.28125 3.51171875 C-6.39953125 2.80273438 -5.5178125 2.09375 -4.609375 1.36328125 C-2.03125 -0.11328125 -2.03125 -0.11328125 0 0 Z " fill="#FEFEFE" transform="translate(83.03125,202.11328125)"/>
<path d="M0 0 C15.51 0 31.02 0 47 0 C47 1.32 47 2.64 47 4 C43.7 4 40.4 4 37 4 C36.67 4.66 36.34 5.32 36 6 C29.07 6 22.14 6 15 6 C14.67 5.34 14.34 4.68 14 4 C9.71 4 5.42 4 1 4 C0.67 2.68 0.34 1.36 0 0 Z " fill="#FFFFFF" transform="translate(139,231)"/>
<path d="M0 0 C5.94 0 11.88 0 18 0 C18 1.65 18 3.3 18 5 C16.02 5 14.04 5 12 5 C12 11.93 12 18.86 12 26 C10.02 26 8.04 26 6 26 C6 19.07 6 12.14 6 5 C4.02 5 2.04 5 0 5 C0 3.35 0 1.7 0 0 Z " fill="#141414" transform="translate(247,232)"/>
<path d="M0 0 C2.4375 1.5 2.4375 1.5 4 4 C4.80414661 8.04560357 4.63828902 10.97873756 2.4375 14.5 C-0.97532932 16.60020266 -3.06688873 16.63210717 -7 16 C-10.22456813 13.27151928 -10.91290117 11.62057913 -11.5 7.4375 C-11 4 -11 4 -9.4375 1.5625 C-6.05782196 -0.60396028 -3.94016013 -0.56288002 0 0 Z " fill="#F6F6F6" transform="translate(337,237)"/>
<path d="M0 0 C1.98 0 3.96 0 6 0 C6 6.93 6 13.86 6 21 C8.64 21 11.28 21 14 21 C14 22.65 14 24.3 14 26 C9.38 26 4.76 26 0 26 C0 17.42 0 8.84 0 0 Z " fill="#1A1A1A" transform="translate(212,193)"/>
<path d="M0 0 C5.94 0 11.88 0 18 0 C18 1.65 18 3.3 18 5 C15.69 5 13.38 5 11 5 C11 11.93 11 18.86 11 26 C9.35 26 7.7 26 6 26 C6 19.07 6 12.14 6 5 C4.02 5 2.04 5 0 5 C0 3.35 0 1.7 0 0 Z " fill="#020202" transform="translate(386,193)"/>
<path d="M0 0 C5.94 0 11.88 0 18 0 C18 1.65 18 3.3 18 5 C15.69 5 13.38 5 11 5 C11 11.93 11 18.86 11 26 C9.35 26 7.7 26 6 26 C6 19.07 6 12.14 6 5 C4.02 5 2.04 5 0 5 C0 3.35 0 1.7 0 0 Z " fill="#020202" transform="translate(366,193)"/>
<path d="M0 0 C2.75 0.25 2.75 0.25 5 1 C5 3.97 5 6.94 5 10 C4.505 8.02 4.505 8.02 4 6 C-1.58500567 6.19898708 -1.58500567 6.19898708 -6 9 C-6 8.01 -6 7.02 -6 6 C-11.61 6 -17.22 6 -23 6 C-23 9.63 -23 13.26 -23 17 C-25.64 17 -28.28 17 -31 17 C-31.04254356 15.00045254 -31.04080783 12.99958364 -31 11 C-30.67 10.67 -30.34 10.34 -30 10 C-30.33 10 -30.66 10 -31 10 C-31 7.36 -31 4.72 -31 2 C-28.69 2 -26.38 2 -24 2 C-23.67 2.99 -23.34 3.98 -23 5 C-19.91530294 4.94802079 -16.83338441 4.85292865 -13.75 4.75 C-12.87730469 4.73582031 -12.00460938 4.72164062 -11.10546875 4.70703125 C-5.88861302 4.59893355 -5.88861302 4.59893355 -1.5625 1.9375 C-1.046875 1.298125 -0.53125 0.65875 0 0 Z " fill="#E4E4E4" transform="translate(102,225)"/>
<path d="M0 0 C3.3 0 6.6 0 10 0 C10 2.97 10 5.94 10 9 C9.67 8.34 9.34 7.68 9 7 C8.34 7 7.68 7 7 7 C7 7.66 7 8.32 7 9 C5.68 8.67 4.36 8.34 3 8 C3.33 7.01 3.66 6.02 4 5 C3.34 5 2.68 5 2 5 C1.67 14.24 1.34 23.48 1 33 C-2.3 33 -5.6 33 -9 33 C-9 32.67 -9 32.34 -9 32 C-6.03 32 -3.06 32 0 32 C-0.33 31.01 -0.66 30.02 -1 29 C-3.31 29 -5.62 29 -8 29 C-8 26.03 -8 23.06 -8 20 C-5.69 20 -3.38 20 -1 20 C-0.67 13.4 -0.34 6.8 0 0 Z " fill="#D2D2D2" transform="translate(80,244)"/>
<path d="M0 0 C0.33 0 0.66 0 1 0 C1 4.95 1 9.9 1 15 C0.01 15 -0.98 15 -2 15 C-2 14.34 -2 13.68 -2 13 C-13.22 13 -24.44 13 -36 13 C-36 12.01 -36 11.02 -36 10 C-38.64 10 -41.28 10 -44 10 C-44 8.02 -44 6.04 -44 4 C-43.67 4 -43.34 4 -43 4 C-43 5.65 -43 7.3 -43 9 C-41.02 9 -39.04 9 -37 9 C-36.67 6.69 -36.34 4.38 -36 2 C-27.75 2 -19.5 2 -11 2 C-13 4 -13 4 -15.15478516 4.22705078 C-16.02409668 4.21657715 -16.8934082 4.20610352 -17.7890625 4.1953125 C-18.73007813 4.18886719 -19.67109375 4.18242187 -20.640625 4.17578125 C-21.62546875 4.15902344 -22.6103125 4.14226562 -23.625 4.125 C-24.61757812 4.11597656 -25.61015625 4.10695312 -26.6328125 4.09765625 C-29.08878134 4.07404116 -31.54427168 4.04110799 -34 4 C-34 6.31 -34 8.62 -34 11 C-30.7 11 -27.4 11 -24 11 C-24 9.02 -24 7.04 -24 5 C-23.67 5 -23.34 5 -23 5 C-23 6.98 -23 8.96 -23 11 C-22.32195312 10.98839844 -21.64390625 10.97679687 -20.9453125 10.96484375 C-14.55795793 10.90291649 -8.34030324 11.22981132 -2 12 C-2.02320313 11.30132812 -2.04640625 10.60265625 -2.0703125 9.8828125 C-2.08835938 8.97273437 -2.10640625 8.06265625 -2.125 7.125 C-2.14820313 6.22007812 -2.17140625 5.31515625 -2.1953125 4.3828125 C-2 2 -2 2 0 0 Z " fill="#AFAEAC" transform="translate(188,190)"/>
<path d="M0 0 C8.70967742 0 8.70967742 0 12 3 C13.0625 6.4375 13.0625 6.4375 13 10 C11.625 12.4375 11.625 12.4375 9 14 C5.91760469 14.32306892 3.11599326 14.18329372 0 14 C0 9.38 0 4.76 0 0 Z " fill="#BEBEBE" transform="translate(222,273)"/>
<path d="M0 0 C1.98 0 3.96 0 6 0 C6 8.58 6 17.16 6 26 C4.02 26 2.04 26 0 26 C0 17.42 0 8.84 0 0 Z " fill="#232323" transform="translate(212,232)"/>
<path d="M0 0 C0.33 0 0.66 0 1 0 C1 2.64 1 5.28 1 8 C9.58 8 18.16 8 27 8 C27 5.36 27 2.72 27 0 C27.33 0 27.66 0 28 0 C28.02686553 1.97909398 28.04633375 3.95828971 28.0625 5.9375 C28.07410156 7.03964844 28.08570313 8.14179688 28.09765625 9.27734375 C28 12 28 12 27 13 C25.00035018 13.08758003 22.9976389 13.10696576 20.99609375 13.09765625 C19.78115234 13.09443359 18.56621094 13.09121094 17.31445312 13.08789062 C16.03505859 13.07951172 14.75566406 13.07113281 13.4375 13.0625 C12.15423828 13.05798828 10.87097656 13.05347656 9.54882812 13.04882812 C6.3658658 13.03699555 3.18292726 13.01905944 0 13 C0 8.71 0 4.42 0 0 Z " fill="#D6D6D6" transform="translate(144,295)"/>
<path d="M0 0 C7 1 7 1 8.9375 2.0625 C10.69816113 5.27311736 10.75353146 8.49995202 10 12 C7.8125 14.5 7.8125 14.5 5 16 C3.35 16 1.7 16 0 16 C0 10.72 0 5.44 0 0 Z " fill="#EEEEEE" transform="translate(323,198)"/>
<path d="M0 0 C1.65 0 3.3 0 5 0 C5 8.58 5 17.16 5 26 C3.35 26 1.7 26 0 26 C0 17.42 0 8.84 0 0 Z " fill="#000000" transform="translate(310,232)"/>
<path d="M0 0 C1.65 0 3.3 0 5 0 C5 8.58 5 17.16 5 26 C3.35 26 1.7 26 0 26 C0 17.42 0 8.84 0 0 Z " fill="#0A0A0A" transform="translate(307,193)"/>
<path d="M0 0 C0 9.57 0 19.14 0 29 C-8.415 29.495 -8.415 29.495 -17 30 C-16.67 28.68 -16.34 27.36 -16 26 C-17.32 26 -18.64 26 -20 26 C-19.67 27.32 -19.34 28.64 -19 30 C-19.99 30 -20.98 30 -22 30 C-22 28.02 -22 26.04 -22 24 C-22.66 23.67 -23.32 23.34 -24 23 C-12.615 23.99 -12.615 23.99 -1 25 C-1 22.36 -1 19.72 -1 17 C-2.32 16.34 -3.64 15.68 -5 15 C-4.01 15 -3.02 15 -2 15 C-2 11.04 -2 7.08 -2 3 C-2.66 2.67 -3.32 2.34 -4 2 C-1 0 -1 0 0 0 Z " fill="#F3F3F3" transform="translate(95,192)"/>
<path d="M0 0 C0.33 0 0.66 0 1 0 C1.33 2.31 1.66 4.62 2 7 C4.31 7 6.62 7 9 7 C9 7.33 9 7.66 9 8 C7.02 8 5.04 8 3 8 C3 21.53 3 35.06 3 49 C4.98 49 6.96 49 9 49 C9 49.33 9 49.66 9 50 C6.69 50 4.38 50 2 50 C2 48.02 2 46.04 2 44 C1.34 44 0.68 44 0 44 C0 29.48 0 14.96 0 0 Z " fill="#DADADA" transform="translate(186,244)"/>
<path d="M0 0 C4.29 0 8.58 0 13 0 C13 1.98 13 3.96 13 6 C5.08 6 -2.84 6 -11 6 C-11 4.68 -11 3.36 -11 2 C-7.37 2 -3.74 2 0 2 C0 1.34 0 0.68 0 0 Z " fill="#FEFEFE" transform="translate(140,236)"/>
<path d="M0 0 C2.475 0.99 2.475 0.99 5 2 C5 2.66 5 3.32 5 4 C5.86625 4.185625 5.86625 4.185625 6.75 4.375 C9.02335767 5.00648824 10.9253529 5.88858191 13 7 C13 7.66 13 8.32 13 9 C11.37239583 9.91145833 9.74479167 10.82291667 8.1171875 11.734375 C5.34892607 13.38920287 2.6835043 15.21099713 0 17 C0 11.39 0 5.78 0 0 Z " fill="#EDEDED" transform="translate(71,193)"/>
<path d="M0 0 C0 3.3 0 6.6 0 10 C-3.3 10 -6.6 10 -10 10 C-10.33 7.03 -10.66 4.06 -11 1 C-7.57067929 -0.71466036 -3.78283935 -0.05404056 0 0 Z " fill="#E0DFDD" transform="translate(186,192)"/>
<path d="M0 0 C1.32 0 2.64 0 4 0 C4 14.19 4 28.38 4 43 C2.35 42.67 0.7 42.34 -1 42 C-0.67 40.68 -0.34 39.36 0 38 C0.99 38.33 1.98 38.66 3 39 C3 29.1 3 19.2 3 9 C2.01 9.33 1.02 9.66 0 10 C-0.66 9.67 -1.32 9.34 -2 9 C-2.125 5.625 -2.125 5.625 -2 2 C-1.34 1.34 -0.68 0.68 0 0 Z " fill="#E4E4E4" transform="translate(205,251)"/>
<path d="M0 0 C0.99 0 1.98 0 3 0 C3.09765625 6.15234375 3.09765625 6.15234375 3 8 C2.67 8.33 2.34 8.66 2 9 C2.66 9.66 3.32 10.32 4 11 C3.67 11.66 3.34 12.32 3 13 C2.34 13 1.68 13 1 13 C1 13.66 1 14.32 1 15 C2.65 15 4.3 15 6 15 C5.01 15.33 4.02 15.66 3 16 C3.33 16.66 3.66 17.32 4 18 C5.32 18 6.64 18 8 18 C8 18.99 8 19.98 8 21 C5.69 20.67 3.38 20.34 1 20 C1 20.66 1 21.32 1 22 C3.31 22 5.62 22 8 22 C8 22.33 8 22.66 8 23 C5.69 23 3.38 23 1 23 C1 23.66 1 24.32 1 25 C1.78375 24.938125 2.5675 24.87625 3.375 24.8125 C4.674375 24.9053125 4.674375 24.9053125 6 25 C6.66 25.99 7.32 26.98 8 28 C5.36 28 2.72 28 0 28 C0 18.76 0 9.52 0 0 Z " fill="#FBFBFB" transform="translate(96,192)"/>
<path d="M0 0 C2.64 0 5.28 0 8 0 C8 3.63 8 7.26 8 11 C5.36 11 2.72 11 0 11 C0 7.37 0 3.74 0 0 Z " fill="#FFFFFF" transform="translate(178,203)"/>
<path d="M0 0 C0.33 0 0.66 0 1 0 C1 5.94 1 11.88 1 18 C-1.64 17.67 -4.28 17.34 -7 17 C-7 14.69 -7 12.38 -7 10 C-4.69 10.33 -2.38 10.66 0 11 C0 10.01 0 9.02 0 8 C-2.31 8.33 -4.62 8.66 -7 9 C-6.34 8.67 -5.68 8.34 -5 8 C-5 7.34 -5 6.68 -5 6 C-5.66 5.67 -6.32 5.34 -7 5 C-7 3.68 -7 2.36 -7 1 C-6.01 1 -5.02 1 -4 1 C-4 1.99 -4 2.98 -4 4 C-2.68 4 -1.36 4 0 4 C0 2.68 0 1.36 0 0 Z " fill="#D5D5D5" transform="translate(104,202)"/>
<path d="M0 0 C8.25 0 16.5 0 25 0 C23 2 23 2 20.84521484 2.22705078 C19.97590332 2.21657715 19.1065918 2.20610352 18.2109375 2.1953125 C17.26992187 2.18886719 16.32890625 2.18242187 15.359375 2.17578125 C14.37453125 2.15902344 13.3896875 2.14226562 12.375 2.125 C11.38242188 2.11597656 10.38984375 2.10695312 9.3671875 2.09765625 C6.91121866 2.07404116 4.45572832 2.04110799 2 2 C2 4.64 2 7.28 2 10 C1.34 10 0.68 10 0 10 C0 9.34 0 8.68 0 8 C-2.64 8 -5.28 8 -8 8 C-8 6.02 -8 4.04 -8 2 C-7.67 2 -7.34 2 -7 2 C-7 3.65 -7 5.3 -7 7 C-5.02 7 -3.04 7 -1 7 C-0.67 4.69 -0.34 2.38 0 0 Z " fill="#BEBEBE" transform="translate(152,192)"/>
<path d="M0 0 C1.98 0 3.96 0 6 0 C6 4.62 6 9.24 6 14 C4.02 14 2.04 14 0 14 C-0.04254356 12.00045254 -0.04080783 9.99958364 0 8 C0.33 7.67 0.66 7.34 1 7 C0.67 7 0.34 7 0 7 C0 4.69 0 2.38 0 0 Z " fill="#E6E6E6" transform="translate(71,228)"/>
<path d="M0 0 C0.33 0 0.66 0 1 0 C1 2.64 1 5.28 1 8 C0.505 6.02 0.505 6.02 0 4 C-6.93 4 -13.86 4 -21 4 C-21.33 5.32 -21.66 6.64 -22 8 C-22 6.68 -22 5.36 -22 4 C-25.63 4 -29.26 4 -33 4 C-32.67 3.34 -32.34 2.68 -32 2 C-21.44 2 -10.88 2 0 2 C0 1.34 0 0.68 0 0 Z " fill="#707070" transform="translate(128,218)"/>
<path d="M0 0 C2.99324263 1.0975223 3.84610901 1.67682892 5.25 4.625 C5.4975 5.40875 5.745 6.1925 6 7 C5.34 7 4.68 7 4 7 C3.82057837 10.94727588 3.90649311 13.5980513 6 17 C3.94766315 19.2477975 2.99332739 20.0022242 0 21 C-0.33 20.34 -0.66 19.68 -1 19 C0.32 18.34 1.64 17.68 3 17 C2.67 16.34 2.34 15.68 2 15 C1 13 1 13 0.5 9.9375 C0.31161614 7.11880655 0.31161614 7.11880655 -1 6 C-3.67058851 5.85884839 -6.32432238 5.95752893 -9 6 C-9 4.68 -9 3.36 -9 2 C-6.36 2.66 -3.72 3.32 -1 4 C-0.67 2.68 -0.34 1.36 0 0 Z " fill="#D9D9D9" transform="translate(122,268)"/>
<path d="M0 0 C0.66 0 1.32 0 2 0 C2 1.98 2 3.96 2 6 C4.31 6 6.62 6 9 6 C9 6.66 9 7.32 9 8 C7.02 8 5.04 8 3 8 C3 12.62 3 17.24 3 22 C2.01 22 1.02 22 0 22 C0 14.74 0 7.48 0 0 Z " fill="#626262" transform="translate(186,288)"/>
<path d="M0 0 C6.93 0 13.86 0 21 0 C21 0.99 21 1.98 21 3 C14.07 3 7.14 3 0 3 C0 2.01 0 1.02 0 0 Z " fill="#FFFFFF" transform="translate(154,239)"/>
<path d="M0 0 C2.97 0 5.94 0 9 0 C9 2.97 9 5.94 9 9 C8.67 8.34 8.34 7.68 8 7 C7.34 7 6.68 7 6 7 C6 7.66 6 8.32 6 9 C4.68 8.67 3.36 8.34 2 8 C2.33 7.01 2.66 6.02 3 5 C2.01 5 1.02 5 0 5 C0 3.35 0 1.7 0 0 Z " fill="#E5E5E5" transform="translate(81,244)"/>
<path d="M0 0 C3.06189246 1.79490248 3.64513825 4.85225518 4.8125 8.0625 C2.83340602 8.08936553 0.85421029 8.10883375 -1.125 8.125 C-2.22714844 8.13660156 -3.32929687 8.14820313 -4.46484375 8.16015625 C-7.1875 8.0625 -7.1875 8.0625 -8.1875 7.0625 C-8.22813832 5.39632885 -8.230221 3.72861905 -8.1875 2.0625 C-5.42265882 0.99426591 -2.97997885 0.08514225 0 0 Z " fill="#DDDDDD" transform="translate(114.1875,191.9375)"/>
<path d="M0 0 C3.3 0 6.6 0 10 0 C10 1.98 10 3.96 10 6 C6.7 6 3.4 6 0 6 C0 4.02 0 2.04 0 0 Z " fill="#FFFFFF" transform="translate(176,236)"/>
<path d="M0 0 C0.625 2.3125 0.625 2.3125 1 5 C0.01 6.485 0.01 6.485 -1 8 C-1 6.02 -1 4.04 -1 2 C-5.29 2 -9.58 2 -14 2 C-14 2.66 -14 3.32 -14 4 C-17.63 4 -21.26 4 -25 4 C-25.33 3.01 -25.66 2.02 -26 1 C-17.30019136 -0.01286753 -8.74507107 -0.10621544 0 0 Z " fill="#CECBC5" transform="translate(154,234)"/>
<path d="M0 0 C2.6875 0.3125 2.6875 0.3125 5 1 C5 3.97 5 6.94 5 10 C4.67 8.68 4.34 7.36 4 6 C-1.58500567 6.19898708 -1.58500567 6.19898708 -6 9 C-6.33 7.68 -6.66 6.36 -7 5 C-6.401875 4.731875 -5.80375 4.46375 -5.1875 4.1875 C-2.94430723 3.13952691 -2.94430723 3.13952691 -1.5625 1.3125 C-1.046875 0.879375 -0.53125 0.44625 0 0 Z " fill="#EEEEEE" transform="translate(102,225)"/>
<path d="M0 0 C0.33 0 0.66 0 1 0 C1.33 2.31 1.66 4.62 2 7 C4.31 7 6.62 7 9 7 C9 7.33 9 7.66 9 8 C7.02 8 5.04 8 3 8 C3 12.62 3 17.24 3 22 C2.01 21.67 1.02 21.34 0 21 C0 14.07 0 7.14 0 0 Z " fill="#B8B8B8" transform="translate(186,244)"/>
<path d="M0 0 C2.64 0 5.28 0 8 0 C8 0.66 8 1.32 8 2 C6.35 2 4.7 2 3 2 C3 3.65 3 5.3 3 7 C4.32 7.33 5.64 7.66 7 8 C5.68 8 4.36 8 3 8 C3 9.65 3 11.3 3 13 C4.65 13 6.3 13 8 13 C8 13.33 8 13.66 8 14 C5.69 14 3.38 14 1 14 C0.67 9.38 0.34 4.76 0 0 Z " fill="#707070" transform="translate(246,273)"/>
<path d="M0 0 C0.99 0.495 0.99 0.495 2 1 C2 3.31 2 5.62 2 8 C4.31 8 6.62 8 9 8 C9 9.32 9 10.64 9 12 C6.03 12 3.06 12 0 12 C0 8.04 0 4.08 0 0 Z " fill="#F5F5F5" transform="translate(71,264)"/>
<path d="M0 0 C1.98 0 3.96 0 6 0 C6.38218767 1.65614657 6.71395102 3.32457024 7 5 C6 6 6 6 2.9375 6.0625 C1.4834375 6.0315625 1.4834375 6.0315625 0 6 C0 4.02 0 2.04 0 0 Z " fill="#F0F0F0" transform="translate(357,237)"/>
<path d="M0 0 C1.98 0 3.96 0 6 0 C6.38218767 1.65614657 6.71395102 3.32457024 7 5 C6 6 6 6 2.9375 6.0625 C1.4834375 6.0315625 1.4834375 6.0315625 0 6 C0 4.02 0 2.04 0 0 Z " fill="#F1F1F1" transform="translate(293,237)"/>
<path d="M0 0 C2.64 0 5.28 0 8 0 C8 1.65 8 3.3 8 5 C5.36 5 2.72 5 0 5 C0 3.35 0 1.7 0 0 Z " fill="#FFFFFF" transform="translate(178,215)"/>
<path d="M0 0 C2.64 0 5.28 0 8 0 C7.67 1.98 7.34 3.96 7 6 C5.02 6 3.04 6 1 6 C0.67 4.02 0.34 2.04 0 0 Z " fill="#FFFFFF" transform="translate(178,193)"/>
<path d="M0 0 C3.96 0 7.92 0 12 0 C12 0.99 12 1.98 12 3 C8.04 3 4.08 3 0 3 C0 2.01 0 1.02 0 0 Z " fill="#FFFFFF" transform="translate(159,304)"/>
<path d="M0 0 C0.66 0 1.32 0 2 0 C2 2.97 2 5.94 2 9 C1.34 9 0.68 9 0 9 C0 8.34 0 7.68 0 7 C-2.64 7 -5.28 7 -8 7 C-8 5.02 -8 3.04 -8 1 C-7.67 1 -7.34 1 -7 1 C-7 2.65 -7 4.3 -7 6 C-5.02 6 -3.04 6 -1 6 C-1.020625 5.195625 -1.04125 4.39125 -1.0625 3.5625 C-1 1 -1 1 0 0 Z " fill="#CFCFCF" transform="translate(152,193)"/>
<path d="M0 0 C0.99 0.66 1.98 1.32 3 2 C3.375 5 3.375 5 3 8 C2.01 8.66 1.02 9.32 0 10 C-0.66 9.67 -1.32 9.34 -2 9 C-2.125 5.625 -2.125 5.625 -2 2 C-1.34 1.34 -0.68 0.68 0 0 Z " fill="#C4C4C4" transform="translate(205,251)"/>
<path d="M0 0 C0.66 0.33 1.32 0.66 2 1 C2.05389087 2.95803507 2.09274217 4.91648909 2.125 6.875 C2.14820313 7.96554688 2.17140625 9.05609375 2.1953125 10.1796875 C2 13 2 13 0 15 C0 13.35 0 11.7 0 10 C-2.64 10 -5.28 10 -8 10 C-8 9.67 -8 9.34 -8 9 C-5.36 9 -2.72 9 0 9 C0 6.03 0 3.06 0 0 Z " fill="#D8D6D2" transform="translate(186,205)"/>
<path d="M0 0 C5.4611399 0.35233161 5.4611399 0.35233161 8 1 C9.5 3.0625 9.5 3.0625 10 5 C9.01 5.66 8.02 6.32 7 7 C7.33 5.68 7.66 4.36 8 3 C6.68 3 5.36 3 4 3 C4.33 4.32 4.66 5.64 5 7 C4.01 7 3.02 7 2 7 C2 5.02 2 3.04 2 1 C1.34 0.67 0.68 0.34 0 0 Z " fill="#C6C6C6" transform="translate(71,215)"/>
<path d="M0 0 C2.64 0 5.28 0 8 0 C8 1.32 8 2.64 8 4 C5.36 4 2.72 4 0 4 C0 2.68 0 1.36 0 0 Z " fill="#FFFFFF" transform="translate(178,221)"/>
<path d="M0 0 C0.33 0 0.66 0 1 0 C1.38063221 2.3260857 1.71269945 4.66055264 2 7 C1 8 1 8 -1.94140625 8.09765625 C-3.73384766 8.08025391 -3.73384766 8.08025391 -5.5625 8.0625 C-7.35880859 8.04896484 -7.35880859 8.04896484 -9.19140625 8.03515625 C-10.11824219 8.02355469 -11.04507813 8.01195312 -12 8 C-10 6 -10 6 -7.6171875 5.8046875 C-6.71226562 5.82789063 -5.80734375 5.85109375 -4.875 5.875 C-3.50988281 5.90207031 -3.50988281 5.90207031 -2.1171875 5.9296875 C-1.41851562 5.95289063 -0.71984375 5.97609375 0 6 C0 4.02 0 2.04 0 0 Z " fill="#BCBCBC" transform="translate(164,195)"/>
<path d="M0 0 C2.31 0 4.62 0 7 0 C6.67 2.31 6.34 4.62 6 7 C5.34 7 4.68 7 4 7 C1.98821609 4.66633067 0.98404829 2.95214486 0 0 Z " fill="#EEEEEE" transform="translate(114,192)"/>
<path d="M0 0 C1.32 0 2.64 0 4 0 C4 2.31 4 4.62 4 7 C2.68 7 1.36 7 0 7 C0 4.69 0 2.38 0 0 Z " fill="#FFFFFF" transform="translate(100,192)"/>
<path d="M0 0 C1.32 0 2.64 0 4 0 C4 2.31 4 4.62 4 7 C2.68 7 1.36 7 0 7 C0 4.69 0 2.38 0 0 Z " fill="#F8F8F8" transform="translate(74,265)"/>
<path d="M0 0 C2.31 0 4.62 0 7 0 C7 0.33 7 0.66 7 1 C5.35 1 3.7 1 2 1 C2 1.99 2 2.98 2 4 C2.66 4.33 3.32 4.66 4 5 C3.34 5 2.68 5 2 5 C2 5.99 2 6.98 2 8 C3.65 8 5.3 8 7 8 C7 8.33 7 8.66 7 9 C4.69 9 2.38 9 0 9 C0 6.03 0 3.06 0 0 Z " fill="#AEAEAE" transform="translate(72,264)"/>
<path d="M0 0 C2.97 0.495 2.97 0.495 6 1 C6 2.32 6 3.64 6 5 C4.02 5 2.04 5 0 5 C0 3.35 0 1.7 0 0 Z " fill="#FFFFFF" transform="translate(71,237)"/>
<path d="M0 0 C1.98 0 3.96 0 6 0 C5.67 1.32 5.34 2.64 5 4 C3.35 4.33 1.7 4.66 0 5 C0 3.35 0 1.7 0 0 Z " fill="#FFFFFF" transform="translate(71,228)"/>
<path d="M0 0 C1.32 0 2.64 0 4 0 C3.67 1.98 3.34 3.96 3 6 C1.68 5.67 0.36 5.34 -1 5 C-0.67 3.35 -0.34 1.7 0 0 Z " fill="#DDDDDD" transform="translate(84,247)"/>
<path d="M0 0 C0.66 0 1.32 0 2 0 C2 2.97 2 5.94 2 9 C1.34 8.67 0.68 8.34 0 8 C-1.27536232 2.55072464 -1.27536232 2.55072464 0 0 Z " fill="#E8E8E8" transform="translate(187,266)"/>
<path d="M0 0 C2.49361571 1.20381448 4.68143083 2.45428722 7 4 C7 4.66 7 5.32 7 6 C3.75728494 5.4409112 2.06942576 4.5867822 0 2 C0 1.34 0 0.68 0 0 Z " fill="#D5D5D5" transform="translate(107,283)"/>
<path d="M0 0 C6 6 6 6 6.0625 8.5625 C6.041875 9.366875 6.02125 10.17125 6 11 C5.38125 10.21625 4.7625 9.4325 4.125 8.625 C2.10141339 6.03162353 2.10141339 6.03162353 0 4 C0 2.68 0 1.36 0 0 Z " fill="#444444" transform="translate(267,275)"/>
<path d="M0 0 C-0.66 1.32 -1.32 2.64 -2 4 C-2.66 4 -3.32 4 -4 4 C-4 4.99 -4 5.98 -4 7 C-4.66 7 -5.32 7 -6 7 C-5.37162381 3.35541809 -4.14650034 0 0 0 Z " fill="#E1E1E1" transform="translate(113,268)"/>
</svg>
