<?xml version="1.0" encoding="UTF-8"?>
<!DOCTYPE svg PUBLIC "-//W3C//DTD SVG 1.1//EN" "http://www.w3.org/Graphics/SVG/1.1/DTD/svg11.dtd">
<svg xmlns="http://www.w3.org/2000/svg" version="1.1" width="489px" height="154px" style="shape-rendering:geometricPrecision; text-rendering:geometricPrecision; image-rendering:optimizeQuality; fill-rule:evenodd; clip-rule:evenodd" xmlns:xlink="http://www.w3.org/1999/xlink">
<g><path style="opacity:0.848" fill="#d5d7d6" d="M 20.5,6.5 C 20.9528,7.45837 21.6195,8.2917 22.5,9C 18.5817,10.1564 14.5817,10.6564 10.5,10.5C 9.16667,10.5 7.83333,10.5 6.5,10.5C 6.57918,11.9305 6.24585,13.2638 5.5,14.5C 6.74721,16.323 7.41387,18.323 7.5,20.5C 7.5,22.1667 7.5,23.8333 7.5,25.5C 5.31077,32.0638 4.97743,38.7305 6.5,45.5C 6.5,48.1667 6.5,50.8333 6.5,53.5C 7.39836,54.1577 8.39836,54.8243 9.5,55.5C 8.83333,56.5 8.16667,57.5 7.5,58.5C 8.53119,59.7003 9.36453,61.0337 10,62.5C 11.3333,58.5 12.6667,58.5 14,62.5C 15.4493,61.3859 16.7827,60.3859 18,59.5C 18.4888,61.6044 19.6555,61.9378 21.5,60.5C 22.6473,60.8178 23.4806,61.4844 24,62.5C 24.8333,61.5 25.6667,60.5 26.5,59.5C 28.7727,63.4379 30.9394,63.4379 33,59.5C 34.1545,60.7433 35.4878,61.7433 37,62.5C 37.5022,59.4869 38.0022,56.4869 38.5,53.5C 40.7925,53.2436 42.9592,53.5769 45,54.5C 45.498,57.4816 45.6646,60.4816 45.5,63.5C 50.0615,64.4203 52.8948,62.7537 54,58.5C 54.4974,61.146 54.6641,63.8127 54.5,66.5C 52.1667,66.5 49.8333,66.5 47.5,66.5C 47.5,70.8333 47.5,75.1667 47.5,79.5C 46.1667,79.5 44.8333,79.5 43.5,79.5C 42.6618,79.1583 42.3284,78.4916 42.5,77.5C 43.8333,76.5 43.8333,75.5 42.5,74.5C 41.7904,72.2537 41.2904,69.9204 41,67.5C 39.3333,64.8333 37.6667,64.8333 36,67.5C 35.6667,68.8333 35.3333,70.1667 35,71.5C 34.6667,71.1667 34.3333,70.8333 34,70.5C 32.951,72.1066 31.451,72.7733 29.5,72.5C 29.4208,71.0695 29.7542,69.7362 30.5,68.5C 27.9135,67.52 25.2469,67.1866 22.5,67.5C 22.5,69.1667 22.5,70.8333 22.5,72.5C 16.7711,72.7877 11.1045,72.4544 5.5,71.5C 4.14011,72.1799 2.80678,72.8466 1.5,73.5C 1.5,51.5 1.5,29.5 1.5,7.5C 7.80968,6.80963 14.143,6.4763 20.5,6.5 Z"/></g>
<g><path style="opacity:0.156" fill="#828282" d="M 20.5,6.5 C 21.5,6.5 22.5,6.5 23.5,6.5C 23.5,7.83333 23.5,9.16667 23.5,10.5C 32.8333,10.5 42.1667,10.5 51.5,10.5C 51.5,9.16667 51.5,7.83333 51.5,6.5C 51.8333,6.5 52.1667,6.5 52.5,6.5C 52.5,8.16667 52.5,9.83333 52.5,11.5C 50.0799,11.2924 47.7466,11.6258 45.5,12.5C 44.502,21.1411 44.1686,29.8078 44.5,38.5C 33.8333,38.5 23.1667,38.5 12.5,38.5C 12.5,40.8333 12.5,43.1667 12.5,45.5C 11.1667,45.5 9.83333,45.5 8.5,45.5C 8.5,44.8333 8.5,44.1667 8.5,43.5C 10.1042,42.713 10.7709,41.3797 10.5,39.5C 9.5,39.5 8.5,39.5 7.5,39.5C 6.9455,35.9878 7.61216,32.9878 9.5,30.5C 9.5,31.8333 9.5,33.1667 9.5,34.5C 11.1667,34.5 12.8333,34.5 14.5,34.5C 14.7359,31.3915 14.4025,28.3915 13.5,25.5C 13.5,24.8333 13.5,24.1667 13.5,23.5C 14.5691,20.592 14.7358,17.592 14,14.5C 13.3292,13.7476 12.4959,13.4142 11.5,13.5C 11.4431,12.391 11.1098,11.391 10.5,10.5C 14.5817,10.6564 18.5817,10.1564 22.5,9C 21.6195,8.2917 20.9528,7.45837 20.5,6.5 Z M 20.5,12.5 C 27.8333,12.5 35.1667,12.5 42.5,12.5C 42.5,20.5 42.5,28.5 42.5,36.5C 37.1667,36.5 31.8333,36.5 26.5,36.5C 26.5,34.1667 26.5,31.8333 26.5,29.5C 24.5,29.5 22.5,29.5 20.5,29.5C 20.5,23.8333 20.5,18.1667 20.5,12.5 Z M 16.5,20.5 C 17.3272,24.3628 18.1606,28.3628 19,32.5C 19.4652,33.9308 20.2986,35.0975 21.5,36C 19.5273,36.4955 17.5273,36.6621 15.5,36.5C 16.0869,31.1473 16.4203,25.8139 16.5,20.5 Z"/></g>
<g><path style="opacity:0.575" fill="#494949" d="M 23.5,6.5 C 32.8333,6.5 42.1667,6.5 51.5,6.5C 51.5,7.83333 51.5,9.16667 51.5,10.5C 42.1667,10.5 32.8333,10.5 23.5,10.5C 23.5,9.16667 23.5,7.83333 23.5,6.5 Z"/></g>
<g><path style="opacity:0.414" fill="#ced1d1" d="M 52.5,6.5 C 75.5,6.5 98.5,6.5 121.5,6.5C 121.5,7.5 121.5,8.5 121.5,9.5C 130.833,9.5 140.167,9.5 149.5,9.5C 149.5,8.5 149.5,7.5 149.5,6.5C 156.833,6.5 164.167,6.5 171.5,6.5C 171.5,11.8333 171.5,17.1667 171.5,22.5C 170.732,23.2625 170.232,24.2625 170,25.5C 169.499,20.4918 168.999,15.4918 168.5,10.5C 164.854,8.9069 161.521,9.24023 158.5,11.5C 141.5,11.5 124.5,11.5 107.5,11.5C 108.366,15.3993 108.366,19.3993 107.5,23.5C 103.5,23.5 99.5,23.5 95.5,23.5C 95.5,22.8333 95.1667,22.5 94.5,22.5C 97.2869,21.5233 100.287,21.19 103.5,21.5C 103.923,19.2188 103.256,17.5521 101.5,16.5C 102.401,12.7593 101.068,10.7593 97.5,10.5C 97.1667,14.5 96.8333,14.5 96.5,10.5C 88.5088,9.73375 80.5088,9.56709 72.5,10C 70.6602,12.8263 69.9935,15.9929 70.5,19.5C 70.1718,24.8746 70.5052,30.2079 71.5,35.5C 72.1818,36.2427 72.8485,36.9094 73.5,37.5C 74.1098,38.391 74.4431,39.391 74.5,40.5C 72.7376,40.6427 71.0709,40.3094 69.5,39.5C 69.2082,34.5574 69.0415,29.5574 69,24.5C 68.7206,21.5432 67.8873,18.8766 66.5,16.5C 66.5,14.8333 66.5,13.1667 66.5,11.5C 61.8333,11.5 57.1667,11.5 52.5,11.5C 52.5,9.83333 52.5,8.16667 52.5,6.5 Z"/></g>
<g><path style="opacity:0.265" fill="#9ca1a0" d="M 121.5,6.5 C 130.833,6.5 140.167,6.5 149.5,6.5C 149.5,7.5 149.5,8.5 149.5,9.5C 140.167,9.5 130.833,9.5 121.5,9.5C 121.5,8.5 121.5,7.5 121.5,6.5 Z"/></g>
<g><path style="opacity:0.771" fill="#fefefe" d="M 225.5,8.5 C 228.051,10.5777 229.884,13.2444 231,16.5C 234.619,26.0316 238.619,35.3649 243,44.5C 246.5,39 250,33.5 253.5,28C 249.847,22.5269 246.847,16.6936 244.5,10.5C 252.098,8.05042 256.931,10.7171 259,18.5C 260.439,15.3974 262.273,12.5641 264.5,10C 267.554,9.17858 270.554,9.34524 273.5,10.5C 270.628,16.4116 267.628,22.245 264.5,28C 267.916,34.1668 271.582,40.1668 275.5,46C 272.298,47.4833 268.964,47.8166 265.5,47C 263.212,44.2567 261.045,41.4233 259,38.5C 256.598,41.5086 254.098,44.342 251.5,47C 242.995,47.8714 234.662,47.0381 226.5,44.5C 221.254,46.1845 215.921,47.0178 210.5,47C 215.404,34.1203 220.404,21.287 225.5,8.5 Z M 225.5,31.5 C 229.671,33.8384 229.338,35.005 224.5,35C 225.337,33.9887 225.67,32.8221 225.5,31.5 Z"/></g>
<g><path style="opacity:0.793" fill="#fefefe" d="M 381.5,8.5 C 383.888,9.21873 385.388,10.8854 386,13.5C 390.371,24.4057 394.871,35.239 399.5,46C 395.974,47.3368 392.308,47.8368 388.5,47.5C 388.5,46.5 388.5,45.5 388.5,44.5C 382.729,44.0848 377.229,45.0848 372,47.5C 370.112,47.204 368.278,46.704 366.5,46C 371.642,33.5501 376.642,21.0501 381.5,8.5 Z M 381.5,32.5 C 382.995,32.4148 383.995,33.0815 384.5,34.5C 381.222,36.1515 380.222,35.4848 381.5,32.5 Z"/></g>
<g><path style="opacity:0.796" fill="#fefefe" d="M 469.5,8.5 C 471.888,9.21873 473.388,10.8854 474,13.5C 478.371,24.4057 482.871,35.239 487.5,46C 483.974,47.3368 480.308,47.8368 476.5,47.5C 476.5,46.5 476.5,45.5 476.5,44.5C 470.729,44.0848 465.229,45.0848 460,47.5C 458.112,47.204 456.278,46.704 454.5,46C 459.642,33.5501 464.642,21.0501 469.5,8.5 Z M 469.5,32.5 C 470.995,32.4148 471.995,33.0815 472.5,34.5C 469.222,36.1515 468.222,35.4848 469.5,32.5 Z"/></g>
<g><path style="opacity:0.419" fill="#969c9b" d="M 101.5,16.5 C 101.688,18.1033 101.188,19.4366 100,20.5C 98.4345,21.0606 97.1011,20.3939 96,18.5C 94.3845,19.8009 92.8845,19.8009 91.5,18.5C 91.3259,16.139 90.9926,13.8056 90.5,11.5C 89.1667,11.5 87.8333,11.5 86.5,11.5C 86.5,14.1667 86.5,16.8333 86.5,19.5C 85.1751,20.9526 84.3418,20.6192 84,18.5C 83.3333,19.1667 82.6667,19.8333 82,20.5C 81.587,17.7679 80.9203,15.1013 80,12.5C 79.5034,14.8098 79.3367,17.1432 79.5,19.5C 77.5,19.5 75.5,19.5 73.5,19.5C 73.6621,17.4727 73.4955,15.4727 73,13.5C 72.9977,16.0512 72.1644,18.0512 70.5,19.5C 69.9935,15.9929 70.6602,12.8263 72.5,10C 80.5088,9.56709 88.5088,9.73375 96.5,10.5C 96.8333,14.5 97.1667,14.5 97.5,10.5C 101.068,10.7593 102.401,12.7593 101.5,16.5 Z"/></g>
<g><path style="opacity:0.783" fill="#fefefe" d="M 277.5,9.5 C 279.262,9.35729 280.929,9.69063 282.5,10.5C 286.5,15.1667 290.833,19.5 295.5,23.5C 299.29,19.2082 303.29,15.0415 307.5,11C 309.025,9.99136 310.692,9.49136 312.5,9.5C 312.5,22.1667 312.5,34.8333 312.5,47.5C 309.5,47.5 306.5,47.5 303.5,47.5C 303.666,41.4908 303.499,35.4908 303,29.5C 300.333,32.1667 297.667,34.8333 295,37.5C 292.667,35.1667 290.333,32.8333 288,30.5C 287.501,36.1569 287.334,41.8236 287.5,47.5C 284.167,47.5 280.833,47.5 277.5,47.5C 277.5,34.8333 277.5,22.1667 277.5,9.5 Z"/></g>
<g><path style="opacity:0.7" fill="#dcdedd" d="M 171.5,22.5 C 171.5,45.5 171.5,68.5 171.5,91.5C 169.833,91.5 168.167,91.5 166.5,91.5C 166.66,89.8008 166.494,88.1341 166,86.5C 165.617,87.056 165.117,87.3893 164.5,87.5C 164.167,87.5 163.833,87.5 163.5,87.5C 163.719,86.325 163.386,85.325 162.5,84.5C 161.667,85.5 160.833,86.5 160,87.5C 159.001,83.7628 157.668,83.7628 156,87.5C 155.751,86.376 155.251,85.376 154.5,84.5C 152.958,85.7468 151.458,85.7468 150,84.5C 149.51,85.7932 149.343,87.1266 149.5,88.5C 147.983,88.4894 146.816,87.8228 146,86.5C 144.726,91.061 143.226,91.3943 141.5,87.5C 141.5,86.5 141.5,85.5 141.5,84.5C 140.167,84.5 138.833,84.5 137.5,84.5C 136.386,89.6294 135.719,89.6294 135.5,84.5C 131.075,83.8101 127.241,84.8101 124,87.5C 123.583,86.244 122.75,85.5774 121.5,85.5C 118.865,86.8366 116.198,87.1699 113.5,86.5C 112.081,87.0047 111.415,88.0047 111.5,89.5C 110.326,90.5137 109.66,91.847 109.5,93.5C 108.732,92.7375 108.232,91.7375 108,90.5C 107.444,92.8848 107.61,95.2181 108.5,97.5C 108.5,98.1667 108.5,98.8333 108.5,99.5C 107.833,99.5 107.5,99.8333 107.5,100.5C 107.5,101.167 107.5,101.833 107.5,102.5C 107.298,104.95 107.631,107.283 108.5,109.5C 108.557,110.609 108.89,111.609 109.5,112.5C 107.5,112.5 105.5,112.5 103.5,112.5C 103.5,99.5 103.5,86.5 103.5,73.5C 107.167,73.5 110.833,73.5 114.5,73.5C 113.609,70.4233 112.776,67.4233 112,64.5C 114.655,66.9199 116.489,69.9199 117.5,73.5C 114.346,75.0259 111.013,75.6925 107.5,75.5C 107.5,77.5 107.5,79.5 107.5,81.5C 127.167,81.5 146.833,81.5 166.5,81.5C 166.5,76.1667 166.5,70.8333 166.5,65.5C 167.59,51.563 167.59,37.563 166.5,23.5C 166.5,19.5 166.5,15.5 166.5,11.5C 163.833,11.5 161.167,11.5 158.5,11.5C 161.521,9.24023 164.854,8.9069 168.5,10.5C 168.999,15.4918 169.499,20.4918 170,25.5C 170.232,24.2625 170.732,23.2625 171.5,22.5 Z M 114.5,88.5 C 117.907,88.1253 118.407,89.1253 116,91.5C 114.961,90.7562 114.461,89.7562 114.5,88.5 Z"/></g>
<g><path style="opacity:0.788" fill="#fefefe" d="M 188.5,10.5 C 191.5,10.5 194.5,10.5 197.5,10.5C 197.5,19.8333 197.5,29.1667 197.5,38.5C 201.167,38.5 204.833,38.5 208.5,38.5C 208.5,41.5 208.5,44.5 208.5,47.5C 201.833,47.5 195.167,47.5 188.5,47.5C 188.5,35.1667 188.5,22.8333 188.5,10.5 Z"/></g>
<g><path style="opacity:0.779" fill="#fefeff" d="M 318.5,10.5 C 321.5,10.5 324.5,10.5 327.5,10.5C 327.5,22.8333 327.5,35.1667 327.5,47.5C 324.5,47.5 321.5,47.5 318.5,47.5C 318.5,35.1667 318.5,22.8333 318.5,10.5 Z"/></g>
<g><path style="opacity:0.801" fill="#fefefe" d="M 334.5,10.5 C 342.035,9.92718 349.368,10.7605 356.5,13C 366.785,22.9702 367.119,33.3035 357.5,44C 350.181,47.1253 342.515,48.292 334.5,47.5C 334.5,35.1667 334.5,22.8333 334.5,10.5 Z M 343.5,19.5 C 350.589,18.755 354.589,21.9216 355.5,29C 354.589,36.0784 350.589,39.245 343.5,38.5C 343.5,32.1667 343.5,25.8333 343.5,19.5 Z"/></g>
<g><path style="opacity:0.794" fill="#fefefe" d="M 399.5,10.5 C 408.5,10.5 417.5,10.5 426.5,10.5C 426.5,13.5 426.5,16.5 426.5,19.5C 423.5,19.5 420.5,19.5 417.5,19.5C 417.5,28.8333 417.5,38.1667 417.5,47.5C 414.5,47.5 411.5,47.5 408.5,47.5C 408.5,38.1667 408.5,28.8333 408.5,19.5C 405.5,19.5 402.5,19.5 399.5,19.5C 399.5,16.5 399.5,13.5 399.5,10.5 Z"/></g>
<g><path style="opacity:0.74" fill="#fefefe" d="M 427.5,10.5 C 436.5,10.5 445.5,10.5 454.5,10.5C 455.691,17.8166 452.691,20.8166 445.5,19.5C 445.5,28.8333 445.5,38.1667 445.5,47.5C 442.167,47.5 438.833,47.5 435.5,47.5C 435.5,38.1667 435.5,28.8333 435.5,19.5C 432.833,19.5 430.167,19.5 427.5,19.5C 427.5,16.5 427.5,13.5 427.5,10.5 Z"/></g>
<g><path style="opacity:0.192" fill="#677272" d="M 91.5,18.5 C 90.8826,18.6107 90.3826,18.944 90,19.5C 89.6667,17.8333 89.3333,16.1667 89,14.5C 88.9005,16.6526 88.0672,18.3192 86.5,19.5C 86.5,16.8333 86.5,14.1667 86.5,11.5C 87.8333,11.5 89.1667,11.5 90.5,11.5C 90.9926,13.8056 91.3259,16.139 91.5,18.5 Z"/></g>
<g><path style="opacity:0.703" fill="#e2e2e2" d="M 66.5,16.5 C 67.8873,18.8766 68.7206,21.5432 69,24.5C 69.0415,29.5574 69.2082,34.5574 69.5,39.5C 71.0709,40.3094 72.7376,40.6427 74.5,40.5C 78.8992,38.5887 82.3992,39.5887 85,43.5C 86.582,42.0397 87.9153,40.373 89,38.5C 90.6934,39.1845 92.1934,40.1845 93.5,41.5C 94.1924,40.9747 94.6924,40.3081 95,39.5C 95.9234,40.7588 96.7568,42.0921 97.5,43.5C 98.1667,42.1667 98.8333,40.8333 99.5,39.5C 101.214,40.6085 101.881,39.9418 101.5,37.5C 102.709,35.815 103.709,34.1484 104.5,32.5C 105.799,33.09 106.632,34.09 107,35.5C 107.168,44.5184 107.668,53.5184 108.5,62.5C 109.5,62.8333 110.167,63.5 110.5,64.5C 108.345,64.838 106.011,64.838 103.5,64.5C 103.5,58.8333 103.5,53.1667 103.5,47.5C 92.5,47.5 81.5,47.5 70.5,47.5C 70.5,53.8333 70.5,60.1667 70.5,66.5C 68.1667,66.5 65.8333,66.5 63.5,66.5C 63.3347,62.8183 63.5014,59.1516 64,55.5C 64.6667,54.8333 65.3333,54.1667 66,53.5C 66.4999,41.1712 66.6665,28.8378 66.5,16.5 Z"/></g>
<g><path style="opacity:0.31" fill="#777978" d="M 94.5,22.5 C 95.1667,22.5 95.5,22.8333 95.5,23.5C 96.1171,25.6802 97.1171,27.6802 98.5,29.5C 97.6086,30.5896 96.6086,30.5896 95.5,29.5C 93.6363,27.2885 93.303,24.9551 94.5,22.5 Z"/></g>
<g><path style="opacity:0.223" fill="#b3b5b5" d="M 10.5,10.5 C 11.1098,11.391 11.4431,12.391 11.5,13.5C 10.8826,13.6107 10.3826,13.944 10,14.5C 9.33333,17.1667 9.33333,19.8333 10,22.5C 11.0113,23.3366 12.1779,23.67 13.5,23.5C 13.5,24.1667 13.5,24.8333 13.5,25.5C 10.0897,25.3838 8.75635,27.0504 9.5,30.5C 7.61216,32.9878 6.9455,35.9878 7.5,39.5C 7.83333,40.8333 8.16667,42.1667 8.5,43.5C 8.5,44.1667 8.5,44.8333 8.5,45.5C 7.83333,45.5 7.16667,45.5 6.5,45.5C 4.97743,38.7305 5.31077,32.0638 7.5,25.5C 8.83333,23.8333 8.83333,22.1667 7.5,20.5C 7.41387,18.323 6.74721,16.323 5.5,14.5C 6.24585,13.2638 6.57918,11.9305 6.5,10.5C 7.83333,10.5 9.16667,10.5 10.5,10.5 Z"/></g>
<g><path style="opacity:0.237" fill="#bfc1c1" d="M 161.5,23.5 C 163.167,23.5 164.833,23.5 166.5,23.5C 167.59,37.563 167.59,51.563 166.5,65.5C 165.167,65.5 163.833,65.5 162.5,65.5C 162.5,64.5 162.5,63.5 162.5,62.5C 164.519,61.4617 164.853,60.1284 163.5,58.5C 163.5,57.1667 163.5,55.8333 163.5,54.5C 164.555,51.9272 164.722,49.2605 164,46.5C 163.329,45.7476 162.496,45.4142 161.5,45.5C 161.5,44.8333 161.5,44.1667 161.5,43.5C 162.496,43.5858 163.329,43.2524 164,42.5C 164.722,39.7395 164.555,37.0728 163.5,34.5C 163.5,33.5 163.5,32.5 163.5,31.5C 162.167,31.5 160.833,31.5 159.5,31.5C 159.694,28.6703 160.361,26.0037 161.5,23.5 Z"/></g>
<g><path style="opacity:0.209" fill="#868888" d="M 161.5,23.5 C 160.361,26.0037 159.694,28.6703 159.5,31.5C 160.833,31.5 162.167,31.5 163.5,31.5C 163.5,32.5 163.5,33.5 163.5,34.5C 162.167,34.5 160.833,34.5 159.5,34.5C 159.336,37.1873 159.503,39.854 160,42.5C 160.383,43.056 160.883,43.3893 161.5,43.5C 161.5,44.1667 161.5,44.8333 161.5,45.5C 160.883,45.6107 160.383,45.944 160,46.5C 159.503,49.146 159.336,51.8127 159.5,54.5C 160.833,54.5 162.167,54.5 163.5,54.5C 163.5,55.8333 163.5,57.1667 163.5,58.5C 162.5,58.5 161.5,58.5 160.5,58.5C 160.157,60.4832 160.824,61.8166 162.5,62.5C 162.5,63.5 162.5,64.5 162.5,65.5C 161.167,65.5 159.833,65.5 158.5,65.5C 158.5,62.8333 158.5,60.1667 158.5,57.5C 151.833,57.5 145.167,57.5 138.5,57.5C 138.5,56.8333 138.5,56.1667 138.5,55.5C 143.167,55.5 147.833,55.5 152.5,55.5C 152.635,48.1375 152.302,40.8042 151.5,33.5C 151.5,32.8333 151.5,32.1667 151.5,31.5C 153.833,31.5 156.167,31.5 158.5,31.5C 158.5,28.8333 158.5,26.1667 158.5,23.5C 159.5,23.5 160.5,23.5 161.5,23.5 Z"/></g>
<g><path style="opacity:0.239" fill="#aeaeae" d="M 151.5,31.5 C 151.5,32.1667 151.5,32.8333 151.5,33.5C 146.786,33.3531 142.119,33.6864 137.5,34.5C 137.326,41.5352 137.659,48.5352 138.5,55.5C 138.5,56.1667 138.5,56.8333 138.5,57.5C 136.876,57.6399 135.71,56.9733 135,55.5C 134.333,48.5 134.333,41.5 135,34.5C 136.44,32.9544 138.273,32.121 140.5,32C 144.152,31.5014 147.818,31.3347 151.5,31.5 Z"/></g>
<g><path style="opacity:0.265" fill="#83898d" d="M 101.5,37.5 C 101.881,39.9418 101.214,40.6085 99.5,39.5C 98.8333,40.8333 98.1667,42.1667 97.5,43.5C 96.7568,42.0921 95.9234,40.7588 95,39.5C 94.6924,40.3081 94.1924,40.9747 93.5,41.5C 92.1934,40.1845 90.6934,39.1845 89,38.5C 87.9153,40.373 86.582,42.0397 85,43.5C 82.3992,39.5887 78.8992,38.5887 74.5,40.5C 74.4431,39.391 74.1098,38.391 73.5,37.5C 73.4614,36.2438 73.9614,35.2438 75,34.5C 76,35.8333 77,35.8333 78,34.5C 79.3333,37.1667 80.6667,37.1667 82,34.5C 82.6667,35.8333 83.3333,35.8333 84,34.5C 84.3333,35.1667 84.6667,35.8333 85,36.5C 86.1011,34.6061 87.4345,33.9394 89,34.5C 90.3333,38.5 91.6667,38.5 93,34.5C 93.9147,35.3279 94.5814,36.3279 95,37.5C 96.1369,36.636 97.4702,35.636 99,34.5C 100.417,35.0779 101.25,36.0779 101.5,37.5 Z"/></g>
<g><path style="opacity:0.258" fill="#b1b7b7" d="M 6.5,53.5 C 17.1667,53.5 27.8333,53.5 38.5,53.5C 38.0022,56.4869 37.5022,59.4869 37,62.5C 35.4878,61.7433 34.1545,60.7433 33,59.5C 30.9394,63.4379 28.7727,63.4379 26.5,59.5C 25.6667,60.5 24.8333,61.5 24,62.5C 23.4806,61.4844 22.6473,60.8178 21.5,60.5C 19.6555,61.9378 18.4888,61.6044 18,59.5C 16.7827,60.3859 15.4493,61.3859 14,62.5C 12.6667,58.5 11.3333,58.5 10,62.5C 9.36453,61.0337 8.53119,59.7003 7.5,58.5C 8.16667,57.5 8.83333,56.5 9.5,55.5C 8.39836,54.8243 7.39836,54.1577 6.5,53.5 Z"/></g>
<g><path style="opacity:0.766" fill="#fefefe" d="M 203.5,62.5 C 205.262,62.3573 206.929,62.6906 208.5,63.5C 213.896,68.7256 218.729,74.3923 223,80.5C 223.499,74.8431 223.666,69.1764 223.5,63.5C 226.833,63.5 230.167,63.5 233.5,63.5C 233.5,76.1667 233.5,88.8333 233.5,101.5C 231.738,101.643 230.071,101.309 228.5,100.5C 223.149,94.9831 217.982,89.3164 213,83.5C 212.501,89.1569 212.334,94.8236 212.5,100.5C 209.5,100.5 206.5,100.5 203.5,100.5C 203.5,87.8333 203.5,75.1667 203.5,62.5 Z"/></g>
<g><path style="opacity:0.786" fill="#fefefe" d="M 350.5,62.5 C 371.833,62.173 379.333,72.173 373,92.5C 362.357,104.106 351.357,104.439 340,93.5C 333.854,79.7702 337.354,69.4369 350.5,62.5 Z M 353.5,71.5 C 365.091,72.2468 368.591,77.9135 364,88.5C 359.049,93.6381 354.049,93.6381 349,88.5C 345.105,81.358 346.605,75.6913 353.5,71.5 Z"/></g>
<g><path style="opacity:0.779" fill="#fefefe" d="M 188.5,63.5 C 191.5,63.5 194.5,63.5 197.5,63.5C 197.5,75.8333 197.5,88.1667 197.5,100.5C 194.5,100.5 191.5,100.5 188.5,100.5C 188.5,88.1667 188.5,75.8333 188.5,63.5 Z"/></g>
<g><path style="opacity:0.736" fill="#fefffe" d="M 236.5,63.5 C 245.5,63.5 254.5,63.5 263.5,63.5C 264.691,70.8166 261.691,73.8166 254.5,72.5C 254.5,81.8333 254.5,91.1667 254.5,100.5C 251.167,100.5 247.833,100.5 244.5,100.5C 244.5,91.1667 244.5,81.8333 244.5,72.5C 241.833,72.5 239.167,72.5 236.5,72.5C 236.5,69.5 236.5,66.5 236.5,63.5 Z"/></g>
<g><path style="opacity:0.78" fill="#fdfdfd" d="M 266.5,63.5 C 273.167,63.5 279.833,63.5 286.5,63.5C 286.5,66.5 286.5,69.5 286.5,72.5C 282.833,72.5 279.167,72.5 275.5,72.5C 275.5,74.1667 275.5,75.8333 275.5,77.5C 278.833,77.5 282.167,77.5 285.5,77.5C 285.5,80.5 285.5,83.5 285.5,86.5C 282.167,86.5 278.833,86.5 275.5,86.5C 275.5,88.1667 275.5,89.8333 275.5,91.5C 279.5,91.5 283.5,91.5 287.5,91.5C 287.5,94.5 287.5,97.5 287.5,100.5C 280.5,100.5 273.5,100.5 266.5,100.5C 266.5,88.1667 266.5,75.8333 266.5,63.5 Z"/></g>
<g><path style="opacity:0.809" fill="#fefefe" d="M 292.5,63.5 C 298.509,63.3338 304.509,63.5005 310.5,64C 317.711,66.2484 320.211,71.0817 318,78.5C 316.939,81.5616 315.106,84.0616 312.5,86C 314.707,90.2475 317.04,94.4141 319.5,98.5C 316.297,100.965 312.964,101.131 309.5,99C 307.529,94.8808 305.196,91.0475 302.5,87.5C 301.508,91.7828 301.174,96.1161 301.5,100.5C 298.5,100.5 295.5,100.5 292.5,100.5C 292.5,88.1667 292.5,75.8333 292.5,63.5 Z M 301.5,72.5 C 304.665,71.9635 307.331,72.7969 309.5,75C 307.836,78.1362 305.169,79.3029 301.5,78.5C 301.5,76.5 301.5,74.5 301.5,72.5 Z"/></g>
<g><path style="opacity:0.776" fill="#fefffe" d="M 322.5,63.5 C 325.5,63.5 328.5,63.5 331.5,63.5C 331.5,75.8333 331.5,88.1667 331.5,100.5C 328.5,100.5 325.5,100.5 322.5,100.5C 322.5,88.1667 322.5,75.8333 322.5,63.5 Z"/></g>
<g><path style="opacity:0.79" fill="#fefefe" d="M 380.5,63.5 C 387.906,63.152 395.239,63.652 402.5,65C 409.487,72.7396 408.821,79.7396 400.5,86C 403.364,90.0326 406.031,94.1993 408.5,98.5C 405.721,100.297 402.721,100.797 399.5,100C 396.61,95.7073 393.61,91.5406 390.5,87.5C 389.508,91.7828 389.174,96.1161 389.5,100.5C 386.5,100.5 383.5,100.5 380.5,100.5C 380.5,88.1667 380.5,75.8333 380.5,63.5 Z M 389.5,72.5 C 391.857,72.3367 394.19,72.5034 396.5,73C 397.86,74.9376 397.527,76.6043 395.5,78C 393.527,78.4955 391.527,78.6621 389.5,78.5C 389.5,76.5 389.5,74.5 389.5,72.5 Z"/></g>
<g><path style="opacity:0.438" fill="#a9abab" d="M 42.5,74.5 C 42.5,75.5 42.5,76.5 42.5,77.5C 42.3284,78.4916 42.6618,79.1583 43.5,79.5C 42.4891,82.2302 40.8225,82.8968 38.5,81.5C 38.5,80.8333 38.5,80.1667 38.5,79.5C 40.0739,77.8984 40.7406,75.8984 40.5,73.5C 37.1667,73.5 33.8333,73.5 30.5,73.5C 30.719,74.675 30.3857,75.675 29.5,76.5C 27.2883,77.0893 25.2883,76.4227 23.5,74.5C 23.1667,73.8333 22.8333,73.1667 22.5,72.5C 22.5,70.8333 22.5,69.1667 22.5,67.5C 25.2469,67.1866 27.9135,67.52 30.5,68.5C 29.7542,69.7362 29.4208,71.0695 29.5,72.5C 31.451,72.7733 32.951,72.1066 34,70.5C 34.3333,70.8333 34.6667,71.1667 35,71.5C 35.3333,70.1667 35.6667,68.8333 36,67.5C 37.6667,64.8333 39.3333,64.8333 41,67.5C 41.2904,69.9204 41.7904,72.2537 42.5,74.5 Z"/></g>
<g><path style="opacity:0.043" fill="#808982" d="M 22.5,72.5 C 22.8333,73.1667 23.1667,73.8333 23.5,74.5C 23.5386,75.7562 23.0386,76.7562 22,77.5C 21.7811,76.062 21.2811,74.7287 20.5,73.5C 20.1667,74.3333 19.8333,75.1667 19.5,76C 21.1297,80.18 22.7963,83.68 24.5,86.5C 25.1667,86.5 25.8333,86.5 26.5,86.5C 26.56,87.0431 26.8933,87.3764 27.5,87.5C 28.7733,86.7435 28.7733,86.0768 27.5,85.5C 27.5,84.8333 27.5,84.1667 27.5,83.5C 30.1062,82.8641 32.6062,82.8641 35,83.5C 35.4983,81.4556 36.665,80.1223 38.5,79.5C 38.5,80.1667 38.5,80.8333 38.5,81.5C 39.3065,82.7281 40.3065,83.7281 41.5,84.5C 40.8333,84.5 40.5,84.8333 40.5,85.5C 39.8333,85.5 39.1667,85.5 38.5,85.5C 37.5084,85.3284 36.8417,85.6618 36.5,86.5C 35.8333,86.5 35.5,86.8333 35.5,87.5C 34.5,88.1667 33.5,88.8333 32.5,89.5C 30.8333,89.5 29.1667,89.5 27.5,89.5C 21.3515,89.9075 15.3515,89.9075 9.5,89.5C 9.67158,88.5084 9.33825,87.8417 8.5,87.5C 8.59121,85.3023 7.92454,84.9689 6.5,86.5C 6.5,85.1667 6.5,83.8333 6.5,82.5C 4.7839,82.3713 3.11723,82.038 1.5,81.5C 1.5,78.8333 1.5,76.1667 1.5,73.5C 2.80678,72.8466 4.14011,72.1799 5.5,71.5C 11.1045,72.4544 16.7711,72.7877 22.5,72.5 Z M 6.5,76.5 C 11.8204,74.0798 13.987,75.7465 13,81.5C 11.8904,83.0368 10.3904,83.7035 8.5,83.5C 8.82943,80.7718 8.16276,78.4385 6.5,76.5 Z M 15.5,74.5 C 16.0768,73.2267 16.7435,73.2267 17.5,74.5C 17.0302,75.463 16.3635,75.463 15.5,74.5 Z M 16.5,80.5 C 18.8337,82.1757 19.8337,84.509 19.5,87.5C 15.7429,87.7136 15.0762,86.7136 17.5,84.5C 15.4197,83.4718 15.0864,82.1385 16.5,80.5 Z M 11.5,85.5 C 13.337,85.6395 13.6704,86.3061 12.5,87.5C 11.7025,87.0431 11.3691,86.3764 11.5,85.5 Z M 27.5,85.5 C 28.7733,86.0768 28.7733,86.7435 27.5,87.5C 26.8933,87.3764 26.56,87.0431 26.5,86.5C 26.5,85.8333 26.8333,85.5 27.5,85.5 Z M 30.5,85.5 C 32.337,85.6395 32.6704,86.3061 31.5,87.5C 30.7025,87.0431 30.3691,86.3764 30.5,85.5 Z"/></g>
<g><path style="opacity:0.752" fill="#d6d7d6" d="M 1.5,81.5 C 3.11723,82.038 4.7839,82.3713 6.5,82.5C 6.5,83.8333 6.5,85.1667 6.5,86.5C 6.84171,87.3382 7.50838,87.6716 8.5,87.5C 9.33825,87.8417 9.67158,88.5084 9.5,89.5C 15.3515,89.9075 21.3515,89.9075 27.5,89.5C 29.8131,90.7847 31.4798,90.7847 32.5,89.5C 33.5,88.8333 34.5,88.1667 35.5,87.5C 36.1667,87.5 36.5,87.1667 36.5,86.5C 36.8417,85.6618 37.5084,85.3284 38.5,85.5C 39.5477,87.9327 40.2144,87.9327 40.5,85.5C 40.5,84.8333 40.8333,84.5 41.5,84.5C 42.0576,86.5934 43.3909,88.0934 45.5,89C 48.4318,89.9533 51.4318,90.4533 54.5,90.5C 54.2964,95.0882 55.963,98.7549 59.5,101.5C 59.5,102.167 59.5,102.833 59.5,103.5C 55.8268,101.685 53.1601,98.8514 51.5,95C 49.2511,94.1368 47.4178,94.6368 46,96.5C 45.5026,99.146 45.3359,101.813 45.5,104.5C 32.5,104.5 19.5,104.5 6.5,104.5C 6.44805,106.903 6.78138,109.236 7.5,111.5C 7.5,112.167 7.5,112.833 7.5,113.5C 6.69929,115.042 6.36596,116.708 6.5,118.5C 7.5,118.5 8.5,118.5 9.5,118.5C 10.4345,119.568 10.7678,120.901 10.5,122.5C 9.88258,122.611 9.38258,122.944 9,123.5C 8.33333,125.833 8.33333,128.167 9,130.5C 12.3873,132.318 14.3873,131.318 15,127.5C 15.6667,131.167 15.6667,134.833 15,138.5C 14.3873,134.682 12.3873,133.682 9,135.5C 8.33333,137.833 8.33333,140.167 9,142.5C 10.0113,143.337 11.1779,143.67 12.5,143.5C 12.5,144.833 12.5,146.167 12.5,147.5C 16.9707,146.911 20.9707,147.577 24.5,149.5C 16.8333,149.5 9.16667,149.5 1.5,149.5C 1.5,126.833 1.5,104.167 1.5,81.5 Z M 8.5,87.5 C 7.50838,87.6716 6.84171,87.3382 6.5,86.5C 7.92454,84.9689 8.59121,85.3023 8.5,87.5 Z M 11.5,85.5 C 11.3691,86.3764 11.7025,87.0431 12.5,87.5C 13.6704,86.3061 13.337,85.6395 11.5,85.5 Z M 27.5,85.5 C 28.7733,86.0768 28.7733,86.7435 27.5,87.5C 26.8933,87.3764 26.56,87.0431 26.5,86.5C 26.5,85.8333 26.8333,85.5 27.5,85.5 Z M 30.5,85.5 C 30.3691,86.3764 30.7025,87.0431 31.5,87.5C 32.6704,86.3061 32.337,85.6395 30.5,85.5 Z M 38.5,85.5 C 39.1667,85.5 39.8333,85.5 40.5,85.5C 40.2144,87.9327 39.5477,87.9327 38.5,85.5 Z M 8.5,95.5 C 8.5,96.8333 7.83333,97.5 6.5,97.5C 6.28099,96.325 6.61432,95.325 7.5,94.5C 8.10667,94.6236 8.44001,94.9569 8.5,95.5 Z M 24.5,94.5 C 26.099,94.2322 27.4324,94.5655 28.5,95.5C 27.5416,95.9528 26.7083,96.6195 26,97.5C 25.4867,96.4734 24.9867,95.4734 24.5,94.5 Z M 34.5,95.5 C 33.7784,95.9175 33.2784,96.5842 33,97.5C 32.5357,96.9056 32.369,96.2389 32.5,95.5C 33.1667,94.1667 33.8333,94.1667 34.5,95.5 Z M 38.5,95.5 C 39.209,94.596 40.209,94.2627 41.5,94.5C 41.3059,98.0048 40.3059,98.3382 38.5,95.5 Z M 6.5,99.5 C 8.04814,99.8212 8.71481,100.821 8.5,102.5C 6.95186,102.179 6.28519,101.179 6.5,99.5 Z M 35.5,102.5 C 34.8333,102.5 34.1667,102.5 33.5,102.5C 34.6953,98.7139 35.362,98.7139 35.5,102.5 Z M 39.5,99.5 C 42.1667,100.5 42.1667,101.5 39.5,102.5C 39.5,101.5 39.5,100.5 39.5,99.5 Z M 20.5,102.5 C 19.8333,102.5 19.1667,102.5 18.5,102.5C 19.5477,100.067 20.2144,100.067 20.5,102.5 Z M 24.5,102.5 C 23.5,102.5 22.5,102.5 21.5,102.5C 22.5,99.8333 23.5,99.8333 24.5,102.5 Z M 28.5,102.5 C 27.8333,102.5 27.1667,102.5 26.5,102.5C 27.5477,100.067 28.2144,100.067 28.5,102.5 Z"/></g>
<g><path style="opacity:0.004" fill="#000000" d="M 27.5,83.5 C 27.5,84.1667 27.5,84.8333 27.5,85.5C 26.8333,85.5 26.5,85.8333 26.5,86.5C 25.8333,86.5 25.1667,86.5 24.5,86.5C 25.1667,85.1667 26.1667,84.1667 27.5,83.5 Z"/></g>
<g><path style="opacity:0.043" fill="#8d8d8d" d="M 121.5,85.5 C 119.326,89.1888 118.326,93.1888 118.5,97.5C 121.909,97.7507 125.242,97.4173 128.5,96.5C 129.281,97.7287 129.781,99.062 130,100.5C 130.543,98.3686 131.376,96.3686 132.5,94.5C 133.799,95.09 134.632,96.09 135,97.5C 135.667,96.1667 136.333,94.8333 137,93.5C 137.219,94.938 137.719,96.2713 138.5,97.5C 140.522,94.4762 141.522,91.1429 141.5,87.5C 143.226,91.3943 144.726,91.061 146,86.5C 146.816,87.8228 147.983,88.4894 149.5,88.5C 151.099,90.6038 152.932,92.6038 155,94.5C 155.284,92.1144 156.284,91.4477 158,92.5C 159.055,89.9441 160.888,88.2775 163.5,87.5C 163.833,87.5 164.167,87.5 164.5,87.5C 162.769,90.6148 160.769,93.6148 158.5,96.5C 159.5,97.1667 160.5,97.8333 161.5,98.5C 160.359,99.4255 160.359,100.259 161.5,101C 162.793,101.49 164.127,101.657 165.5,101.5C 166.045,105.172 166.378,104.838 166.5,100.5C 168.117,101.038 169.784,101.371 171.5,101.5C 171.5,101.833 171.5,102.167 171.5,102.5C 170.167,102.5 168.833,102.5 167.5,102.5C 167.662,104.527 167.495,106.527 167,108.5C 166.586,108.957 166.086,109.291 165.5,109.5C 163.376,107.395 161.71,105.061 160.5,102.5C 157.482,102.335 154.482,102.502 151.5,103C 150.333,103.5 149.5,104.333 149,105.5C 148.3,103.968 147.134,102.968 145.5,102.5C 144.637,104.771 144.637,107.105 145.5,109.5C 142.856,109.84 140.523,109.173 138.5,107.5C 137.914,107.709 137.414,108.043 137,108.5C 134.406,106.195 131.573,105.862 128.5,107.5C 128.5,105.833 128.5,104.167 128.5,102.5C 127.167,102.5 125.833,102.5 124.5,102.5C 124.784,104.415 124.451,106.081 123.5,107.5C 123.5,105.833 123.5,104.167 123.5,102.5C 119.802,102.552 116.135,102.886 112.5,103.5C 111.833,103.5 111.167,103.5 110.5,103.5C 109.791,102.596 108.791,102.263 107.5,102.5C 107.5,101.833 107.5,101.167 107.5,100.5C 108.167,100.5 108.5,100.167 108.5,99.5C 108.5,98.8333 108.5,98.1667 108.5,97.5C 109.833,97.5 111.167,97.5 112.5,97.5C 112.5,96.5 112.5,95.5 112.5,94.5C 111.209,94.7373 110.209,94.404 109.5,93.5C 109.66,91.847 110.326,90.5137 111.5,89.5C 111.415,88.0047 112.081,87.0047 113.5,86.5C 116.198,87.1699 118.865,86.8366 121.5,85.5 Z M 114.5,88.5 C 114.461,89.7562 114.961,90.7562 116,91.5C 118.407,89.1253 117.907,88.1253 114.5,88.5 Z M 114.5,93.5 C 115.586,93.62 116.253,94.2867 116.5,95.5C 116.167,96.1667 115.833,96.8333 115.5,97.5C 114.571,96.3112 114.238,94.9778 114.5,93.5 Z M 125.5,99.5 C 127.337,99.6395 127.67,100.306 126.5,101.5C 125.702,101.043 125.369,100.376 125.5,99.5 Z M 137.5,99.5 C 138.693,99.9704 139.36,100.97 139.5,102.5C 139.167,103.5 138.833,104.5 138.5,105.5C 137.534,103.604 137.201,101.604 137.5,99.5 Z M 145.5,99.5 C 147.199,99.3398 148.866,99.5065 150.5,100C 149.322,100.967 147.989,101.467 146.5,101.5C 145.702,101.043 145.369,100.376 145.5,99.5 Z M 132.5,100.5 C 134.332,101.14 134.665,102.14 133.5,103.5C 132.614,102.675 132.281,101.675 132.5,100.5 Z"/></g>
<g><path style="opacity:0.522" fill="#eaeaea" d="M 80.5,145.5 C 80.5,146.833 80.5,148.167 80.5,149.5C 70.5,149.5 60.5,149.5 50.5,149.5C 51.6005,148.395 52.2671,147.062 52.5,145.5C 57.1667,145.5 61.8333,145.5 66.5,145.5C 66.6666,132.163 66.4999,118.829 66,105.5C 63.9935,104.331 61.8268,103.665 59.5,103.5C 59.5,102.833 59.5,102.167 59.5,101.5C 60.8221,101.33 61.9887,101.663 63,102.5C 63.4988,98.5138 63.6655,94.5138 63.5,90.5C 65.5,90.5 67.5,90.5 69.5,90.5C 69.5,108.833 69.5,127.167 69.5,145.5C 73.1667,145.5 76.8333,145.5 80.5,145.5 Z"/></g>
<g><path style="opacity:0.315" fill="#6c6c6c" d="M 166.5,91.5 C 168.167,91.5 169.833,91.5 171.5,91.5C 171.5,94.8333 171.5,98.1667 171.5,101.5C 169.784,101.371 168.117,101.038 166.5,100.5C 166.5,98.8333 166.5,97.1667 166.5,95.5C 165.325,95.719 164.325,95.3857 163.5,94.5C 164.993,93.8589 165.993,92.8589 166.5,91.5 Z"/></g>
<g><path style="opacity:0.129" fill="#9aa3a3" d="M 17.5,94.5 C 17.5563,97.517 17.8897,97.8503 18.5,95.5C 19.8333,95.5 21.1667,95.5 22.5,95.5C 22.4346,95.9382 22.6012,96.2716 23,96.5C 23.2784,95.5842 23.7784,94.9175 24.5,94.5C 24.9867,95.4734 25.4867,96.4734 26,97.5C 26.7083,96.6195 27.5416,95.9528 28.5,95.5C 29.8333,95.5 31.1667,95.5 32.5,95.5C 32.369,96.2389 32.5357,96.9056 33,97.5C 33.2784,96.5842 33.7784,95.9175 34.5,95.5C 36.3885,96.604 38.0552,97.9373 39.5,99.5C 39.5,100.5 39.5,101.5 39.5,102.5C 38.1667,102.5 36.8333,102.5 35.5,102.5C 35.362,98.7139 34.6953,98.7139 33.5,102.5C 31.8333,102.5 30.1667,102.5 28.5,102.5C 28.2144,100.067 27.5477,100.067 26.5,102.5C 25.8333,102.5 25.1667,102.5 24.5,102.5C 23.5,99.8333 22.5,99.8333 21.5,102.5C 21.1667,102.5 20.8333,102.5 20.5,102.5C 20.2144,100.067 19.5477,100.067 18.5,102.5C 16.5,102.5 14.5,102.5 12.5,102.5C 12.1667,101.167 11.8333,101.167 11.5,102.5C 11.1667,102.5 10.8333,102.5 10.5,102.5C 10.1667,101.167 9.83333,101.167 9.5,102.5C 9.16667,102.5 8.83333,102.5 8.5,102.5C 8.71481,100.821 8.04814,99.8212 6.5,99.5C 6.5,98.8333 6.5,98.1667 6.5,97.5C 7.83333,97.5 8.5,96.8333 8.5,95.5C 9.5,95.5 10.5,95.5 11.5,95.5C 11.8333,96.8333 12.1667,96.8333 12.5,95.5C 14.1172,94.962 15.7839,94.6287 17.5,94.5 Z M 35.5,102.5 C 34.8333,102.5 34.1667,102.5 33.5,102.5C 34.6953,98.7139 35.362,98.7139 35.5,102.5 Z M 20.5,102.5 C 19.8333,102.5 19.1667,102.5 18.5,102.5C 19.5477,100.067 20.2144,100.067 20.5,102.5 Z M 24.5,102.5 C 23.5,102.5 22.5,102.5 21.5,102.5C 22.5,99.8333 23.5,99.8333 24.5,102.5 Z M 28.5,102.5 C 27.8333,102.5 27.1667,102.5 26.5,102.5C 27.5477,100.067 28.2144,100.067 28.5,102.5 Z"/></g>
<g><path style="opacity:0.423" fill="#cccecc" d="M 171.5,102.5 C 171.5,108.167 171.5,113.833 171.5,119.5C 169.833,120.833 168.167,120.833 166.5,119.5C 166.5,117.167 166.5,114.833 166.5,112.5C 161.303,112.091 156.303,112.758 151.5,114.5C 150.833,114.5 150.167,114.5 149.5,114.5C 149.539,112.776 149.206,112.443 148.5,113.5C 147.167,114.167 145.833,114.833 144.5,115.5C 144.167,112.833 143.833,112.833 143.5,115.5C 142.833,115.5 142.167,115.5 141.5,115.5C 141.672,114.508 141.338,113.842 140.5,113.5C 138.167,114.833 135.833,114.833 133.5,113.5C 132.794,112.443 132.461,112.776 132.5,114.5C 131.833,114.5 131.167,114.5 130.5,114.5C 130.631,113.761 130.464,113.094 130,112.5C 129.51,113.793 129.343,115.127 129.5,116.5C 127.976,115.826 126.642,114.826 125.5,113.5C 124.583,114.127 123.583,114.461 122.5,114.5C 118.369,112.817 114.036,112.15 109.5,112.5C 108.89,111.609 108.557,110.609 108.5,109.5C 111.926,109.65 112.259,108.484 109.5,106C 110.252,105.329 110.586,104.496 110.5,103.5C 111.167,103.5 111.833,103.5 112.5,103.5C 111.294,104.88 111.627,106.047 113.5,107C 115.61,107.554 117.61,108.388 119.5,109.5C 121.171,109.332 122.504,108.665 123.5,107.5C 124.451,106.081 124.784,104.415 124.5,102.5C 125.833,102.5 127.167,102.5 128.5,102.5C 128.5,104.167 128.5,105.833 128.5,107.5C 131.573,105.862 134.406,106.195 137,108.5C 137.414,108.043 137.914,107.709 138.5,107.5C 140.523,109.173 142.856,109.84 145.5,109.5C 144.637,107.105 144.637,104.771 145.5,102.5C 147.134,102.968 148.3,103.968 149,105.5C 149.5,104.333 150.333,103.5 151.5,103C 154.482,102.502 157.482,102.335 160.5,102.5C 161.71,105.061 163.376,107.395 165.5,109.5C 166.086,109.291 166.586,108.957 167,108.5C 167.495,106.527 167.662,104.527 167.5,102.5C 168.833,102.5 170.167,102.5 171.5,102.5 Z"/></g>
<g><path style="opacity:0.263" fill="#838383" d="M 129.5,116.5 C 129.337,118.857 129.503,121.19 130,123.5C 130.498,120.518 130.665,117.518 130.5,114.5C 131.167,114.5 131.833,114.5 132.5,114.5C 132.335,117.518 132.502,120.518 133,123.5C 133.498,120.183 133.665,116.85 133.5,113.5C 135.833,114.833 138.167,114.833 140.5,113.5C 140.335,116.85 140.502,120.183 141,123.5C 141.497,120.854 141.664,118.187 141.5,115.5C 142.167,115.5 142.833,115.5 143.5,115.5C 143.833,127.5 144.167,127.5 144.5,115.5C 145.833,114.833 147.167,114.167 148.5,113.5C 148.335,116.85 148.502,120.183 149,123.5C 149.498,120.518 149.665,117.518 149.5,114.5C 150.167,114.5 150.833,114.5 151.5,114.5C 151.5,115.5 151.5,116.5 151.5,117.5C 154.833,117.5 158.167,117.5 161.5,117.5C 161.73,124.555 161.23,131.555 160,138.5C 158.743,132.231 158.243,125.898 158.5,119.5C 156.167,119.5 153.833,119.5 151.5,119.5C 151.5,128.167 151.5,136.833 151.5,145.5C 156.5,145.5 161.5,145.5 166.5,145.5C 167.748,147.69 169.414,148.023 171.5,146.5C 171.5,147.5 171.5,148.5 171.5,149.5C 162.167,149.5 152.833,149.5 143.5,149.5C 143.004,146.993 141.67,144.993 139.5,143.5C 138.808,144.025 138.308,144.692 138,145.5C 136.333,142.833 134.667,142.833 133,145.5C 131.457,144.715 129.79,144.715 128,145.5C 125.815,143.892 123.315,142.892 120.5,142.5C 120.415,133.105 121.082,123.772 122.5,114.5C 123.583,114.461 124.583,114.127 125.5,113.5C 126.642,114.826 127.976,115.826 129.5,116.5 Z"/></g>
<g><path style="opacity:0.47" fill="#fbfbfb" d="M 188.5,114.5 C 193.552,114.45 198.552,114.95 203.5,116C 211.061,122.701 211.395,129.701 204.5,137C 200.863,137.717 197.196,138.217 193.5,138.5C 190.869,138.679 188.535,138.013 186.5,136.5C 189.133,129.983 189.133,123.483 186.5,117C 187.381,116.292 188.047,115.458 188.5,114.5 Z M 192.5,117.5 C 200.354,116.362 204.687,119.695 205.5,127.5C 205.264,131.571 203.264,134.404 199.5,136C 197.19,136.497 194.857,136.663 192.5,136.5C 192.5,130.167 192.5,123.833 192.5,117.5 Z"/></g>
<g><path style="opacity:0.387" fill="#fafafa" d="M 229.5,114.5 C 233.833,114.5 238.167,114.5 242.5,114.5C 242.5,116.167 242.5,117.833 242.5,119.5C 239.739,118.08 236.739,117.413 233.5,117.5C 233.5,120.167 233.5,122.833 233.5,125.5C 235.582,125.528 237.416,124.861 239,123.5C 241,125.833 241,128.167 239,130.5C 237.416,129.139 235.582,128.472 233.5,128.5C 233.5,131.167 233.5,133.833 233.5,136.5C 237.622,136.524 240.788,134.857 243,131.5C 244.14,134.528 243.306,136.695 240.5,138C 235.98,138.928 231.646,138.595 227.5,137C 230.161,130.363 230.161,123.697 227.5,117C 228.056,115.989 228.722,115.156 229.5,114.5 Z"/></g>
<g><path style="opacity:0.468" fill="#fcfcfc" d="M 264.5,114.5 C 266.857,114.337 269.19,114.503 271.5,115C 273.968,116.588 274.134,118.422 272,120.5C 269.976,116.881 267.809,116.714 265.5,120C 267.628,123.13 270.128,125.963 273,128.5C 274.76,137.915 271.26,140.915 262.5,137.5C 261.046,135.333 261.212,133.333 263,131.5C 263.263,134.264 264.763,135.931 267.5,136.5C 268.833,135.833 269.833,134.833 270.5,133.5C 267.292,129.462 264.292,125.296 261.5,121C 262.03,118.557 263.03,116.39 264.5,114.5 Z"/></g>
<g><path style="opacity:0.502" fill="#fdfdfd" d="M 293.5,114.5 C 296.059,114.39 298.392,115.056 300.5,116.5C 297.891,123.182 297.891,129.848 300.5,136.5C 300.291,137.086 299.957,137.586 299.5,138C 297.098,138.814 294.765,138.647 292.5,137.5C 292.808,136.692 293.308,136.025 294,135.5C 294.667,129.833 294.667,124.167 294,118.5C 292.232,117.318 292.065,115.985 293.5,114.5 Z"/></g>
<g><path style="opacity:0.432" fill="#fdfdfd" d="M 327.5,114.5 C 330.607,114.351 333.607,114.851 336.5,116C 339.632,118.023 340.132,120.523 338,123.5C 334.066,116.842 329.4,116.176 324,121.5C 321.85,127.064 323.016,131.898 327.5,136C 330.377,136.725 333.043,136.225 335.5,134.5C 336.15,131.812 336.15,129.312 335.5,127C 342.944,125.712 344.444,128.212 340,134.5C 335.401,139.575 329.901,140.741 323.5,138C 318.913,133.772 317.413,128.606 319,122.5C 321.098,118.897 323.932,116.23 327.5,114.5 Z"/></g>
<g><path style="opacity:0.432" fill="#fdfdfd" d="M 360.5,114.5 C 366.717,119.208 372.55,124.541 378,130.5C 379.036,125.574 378.536,120.907 376.5,116.5C 376.887,115.28 377.72,114.613 379,114.5C 381.214,114.846 382.714,116.012 383.5,118C 382.232,125.182 381.066,132.349 380,139.5C 374.633,134.468 369.633,129.135 365,123.5C 364.086,128.196 364.586,132.696 366.5,137C 364.063,138.375 361.397,138.875 358.5,138.5C 360.094,130.592 360.761,122.592 360.5,114.5 Z"/></g>
<g><path style="opacity:0.356" fill="#fbfbfb" d="M 404.5,114.5 C 406.857,114.337 409.19,114.503 411.5,115C 413.968,116.588 414.134,118.422 412,120.5C 409.976,116.881 407.809,116.714 405.5,120C 407.628,123.13 410.128,125.963 413,128.5C 414.76,137.915 411.26,140.915 402.5,137.5C 401.046,135.333 401.212,133.333 403,131.5C 403.263,134.264 404.763,135.931 407.5,136.5C 408.833,135.833 409.833,134.833 410.5,133.5C 407.292,129.462 404.292,125.296 401.5,121C 402.03,118.557 403.03,116.39 404.5,114.5 Z"/></g>
<g><path style="opacity:0.651" fill="#4b4b49" d="M 166.5,119.5 C 168.167,120.833 169.833,120.833 171.5,119.5C 171.5,128.5 171.5,137.5 171.5,146.5C 169.414,148.023 167.748,147.69 166.5,145.5C 166.5,136.833 166.5,128.167 166.5,119.5 Z"/></g>
<g><path style="opacity:0.388" fill="#a6a7a6" d="M 7.5,111.5 C 9.16667,111.5 10.8333,111.5 12.5,111.5C 12.1043,114.044 12.771,116.211 14.5,118C 24.4944,118.5 34.4944,118.666 44.5,118.5C 44.5,127.5 44.5,136.5 44.5,145.5C 47.1667,145.5 49.8333,145.5 52.5,145.5C 52.2671,147.062 51.6005,148.395 50.5,149.5C 41.8333,149.5 33.1667,149.5 24.5,149.5C 20.9707,147.577 16.9707,146.911 12.5,147.5C 12.5,146.167 12.5,144.833 12.5,143.5C 13.9663,142.653 14.7996,141.32 15,139.5C 15.4935,141.134 15.6602,142.801 15.5,144.5C 17.1992,144.66 18.8659,144.494 20.5,144C 18.9963,142.509 18.1629,140.676 18,138.5C 17.8299,132.804 17.3299,127.138 16.5,121.5C 15.7022,123.078 15.2022,124.744 15,126.5C 14.8882,123.553 13.3882,122.22 10.5,122.5C 10.7678,120.901 10.4345,119.568 9.5,118.5C 10.3007,116.958 10.634,115.292 10.5,113.5C 9.5,113.5 8.5,113.5 7.5,113.5C 7.5,112.833 7.5,112.167 7.5,111.5 Z M 20.5,141.5 C 21.3864,140.224 22.3864,140.224 23.5,141.5C 22.5754,142.562 21.5754,142.562 20.5,141.5 Z M 19.5,121.5 C 27.1667,121.5 34.8333,121.5 42.5,121.5C 42.5,129.167 42.5,136.833 42.5,144.5C 36.8333,144.5 31.1667,144.5 25.5,144.5C 25.5,142.5 25.5,140.5 25.5,138.5C 23.5,138.5 21.5,138.5 19.5,138.5C 19.5,132.833 19.5,127.167 19.5,121.5 Z"/></g>
<g><path style="opacity:0.332" fill="#e2e2e2" d="M 120.5,143.5 C 121.103,145.19 122.103,146.69 123.5,148C 128.684,148.174 133.684,148.674 138.5,149.5C 128.504,150.739 118.504,150.739 108.5,149.5C 108.5,148.167 108.5,146.833 108.5,145.5C 112.971,146.089 116.971,145.423 120.5,143.5 Z"/></g>
<g><path style="opacity:0.918" fill="#c5c5c5" d="M 120.5,143.5 C 120.5,143.167 120.5,142.833 120.5,142.5C 123.315,142.892 125.815,143.892 128,145.5C 129.79,144.715 131.457,144.715 133,145.5C 134.667,142.833 136.333,142.833 138,145.5C 138.308,144.692 138.808,144.025 139.5,143.5C 141.67,144.993 143.004,146.993 143.5,149.5C 141.833,149.5 140.167,149.5 138.5,149.5C 133.684,148.674 128.684,148.174 123.5,148C 122.103,146.69 121.103,145.19 120.5,143.5 Z"/></g>
<g><path style="opacity:0.31" fill="#9ca2a2" d="M 80.5,145.5 C 89.8333,145.5 99.1667,145.5 108.5,145.5C 108.5,146.833 108.5,148.167 108.5,149.5C 99.1667,149.5 89.8333,149.5 80.5,149.5C 80.5,148.167 80.5,146.833 80.5,145.5 Z"/></g>
</svg>
