<?xml version="1.0" encoding="UTF-8"?>
<!DOCTYPE svg PUBLIC "-//W3C//DTD SVG 1.1//EN" "http://www.w3.org/Graphics/SVG/1.1/DTD/svg11.dtd">
<svg xmlns="http://www.w3.org/2000/svg" version="1.1" width="489px" height="154px" style="shape-rendering:geometricPrecision; text-rendering:geometricPrecision; image-rendering:optimizeQuality; fill-rule:evenodd; clip-rule:evenodd" xmlns:xlink="http://www.w3.org/1999/xlink">
<g><path style="opacity:0.004" fill="#fefffe" d="M 122.5,-0.5 C 122.833,-0.5 123.167,-0.5 123.5,-0.5C 123.315,0.170143 122.981,0.170143 122.5,-0.5 Z"/></g>
<g><path style="opacity:0.004" fill="#fefffe" d="M 5.5,0.5 C 6.83333,1.16667 6.83333,1.16667 5.5,0.5 Z"/></g>
<g><path style="opacity:0.004" fill="#fefffe" d="M 269.5,2.5 C 270.833,3.16667 270.833,3.16667 269.5,2.5 Z"/></g>
<g><path style="opacity:0.004" fill="#fefffe" d="M 86.5,4.5 C 87.8333,5.16667 87.8333,5.16667 86.5,4.5 Z"/></g>
<g><path style="opacity:0.004" fill="#fefffe" d="M 209.5,6.5 C 210.833,7.16667 210.833,7.16667 209.5,6.5 Z"/></g>
<g><path style="opacity:0.004" fill="#fefffe" d="M 326.5,6.5 C 327.833,7.16667 327.833,7.16667 326.5,6.5 Z"/></g>
<g><path style="opacity:0.004" fill="#fefffe" d="M 419.5,6.5 C 420.833,7.16667 420.833,7.16667 419.5,6.5 Z"/></g>
<g><path style="opacity:0.856" fill="#010101" d="M 226.5,9.5 C 228.136,10.7489 229.303,12.4156 230,14.5C 234.138,25.2469 238.471,35.9135 243,46.5C 247.083,40.6695 250.916,34.6695 254.5,28.5C 250.941,22.7146 247.941,16.7146 245.5,10.5C 248.518,10.3354 251.518,10.502 254.5,11C 256.041,13.9156 257.707,16.7489 259.5,19.5C 261.293,16.7489 262.959,13.9156 264.5,11C 267.482,10.502 270.482,10.3354 273.5,10.5C 271.059,16.7146 268.059,22.7146 264.5,28.5C 268.293,34.5841 271.959,40.7507 275.5,47C 272.167,47.6667 268.833,47.6667 265.5,47C 263.875,43.5801 261.875,40.4134 259.5,37.5C 257.125,40.4134 255.125,43.5801 253.5,47C 250.167,47.1667 246.833,47.3333 243.5,47.5C 237.645,47.38 232.145,46.38 227,44.5C 222.19,46.4533 217.024,47.4533 211.5,47.5C 216.106,34.6818 221.106,22.0152 226.5,9.5 Z M 226.5,29.5 C 227.864,31.22 228.864,33.22 229.5,35.5C 227.926,36.6309 226.259,36.7975 224.5,36C 225.669,33.9935 226.335,31.8268 226.5,29.5 Z"/></g>
<g><path style="opacity:0.867" fill="#010101" d="M 382.5,9.5 C 383.75,9.57735 384.583,10.244 385,11.5C 389.838,23.3503 394.671,35.1836 399.5,47C 396.183,47.4983 392.85,47.665 389.5,47.5C 389.5,46.5 389.5,45.5 389.5,44.5C 385.445,44.1758 381.445,44.5091 377.5,45.5C 377.291,46.086 376.957,46.586 376.5,47C 373.446,47.8214 370.446,47.6548 367.5,46.5C 372.703,34.2179 377.703,21.8846 382.5,9.5 Z M 382.5,30.5 C 384.539,31.911 385.539,33.911 385.5,36.5C 383.801,36.6602 382.134,36.4935 380.5,36C 381.861,34.4157 382.528,32.5824 382.5,30.5 Z"/></g>
<g><path style="opacity:0.869" fill="#010101" d="M 470.5,9.5 C 471.75,9.57735 472.583,10.244 473,11.5C 477.838,23.3503 482.671,35.1836 487.5,47C 484.183,47.4983 480.85,47.665 477.5,47.5C 477.5,46.5 477.5,45.5 477.5,44.5C 473.445,44.1758 469.445,44.5091 465.5,45.5C 465.291,46.086 464.957,46.586 464.5,47C 461.446,47.8214 458.446,47.6548 455.5,46.5C 460.703,34.2179 465.703,21.8846 470.5,9.5 Z M 470.5,30.5 C 472.539,31.911 473.539,33.911 473.5,36.5C 471.801,36.6602 470.134,36.4935 468.5,36C 469.861,34.4157 470.528,32.5824 470.5,30.5 Z"/></g>
<g><path style="opacity:0.869" fill="#000000" d="M 278.5,10.5 C 279.873,10.3433 281.207,10.51 282.5,11C 286.633,16.1344 291.133,20.9677 296,25.5C 300.133,20.3656 304.633,15.5323 309.5,11C 310.448,10.5172 311.448,10.3505 312.5,10.5C 312.5,22.8333 312.5,35.1667 312.5,47.5C 309.833,47.5 307.167,47.5 304.5,47.5C 304.666,41.4908 304.499,35.4908 304,29.5C 301.318,32.3497 298.484,35.0164 295.5,37.5C 292.777,35.0658 290.277,32.3991 288,29.5C 287.501,35.4908 287.334,41.4908 287.5,47.5C 284.5,47.5 281.5,47.5 278.5,47.5C 278.5,35.1667 278.5,22.8333 278.5,10.5 Z"/></g>
<g><path style="opacity:0.907" fill="#010101" d="M 189.5,11.5 C 192.167,11.5 194.833,11.5 197.5,11.5C 197.5,20.8333 197.5,30.1667 197.5,39.5C 201.167,39.5 204.833,39.5 208.5,39.5C 208.5,42.1667 208.5,44.8333 208.5,47.5C 202.167,47.5 195.833,47.5 189.5,47.5C 189.356,35.3438 189.356,23.3438 189.5,11.5 Z"/></g>
<g><path style="opacity:0.898" fill="#000000" d="M 319.5,11.5 C 322.167,11.5 324.833,11.5 327.5,11.5C 327.5,23.5 327.5,35.5 327.5,47.5C 324.833,47.5 322.167,47.5 319.5,47.5C 319.5,35.5 319.5,23.5 319.5,11.5 Z"/></g>
<g><path style="opacity:0.899" fill="#000000" d="M 335.5,11.5 C 341.176,11.3339 346.843,11.5006 352.5,12C 360.563,14.9377 364.563,20.771 364.5,29.5C 364.563,38.229 360.563,44.0623 352.5,47C 346.843,47.4994 341.176,47.6661 335.5,47.5C 335.5,35.5 335.5,23.5 335.5,11.5 Z M 343.5,19.5 C 350.948,18.729 355.281,22.0623 356.5,29.5C 355.281,36.9377 350.948,40.271 343.5,39.5C 343.5,32.8333 343.5,26.1667 343.5,19.5 Z"/></g>
<g><path style="opacity:0.911" fill="#010101" d="M 400.5,11.5 C 409.167,11.5 417.833,11.5 426.5,11.5C 426.5,14.1667 426.5,16.8333 426.5,19.5C 423.5,19.5 420.5,19.5 417.5,19.5C 417.5,28.8333 417.5,38.1667 417.5,47.5C 414.833,47.5 412.167,47.5 409.5,47.5C 409.5,38.1667 409.5,28.8333 409.5,19.5C 406.5,19.5 403.5,19.5 400.5,19.5C 400.5,16.8333 400.5,14.1667 400.5,11.5 Z"/></g>
<g><path style="opacity:0.845" fill="#000000" d="M 428.5,11.5 C 437.167,11.5 445.833,11.5 454.5,11.5C 454.768,14.1194 454.435,16.6194 453.5,19C 450.854,19.4974 448.187,19.6641 445.5,19.5C 445.5,28.8333 445.5,38.1667 445.5,47.5C 442.5,47.5 439.5,47.5 436.5,47.5C 436.654,38.059 436.654,28.7256 436.5,19.5C 433.833,19.5 431.167,19.5 428.5,19.5C 428.5,16.8333 428.5,14.1667 428.5,11.5 Z"/></g>
<g><path style="opacity:0.004" fill="#fefffe" d="M 398.5,19.5 C 399.833,20.1667 399.833,20.1667 398.5,19.5 Z"/></g>
<g><path style="opacity:0.513" fill="#2e2d2d" d="M 53.5,7.5 C 76.5,7.5 99.5,7.5 122.5,7.5C 122.196,8.14987 121.863,8.81654 121.5,9.5C 131.144,10.4984 140.81,10.8318 150.5,10.5C 150.5,9.5 150.5,8.5 150.5,7.5C 157.5,7.5 164.5,7.5 171.5,7.5C 171.5,12.1667 171.5,16.8333 171.5,21.5C 170.675,25.6472 170.175,29.9805 170,34.5C 169.667,26.8333 169.333,19.1667 169,11.5C 165.066,10.179 161.233,10.179 157.5,11.5C 140.833,11.5 124.167,11.5 107.5,11.5C 108.366,15.3993 108.366,19.3993 107.5,23.5C 103.5,23.5 99.5,23.5 95.5,23.5C 95.5,23.1667 95.5,22.8333 95.5,22.5C 98.5,22.5 101.5,22.5 104.5,22.5C 104.5,20.5 104.5,18.5 104.5,16.5C 103.5,16.5 102.5,16.5 101.5,16.5C 101.5,16.1667 101.5,15.8333 101.5,15.5C 102.5,15.5 103.5,15.5 104.5,15.5C 104.5,14.1667 104.5,12.8333 104.5,11.5C 103.5,11.5 102.5,11.5 101.5,11.5C 101.167,11.5 100.833,11.5 100.5,11.5C 92.2957,10.8061 83.9623,10.1394 75.5,9.5C 73.9745,9.99431 72.6412,10.661 71.5,11.5C 70.3427,20.3238 70.176,29.3238 71,38.5C 71.3333,37.5 71.6667,36.5 72,35.5C 72.2321,36.7375 72.7321,37.7375 73.5,38.5C 74.1667,38.5 74.5,38.8333 74.5,39.5C 74.3232,46.1344 73.8232,46.1344 73,39.5C 72.3333,46.1667 71.6667,46.1667 71,39.5C 70.5357,40.0944 70.369,40.7611 70.5,41.5C 69.7109,41.2172 69.0442,40.7172 68.5,40C 69.3003,35.7003 69.6337,31.2003 69.5,26.5C 68.9889,22.9982 68.3222,19.6649 67.5,16.5C 67.5,14.8333 67.5,13.1667 67.5,11.5C 62.8333,11.5 58.1667,11.5 53.5,11.5C 53.5,10.1667 53.5,8.83333 53.5,7.5 Z M 101.5,11.5 C 102.5,11.5 103.5,11.5 104.5,11.5C 104.5,12.8333 104.5,14.1667 104.5,15.5C 103.5,15.5 102.5,15.5 101.5,15.5C 101.5,14.1667 101.5,12.8333 101.5,11.5 Z M 96.5,12.5 C 96.56,11.9569 96.8933,11.6236 97.5,11.5C 98.6139,12.723 98.7805,14.0563 98,15.5C 97.7679,14.2625 97.2679,13.2625 96.5,12.5 Z M 94.5,11.5 C 96.0878,12.6353 96.4212,13.9686 95.5,15.5C 94.5713,14.3112 94.238,12.9778 94.5,11.5 Z M 86.5,11.5 C 86.5,13.5 86.5,15.5 86.5,17.5C 84.0837,15.2949 84.0837,13.2949 86.5,11.5 Z M 162.5,25.5 C 163.5,25.5 164.5,25.5 165.5,25.5C 165.975,28.0821 165.308,30.0821 163.5,31.5C 162.5,31.5 161.5,31.5 160.5,31.5C 160.025,28.9179 160.692,26.9179 162.5,25.5 Z"/></g>
<g><path style="opacity:0.557" fill="#6b6566" d="M 100.5,11.5 C 100.833,11.5 101.167,11.5 101.5,11.5C 101.5,12.8333 101.5,14.1667 101.5,15.5C 101.5,15.8333 101.5,16.1667 101.5,16.5C 101.318,21.7937 100.818,21.7937 100,16.5C 99.0642,21.6131 97.7309,21.6131 96,16.5C 95.5811,20.8518 94.9145,21.1851 94,17.5C 93.6667,18.5 93.3333,19.5 93,20.5C 93.0704,17.008 92.2371,14.008 90.5,11.5C 89.8333,11.5 89.1667,11.5 88.5,11.5C 88.1667,11.5 87.8333,11.5 87.5,11.5C 87.1667,11.5 86.8333,11.5 86.5,11.5C 84.0837,13.2949 84.0837,15.2949 86.5,17.5C 86.719,18.675 86.3857,19.675 85.5,20.5C 84.3756,15.2792 83.5423,15.2792 83,20.5C 80.6478,8.55486 79.6478,8.55486 80,20.5C 79.3333,13.8333 78.6667,13.8333 78,20.5C 77.3333,8.5 76.6667,8.5 76,20.5C 75.3333,13.8333 74.6667,13.8333 74,20.5C 74.1168,8.68245 73.4502,8.68245 72,20.5C 71.502,17.5184 71.3354,14.5184 71.5,11.5C 72.6412,10.661 73.9745,9.99431 75.5,9.5C 83.9623,10.1394 92.2957,10.8061 100.5,11.5 Z M 96.5,12.5 C 97.2679,13.2625 97.7679,14.2625 98,15.5C 98.7805,14.0563 98.6139,12.723 97.5,11.5C 96.8933,11.6236 96.56,11.9569 96.5,12.5 Z M 94.5,11.5 C 94.238,12.9778 94.5713,14.3112 95.5,15.5C 96.4212,13.9686 96.0878,12.6353 94.5,11.5 Z M 86.5,11.5 C 86.5,13.5 86.5,15.5 86.5,17.5C 84.0837,15.2949 84.0837,13.2949 86.5,11.5 Z"/></g>
<g><path style="opacity:0.192" fill="#968e8d" d="M 86.5,11.5 C 86.8333,11.5 87.1667,11.5 87.5,11.5C 87.8333,12.8333 88.1667,12.8333 88.5,11.5C 89.1667,11.5 89.8333,11.5 90.5,11.5C 91.3287,14.4686 91.4954,17.4686 91,20.5C 89.4253,11.3237 88.4253,11.3237 88,20.5C 87.7679,19.2625 87.2679,18.2625 86.5,17.5C 86.5,15.5 86.5,13.5 86.5,11.5 Z"/></g>
<g><path style="opacity:0.322" fill="#625f60" d="M 122.5,7.5 C 131.833,7.5 141.167,7.5 150.5,7.5C 150.5,8.5 150.5,9.5 150.5,10.5C 140.81,10.8318 131.144,10.4984 121.5,9.5C 121.863,8.81654 122.196,8.14987 122.5,7.5 Z"/></g>
<g><path style="opacity:0.004" fill="#fefffe" d="M 395.5,24.5 C 396.833,25.1667 396.833,25.1667 395.5,24.5 Z"/></g>
<g><path style="opacity:0.004" fill="#fefffe" d="M 449.5,25.5 C 450.833,26.1667 450.833,26.1667 449.5,25.5 Z"/></g>
<g><path style="opacity:0.31" fill="#8b888a" d="M 95.5,22.5 C 95.5,22.8333 95.5,23.1667 95.5,23.5C 95.6726,26.1795 96.6726,28.5128 98.5,30.5C 96.8678,30.7615 95.7012,29.7615 95,27.5C 94.2204,25.6131 94.3871,23.9464 95.5,22.5 Z"/></g>
<g><path style="opacity:0.004" fill="#fefffe" d="M 329.5,29.5 C 330.833,30.1667 330.833,30.1667 329.5,29.5 Z"/></g>
<g><path style="opacity:0.224" fill="#7d7c7c" d="M 19.5,7.5 C 21.1667,7.5 22.8333,7.5 24.5,7.5C 24.5,8.5 24.5,9.5 24.5,10.5C 33.5,10.5 42.5,10.5 51.5,10.5C 51.5,9.5 51.5,8.5 51.5,7.5C 52.1667,7.5 52.8333,7.5 53.5,7.5C 53.5,8.83333 53.5,10.1667 53.5,11.5C 50.5525,11.2229 47.7191,11.5562 45,12.5C 44.5002,21.1603 44.3336,29.8269 44.5,38.5C 33.8333,38.5 23.1667,38.5 12.5,38.5C 12.5,40.8333 12.5,43.1667 12.5,45.5C 11.5,45.5 10.5,45.5 9.5,45.5C 9.5,45.1667 9.5,44.8333 9.5,44.5C 11.256,43.4479 11.9227,41.7812 11.5,39.5C 10.1667,39.5 8.83333,39.5 7.5,39.5C 7.5,38.8333 7.5,38.1667 7.5,37.5C 9.55672,37.0433 9.55672,36.0433 7.5,34.5C 7.15684,32.5168 7.82351,31.1834 9.5,30.5C 9.5,32.1667 9.5,33.8333 9.5,35.5C 11.5,35.5 13.5,35.5 15.5,35.5C 15.6646,32.4816 15.498,29.4816 15,26.5C 14.6174,25.944 14.1174,25.6107 13.5,25.5C 13.5,25.1667 13.5,24.8333 13.5,24.5C 14.1174,24.3893 14.6174,24.056 15,23.5C 15.6667,20.5 15.6667,17.5 15,14.5C 14.3292,13.7476 13.4959,13.4142 12.5,13.5C 12.0825,12.7784 11.4158,12.2784 10.5,12C 11.056,11.6174 11.3893,11.1174 11.5,10.5C 15.5546,10.8242 19.5546,10.4909 23.5,9.5C 22.0508,8.82811 20.7175,8.16145 19.5,7.5 Z M 20.5,12.5 C 28.1667,12.5 35.8333,12.5 43.5,12.5C 43.5,20.8333 43.5,29.1667 43.5,37.5C 37.8333,37.5 32.1667,37.5 26.5,37.5C 26.5,35.1667 26.5,32.8333 26.5,30.5C 24.5,30.5 22.5,30.5 20.5,30.5C 20.5,24.5 20.5,18.5 20.5,12.5 Z M 15.5,13.5 C 16.209,12.596 17.209,12.2627 18.5,12.5C 18.3338,18.8421 18.5005,25.1754 19,31.5C 20.1217,33.6238 21.6217,35.4571 23.5,37C 20.8333,37.6667 18.1667,37.6667 15.5,37C 16.8333,33 16.8333,29 15.5,25C 17.5234,21.8169 18.0234,18.3169 17,14.5C 16.6174,13.944 16.1174,13.6107 15.5,13.5 Z M 21.5,32.5 C 22.209,31.596 23.209,31.2627 24.5,31.5C 24.6495,32.552 24.4828,33.552 24,34.5C 23.2917,33.6195 22.4584,32.9528 21.5,32.5 Z"/></g>
<g><path style="opacity:0.691" fill="#b8b8b8" d="M 24.5,7.5 C 33.5,7.5 42.5,7.5 51.5,7.5C 51.5,8.5 51.5,9.5 51.5,10.5C 42.5,10.5 33.5,10.5 24.5,10.5C 24.5,9.5 24.5,8.5 24.5,7.5 Z"/></g>
<g><path style="opacity:0.269" fill="#7a7777" d="M 162.5,24.5 C 162.5,24.8333 162.5,25.1667 162.5,25.5C 160.692,26.9179 160.025,28.9179 160.5,31.5C 161.5,31.5 162.5,31.5 163.5,31.5C 164.11,32.391 164.443,33.391 164.5,34.5C 162.833,34.5 161.167,34.5 159.5,34.5C 159.335,37.5184 159.502,40.5184 160,43.5C 160.383,44.056 160.883,44.3893 161.5,44.5C 161.5,44.8333 161.5,45.1667 161.5,45.5C 160.883,45.6107 160.383,45.944 160,46.5C 159.502,49.4816 159.335,52.4816 159.5,55.5C 160.833,55.5 162.167,55.5 163.5,55.5C 164.11,56.391 164.443,57.391 164.5,58.5C 163.167,58.5 161.833,58.5 160.5,58.5C 160.5,60.1667 160.5,61.8333 160.5,63.5C 161.5,63.5 162.5,63.5 163.5,63.5C 163.5,64.1667 163.5,64.8333 163.5,65.5C 162.167,65.5 160.833,65.5 159.5,65.5C 159.5,62.8333 159.5,60.1667 159.5,57.5C 152.5,57.5 145.5,57.5 138.5,57.5C 138.5,57.1667 138.5,56.8333 138.5,56.5C 143.5,56.5 148.5,56.5 153.5,56.5C 153.624,48.4754 153.291,40.8088 152.5,33.5C 152.5,33.1667 152.5,32.8333 152.5,32.5C 154.833,32.5 157.167,32.5 159.5,32.5C 159.5,29.8333 159.5,27.1667 159.5,24.5C 160.5,24.5 161.5,24.5 162.5,24.5 Z M 155.5,33.5 C 156.822,36.7681 157.489,40.4348 157.5,44.5C 157.167,48.1667 156.833,51.8333 156.5,55.5C 155.503,48.1968 155.169,40.8635 155.5,33.5 Z"/></g>
<g><path style="opacity:0.249" fill="#4a4748" d="M 11.5,10.5 C 11.3893,11.1174 11.056,11.6174 10.5,12C 11.4158,12.2784 12.0825,12.7784 12.5,13.5C 11.5041,13.4142 10.6708,13.7476 10,14.5C 9.33333,17.5 9.33333,20.5 10,23.5C 11.0113,24.3366 12.1779,24.67 13.5,24.5C 13.5,24.8333 13.5,25.1667 13.5,25.5C 10.0897,25.3838 8.75635,27.0504 9.5,30.5C 7.82351,31.1834 7.15684,32.5168 7.5,34.5C 7.5,35.5 7.5,36.5 7.5,37.5C 7.5,38.1667 7.5,38.8333 7.5,39.5C 7.07729,41.7812 7.74395,43.4479 9.5,44.5C 9.5,44.8333 9.5,45.1667 9.5,45.5C 8.5,45.5 7.5,45.5 6.5,45.5C 4.99101,38.9805 5.32434,32.6471 7.5,26.5C 7.43456,26.9382 7.60123,27.2716 8,27.5C 8.37424,26.5838 8.87424,25.7504 9.5,25C 8.16667,21 8.16667,17 9.5,13C 9.16667,12.8333 8.83333,12.6667 8.5,12.5C 7.52577,14.7427 7.19244,17.076 7.5,19.5C 5.98167,16.5916 5.64834,13.5916 6.5,10.5C 8.16667,10.5 9.83333,10.5 11.5,10.5 Z"/></g>
<g><path style="opacity:0.239" fill="#403d3e" d="M 162.5,25.5 C 162.5,25.1667 162.5,24.8333 162.5,24.5C 163.833,24.5 165.167,24.5 166.5,24.5C 166.194,27.3854 166.527,30.0521 167.5,32.5C 167.272,36.3905 167.606,40.2238 168.5,44C 167.516,48.0837 166.849,51.917 166.5,55.5C 165.167,55.8333 165.167,56.1667 166.5,56.5C 167.167,56.5 167.5,56.8333 167.5,57.5C 166.527,59.9479 166.194,62.6146 166.5,65.5C 165.5,65.5 164.5,65.5 163.5,65.5C 163.5,64.8333 163.5,64.1667 163.5,63.5C 164.649,63.2089 165.316,62.3756 165.5,61C 165.472,59.9302 165.139,59.0968 164.5,58.5C 164.443,57.391 164.11,56.391 163.5,55.5C 164.117,55.3893 164.617,55.056 165,54.5C 165.667,51.8333 165.667,49.1667 165,46.5C 163.989,45.6634 162.822,45.33 161.5,45.5C 161.5,45.1667 161.5,44.8333 161.5,44.5C 162.822,44.67 163.989,44.3366 165,43.5C 165.736,40.408 165.569,37.408 164.5,34.5C 164.443,33.391 164.11,32.391 163.5,31.5C 165.308,30.0821 165.975,28.0821 165.5,25.5C 164.5,25.5 163.5,25.5 162.5,25.5 Z"/></g>
<g><path style="opacity:0.004" fill="#fefffe" d="M 431.5,38.5 C 432.833,39.1667 432.833,39.1667 431.5,38.5 Z"/></g>
<g><path style="opacity:0.3" fill="#505050" d="M 152.5,32.5 C 152.5,32.8333 152.5,33.1667 152.5,33.5C 147.57,33.1975 142.737,33.5308 138,34.5C 137.178,42.0118 137.345,49.3451 138.5,56.5C 138.5,56.8333 138.5,57.1667 138.5,57.5C 137.504,57.5858 136.671,57.2524 136,56.5C 135.333,48.8333 135.333,41.1667 136,33.5C 141.407,32.5268 146.907,32.1934 152.5,32.5 Z"/></g>
<g><path style="opacity:0.004" fill="#fefffe" d="M -0.5,40.5 C 0.833333,41.1667 0.833333,41.1667 -0.5,40.5 Z"/></g>
<g><path style="opacity:0.879" fill="#222021" d="M 157.5,11.5 C 161.233,10.179 165.066,10.179 169,11.5C 169.333,19.1667 169.667,26.8333 170,34.5C 170.175,29.9805 170.675,25.6472 171.5,21.5C 171.5,44.8333 171.5,68.1667 171.5,91.5C 170.167,91.5 168.833,91.5 167.5,91.5C 167.66,89.8008 167.494,88.1341 167,86.5C 166.617,87.056 166.117,87.3893 165.5,87.5C 165.167,87.5 164.833,87.5 164.5,87.5C 165.494,85.1457 164.494,84.1457 161.5,84.5C 161.167,88.5 160.833,88.5 160.5,84.5C 159.5,84.5 158.5,84.5 157.5,84.5C 157.167,88.5 156.833,88.5 156.5,84.5C 154.167,85.8333 151.833,85.8333 149.5,84.5C 149.5,85.8333 149.5,87.1667 149.5,88.5C 148.833,88.5 148.5,88.1667 148.5,87.5C 148.5,86.5 148.5,85.5 148.5,84.5C 147.209,84.2627 146.209,84.596 145.5,85.5C 144.494,86.3957 144.494,87.0623 145.5,87.5C 144.766,88.7079 144.433,90.0413 144.5,91.5C 143.833,89.8333 143.167,88.1667 142.5,86.5C 142.631,85.7611 142.464,85.0944 142,84.5C 140.701,84.9662 139.201,84.9662 137.5,84.5C 137.167,89.8333 136.833,89.8333 136.5,84.5C 132.833,84.5 129.167,84.5 125.5,84.5C 125.404,88.3107 124.738,88.3107 123.5,84.5C 122.893,84.6236 122.56,84.9569 122.5,85.5C 121.833,85.5 121.167,85.5 120.5,85.5C 119.377,84.2426 118.711,84.5759 118.5,86.5C 118.167,86.5 117.833,86.5 117.5,86.5C 116.5,83.8333 115.5,83.8333 114.5,86.5C 114.167,86.5 113.833,86.5 113.5,86.5C 113.631,85.6236 113.298,84.9569 112.5,84.5C 111.614,85.325 111.281,86.325 111.5,87.5C 111.5,87.8333 111.5,88.1667 111.5,88.5C 110.833,90.1667 110.167,91.8333 109.5,93.5C 109.785,91.712 109.452,90.0453 108.5,88.5C 107.194,91.9798 107.194,95.3132 108.5,98.5C 108.5,98.8333 108.5,99.1667 108.5,99.5C 107.662,99.8417 107.328,100.508 107.5,101.5C 107.5,101.833 107.5,102.167 107.5,102.5C 107.194,105.385 107.527,108.052 108.5,110.5C 108.833,111.167 109.167,111.833 109.5,112.5C 107.833,112.5 106.167,112.5 104.5,112.5C 104.5,99.8333 104.5,87.1667 104.5,74.5C 108.167,74.5 111.833,74.5 115.5,74.5C 115.518,70.8707 114.184,67.8707 111.5,65.5C 113.017,65.5106 114.184,66.1772 115,67.5C 115.986,69.7778 116.82,72.1111 117.5,74.5C 114.232,75.487 110.898,75.8204 107.5,75.5C 107.5,77.8333 107.5,80.1667 107.5,82.5C 127.64,81.9461 147.64,81.9461 167.5,82.5C 167.5,74.1667 167.5,65.8333 167.5,57.5C 167.5,56.8333 167.167,56.5 166.5,56.5C 166.5,56.1667 166.5,55.8333 166.5,55.5C 166.849,51.917 167.516,48.0837 168.5,44C 167.606,40.2238 167.272,36.3905 167.5,32.5C 167.5,25.5 167.5,18.5 167.5,11.5C 164.167,11.5 160.833,11.5 157.5,11.5 Z M 108.5,84.5 C 111.125,85.4657 111.125,86.4657 108.5,87.5C 107.438,86.5754 107.438,85.5754 108.5,84.5 Z M 113.5,86.5 C 113.158,87.3382 112.492,87.6716 111.5,87.5C 111.281,86.325 111.614,85.325 112.5,84.5C 113.298,84.9569 113.631,85.6236 113.5,86.5 Z M 117.5,86.5 C 116.5,87.8333 115.5,87.8333 114.5,86.5C 115.5,83.8333 116.5,83.8333 117.5,86.5 Z M 120.5,85.5 C 120.289,87.4241 119.623,87.7574 118.5,86.5C 118.711,84.5759 119.377,84.2426 120.5,85.5 Z M 145.5,85.5 C 146.209,84.596 147.209,84.2627 148.5,84.5C 148.5,85.5 148.5,86.5 148.5,87.5C 147.5,86.8333 146.5,86.1667 145.5,85.5 Z"/></g>
<g><path style="opacity:0.888" fill="#1a1a1a" d="M 67.5,16.5 C 68.3222,19.6649 68.9889,22.9982 69.5,26.5C 69.6337,31.2003 69.3003,35.7003 68.5,40C 69.0442,40.7172 69.7109,41.2172 70.5,41.5C 70.5,42.8333 70.5,44.1667 70.5,45.5C 81.8333,45.5 93.1667,45.5 104.5,45.5C 104.975,42.9179 104.308,40.9179 102.5,39.5C 102.5,39.1667 102.5,38.8333 102.5,38.5C 104.71,37.5449 105.043,36.0449 103.5,34C 104.784,33.3162 105.951,33.4829 107,34.5C 107.5,44.1609 107.666,53.8276 107.5,63.5C 109.38,63.2291 110.713,63.8958 111.5,65.5C 109.236,64.7814 106.903,64.448 104.5,64.5C 104.5,58.8333 104.5,53.1667 104.5,47.5C 93.1667,47.5 81.8333,47.5 70.5,47.5C 70.5,53.8333 70.5,60.1667 70.5,66.5C 68.5,66.5 66.5,66.5 64.5,66.5C 64.3345,62.4862 64.5012,58.4862 65,54.5C 65.1764,57.8818 65.6764,61.2152 66.5,64.5C 67.4994,48.5139 67.8328,32.5139 67.5,16.5 Z M 74.5,39.5 C 75.3019,40.9516 75.8019,42.6183 76,44.5C 76.6667,37.8333 77.3333,37.8333 78,44.5C 78.6667,37.8333 79.3333,37.8333 80,44.5C 80.4474,38.0108 81.4474,38.0108 83,44.5C 83.49,43.2068 83.6567,41.8734 83.5,40.5C 84.1614,41.7175 84.8281,43.0508 85.5,44.5C 86.5976,40.6395 87.4309,40.6395 88,44.5C 89,37.8333 90,37.8333 91,44.5C 91.6667,37.8333 92.3333,37.8333 93,44.5C 93.6667,40.5 94.3333,40.5 95,44.5C 95.1792,42.5758 95.3459,40.9091 95.5,39.5C 97.6207,45.8516 99.1207,45.8516 100,39.5C 100.333,41.1667 100.667,42.8333 101,44.5C 101.198,42.6183 101.698,40.9516 102.5,39.5C 104.308,40.9179 104.975,42.9179 104.5,45.5C 93.1667,45.5 81.8333,45.5 70.5,45.5C 70.5,44.1667 70.5,42.8333 70.5,41.5C 70.369,40.7611 70.5357,40.0944 71,39.5C 71.6667,46.1667 72.3333,46.1667 73,39.5C 73.8232,46.1344 74.3232,46.1344 74.5,39.5 Z"/></g>
<g><path style="opacity:0.278" fill="#7d7875" d="M 102.5,38.5 C 102.5,38.8333 102.5,39.1667 102.5,39.5C 101.698,40.9516 101.198,42.6183 101,44.5C 100.667,42.8333 100.333,41.1667 100,39.5C 99.1207,45.8516 97.6207,45.8516 95.5,39.5C 95.3459,40.9091 95.1792,42.5758 95,44.5C 94.3333,40.5 93.6667,40.5 93,44.5C 92.3333,37.8333 91.6667,37.8333 91,44.5C 90,37.8333 89,37.8333 88,44.5C 87.4309,40.6395 86.5976,40.6395 85.5,44.5C 84.8281,43.0508 84.1614,41.7175 83.5,40.5C 83.6567,41.8734 83.49,43.2068 83,44.5C 81.4474,38.0108 80.4474,38.0108 80,44.5C 79.3333,37.8333 78.6667,37.8333 78,44.5C 77.3333,37.8333 76.6667,37.8333 76,44.5C 75.8019,42.6183 75.3019,40.9516 74.5,39.5C 74.5,38.8333 74.1667,38.5 73.5,38.5C 74.8101,34.6672 75.9767,34.6672 77,38.5C 77.9991,34.7628 79.3325,34.7628 81,38.5C 81.6667,34.5 82.3333,34.5 83,38.5C 83.5691,34.6395 84.4024,34.6395 85.5,38.5C 86.2508,37.624 86.7508,36.624 87,35.5C 87.7412,36.6405 88.5745,36.6405 89.5,35.5C 90.8333,39.5 92.1667,39.5 93.5,35.5C 94.1667,36.5 94.8333,37.5 95.5,38.5C 96.5407,36.0087 97.3741,36.0087 98,38.5C 98.6667,34.5 99.3333,34.5 100,38.5C 100.333,37.5 100.667,36.5 101,35.5C 101.232,36.7375 101.732,37.7375 102.5,38.5 Z"/></g>
<g><path style="opacity:0.004" fill="#fefffe" d="M 236.5,57.5 C 237.833,58.1667 237.833,58.1667 236.5,57.5 Z"/></g>
<g><path style="opacity:0.851" fill="#010101" d="M 215.5,71.5 C 218.094,75.272 220.927,78.9387 224,82.5C 224.499,76.5092 224.666,70.5092 224.5,64.5C 227.5,64.5 230.5,64.5 233.5,64.5C 233.5,76.8333 233.5,89.1667 233.5,101.5C 232.127,101.657 230.793,101.49 229.5,101C 224,94.8333 218.5,88.6667 213,82.5C 212.501,88.4908 212.334,94.4908 212.5,100.5C 209.833,100.5 207.167,100.5 204.5,100.5C 204.5,88.1667 204.5,75.8333 204.5,63.5C 205.873,63.3433 207.207,63.51 208.5,64C 210.333,66.9985 212.666,69.4985 215.5,71.5 Z"/></g>
<g><path style="opacity:0.867" fill="#010101" d="M 351.5,63.5 C 372.385,63.5615 379.551,73.5615 373,93.5C 363.283,103.304 352.949,103.971 342,95.5C 335.562,85.3118 336.396,75.8118 344.5,67C 346.925,65.7874 349.259,64.6207 351.5,63.5 Z M 355.5,71.5 C 362.687,71.687 366.687,75.3536 367.5,82.5C 366.691,88.8123 363.191,92.479 357,93.5C 347.965,91.098 344.965,85.4313 348,76.5C 350.17,74.1769 352.67,72.5103 355.5,71.5 Z"/></g>
<g><path style="opacity:0.899" fill="#010101" d="M 189.5,64.5 C 192.167,64.5 194.833,64.5 197.5,64.5C 197.5,76.5 197.5,88.5 197.5,100.5C 194.833,100.5 192.167,100.5 189.5,100.5C 189.5,88.5 189.5,76.5 189.5,64.5 Z"/></g>
<g><path style="opacity:0.838" fill="#000000" d="M 237.5,64.5 C 246.167,64.5 254.833,64.5 263.5,64.5C 263.768,67.1194 263.435,69.6194 262.5,72C 259.854,72.4974 257.187,72.6641 254.5,72.5C 254.5,81.8333 254.5,91.1667 254.5,100.5C 251.5,100.5 248.5,100.5 245.5,100.5C 245.5,91.1667 245.5,81.8333 245.5,72.5C 242.833,72.5 240.167,72.5 237.5,72.5C 237.5,69.8333 237.5,67.1667 237.5,64.5 Z"/></g>
<g><path style="opacity:0.891" fill="#020202" d="M 267.5,64.5 C 273.833,64.5 280.167,64.5 286.5,64.5C 286.5,67.1667 286.5,69.8333 286.5,72.5C 282.833,72.5 279.167,72.5 275.5,72.5C 275.5,74.5 275.5,76.5 275.5,78.5C 278.833,78.5 282.167,78.5 285.5,78.5C 285.5,81.1667 285.5,83.8333 285.5,86.5C 282.167,86.5 278.833,86.5 275.5,86.5C 275.5,88.5 275.5,90.5 275.5,92.5C 279.5,92.5 283.5,92.5 287.5,92.5C 287.5,95.1667 287.5,97.8333 287.5,100.5C 280.833,100.5 274.167,100.5 267.5,100.5C 267.476,88.5068 267.476,76.5068 267.5,64.5 Z"/></g>
<g><path style="opacity:0.905" fill="#010101" d="M 293.5,64.5 C 299.842,64.3338 306.175,64.5005 312.5,65C 315,66.1667 316.833,68 318,70.5C 319.978,77.2595 318.144,82.5928 312.5,86.5C 315.088,90.674 317.421,95.0074 319.5,99.5C 316.5,100.833 313.5,100.833 310.5,99.5C 308.246,95.9934 306.246,92.3267 304.5,88.5C 303.675,87.6143 302.675,87.281 301.5,87.5C 301.5,91.8333 301.5,96.1667 301.5,100.5C 298.833,100.5 296.167,100.5 293.5,100.5C 293.5,88.5 293.5,76.5 293.5,64.5 Z M 301.5,72.5 C 303.857,72.3367 306.19,72.5034 308.5,73C 311.033,75.321 310.699,77.321 307.5,79C 305.527,79.4955 303.527,79.6621 301.5,79.5C 301.5,77.1667 301.5,74.8333 301.5,72.5 Z"/></g>
<g><path style="opacity:0.896" fill="#000000" d="M 323.5,64.5 C 326.167,64.5 328.833,64.5 331.5,64.5C 331.5,76.5 331.5,88.5 331.5,100.5C 328.833,100.5 326.167,100.5 323.5,100.5C 323.5,88.5 323.5,76.5 323.5,64.5 Z"/></g>
<g><path style="opacity:0.885" fill="#000000" d="M 381.5,64.5 C 388.175,64.3337 394.842,64.5004 401.5,65C 407.99,70.0369 409.156,76.2036 405,83.5C 403.581,84.4601 402.081,85.2935 400.5,86C 403.293,90.4175 405.959,94.9175 408.5,99.5C 405.554,100.655 402.554,100.821 399.5,100C 397.46,96.0856 395.293,92.2522 393,88.5C 391.989,87.6634 390.822,87.33 389.5,87.5C 389.5,91.8333 389.5,96.1667 389.5,100.5C 386.833,100.5 384.167,100.5 381.5,100.5C 381.5,88.5 381.5,76.5 381.5,64.5 Z M 389.5,72.5 C 392.187,72.3359 394.854,72.5026 397.5,73C 399.032,75.33 398.698,77.33 396.5,79C 394.19,79.4966 391.857,79.6633 389.5,79.5C 389.5,77.1667 389.5,74.8333 389.5,72.5 Z"/></g>
<g><path style="opacity:0.961" fill="#272627" d="M 19.5,7.5 C 20.7175,8.16145 22.0508,8.82811 23.5,9.5C 19.5546,10.4909 15.5546,10.8242 11.5,10.5C 9.83333,10.5 8.16667,10.5 6.5,10.5C 5.64834,13.5916 5.98167,16.5916 7.5,19.5C 7.5,21.8333 7.5,24.1667 7.5,26.5C 5.32434,32.6471 4.99101,38.9805 6.5,45.5C 6.5,48.5 6.5,51.5 6.5,54.5C 6.5,54.8333 6.5,55.1667 6.5,55.5C 6.26269,56.791 6.59603,57.791 7.5,58.5C 7.5,58.8333 7.5,59.1667 7.5,59.5C 6.54885,60.9187 6.21552,62.5853 6.5,64.5C 18.5,64.5 30.5,64.5 42.5,64.5C 42.5,62.8333 42.5,61.1667 42.5,59.5C 41.1667,59.5 39.8333,59.5 38.5,59.5C 38.5,59.1667 38.5,58.8333 38.5,58.5C 39.8333,58.5 41.1667,58.5 42.5,58.5C 42.5,57.5 42.5,56.5 42.5,55.5C 41.5,55.5 40.5,55.5 39.5,55.5C 39.5,55.1667 39.5,54.8333 39.5,54.5C 41.46,53.8617 43.2933,53.8617 45,54.5C 45.4983,57.8168 45.665,61.1501 45.5,64.5C 48.1667,64.5 50.8333,64.5 53.5,64.5C 53.4914,62.6916 53.9914,61.0249 55,59.5C 55.0178,61.7972 54.8511,64.1305 54.5,66.5C 52.1667,66.5 49.8333,66.5 47.5,66.5C 47.5,70.8333 47.5,75.1667 47.5,79.5C 46.1667,79.5 44.8333,79.5 43.5,79.5C 45.1788,76.9879 44.8454,74.9879 42.5,73.5C 42.5,73.1667 42.5,72.8333 42.5,72.5C 44.3079,71.0821 44.9746,69.0821 44.5,66.5C 43.209,66.2627 42.209,66.596 41.5,67.5C 40.5178,66.8592 39.5178,66.1925 38.5,65.5C 37.8933,65.6236 37.56,65.9569 37.5,66.5C 36.209,66.2627 35.209,66.596 34.5,67.5C 34.1667,67.5 33.8333,67.5 33.5,67.5C 32.8333,66.1667 32.1667,66.1667 31.5,67.5C 30.8333,67.5 30.1667,67.5 29.5,67.5C 27.8333,66.1667 26.1667,66.1667 24.5,67.5C 23.8333,67.5 23.1667,67.5 22.5,67.5C 21.5,66.1667 20.5,66.1667 19.5,67.5C 19.1667,67.5 18.8333,67.5 18.5,67.5C 17.5,66.1667 16.5,66.1667 15.5,67.5C 15.1667,67.5 14.8333,67.5 14.5,67.5C 13.791,66.596 12.791,66.2627 11.5,66.5C 11.5,67.5 11.5,68.5 11.5,69.5C 11.1667,69.5 10.8333,69.5 10.5,69.5C 10.5,68.5 10.5,67.5 10.5,66.5C 9.5,66.5 8.5,66.5 7.5,66.5C 7.37133,68.2161 7.038,69.8828 6.5,71.5C 5.16667,72.1667 3.83333,72.8333 2.5,73.5C 2.5,51.8333 2.5,30.1667 2.5,8.5C 8.12094,7.64631 13.7876,7.31298 19.5,7.5 Z M 41.5,67.5 C 42.209,66.596 43.209,66.2627 44.5,66.5C 44.9746,69.0821 44.3079,71.0821 42.5,72.5C 42.7845,70.5853 42.4511,68.9187 41.5,67.5 Z M 37.5,66.5 C 35.5773,68.2883 34.9107,70.2883 35.5,72.5C 34.5481,70.9547 34.2148,69.288 34.5,67.5C 35.209,66.596 36.209,66.2627 37.5,66.5 Z M 33.5,67.5 C 33.5,69.1667 33.5,70.8333 33.5,72.5C 32.5,72.5 31.5,72.5 30.5,72.5C 30.366,70.7085 30.6993,69.0418 31.5,67.5C 32.1667,66.1667 32.8333,66.1667 33.5,67.5 Z M 29.5,67.5 C 27.8333,68.8333 26.1667,68.8333 24.5,67.5C 26.1667,66.1667 27.8333,66.1667 29.5,67.5 Z M 22.5,67.5 C 22.5,68.1667 22.5,68.8333 22.5,69.5C 22.5,70.5 22.5,71.5 22.5,72.5C 21.5,72.5 20.5,72.5 19.5,72.5C 19.5,70.8333 19.5,69.1667 19.5,67.5C 20.5,66.1667 21.5,66.1667 22.5,67.5 Z M 18.5,67.5 C 18.5,69.1667 18.5,70.8333 18.5,72.5C 17.5,72.5 16.5,72.5 15.5,72.5C 15.5,70.8333 15.5,69.1667 15.5,67.5C 16.5,66.1667 17.5,66.1667 18.5,67.5 Z M 14.5,67.5 C 14.5,69.1667 14.5,70.8333 14.5,72.5C 13.5,72.5 12.5,72.5 11.5,72.5C 11.5,71.5 11.5,70.5 11.5,69.5C 11.5,68.5 11.5,67.5 11.5,66.5C 12.791,66.2627 13.791,66.596 14.5,67.5 Z M 10.5,69.5 C 10.5,70.5 10.5,71.5 10.5,72.5C 8.90097,72.7678 7.56764,72.4345 6.5,71.5C 7.038,69.8828 7.37133,68.2161 7.5,66.5C 8.5,66.5 9.5,66.5 10.5,66.5C 10.5,67.5 10.5,68.5 10.5,69.5 Z M 7.5,59.5 C 8.94316,60.3351 9.94316,61.6684 10.5,63.5C 11.5836,62.3349 12.4169,61.0016 13,59.5C 14,64.8333 15,64.8333 16,59.5C 16.5423,64.7208 17.3756,64.7208 18.5,59.5C 19.6244,64.7208 20.4577,64.7208 21,59.5C 21.6667,64.8333 22.3333,64.8333 23,59.5C 23.9358,64.6131 25.2691,64.6131 27,59.5C 27.687,62.4256 29.5203,63.7589 32.5,63.5C 33.0325,58.203 33.8658,58.203 35,63.5C 35.6259,61.0087 36.4593,61.0087 37.5,63.5C 38.4287,62.3112 38.762,60.9778 38.5,59.5C 39.8333,59.5 41.1667,59.5 42.5,59.5C 42.5,61.1667 42.5,62.8333 42.5,64.5C 30.5,64.5 18.5,64.5 6.5,64.5C 6.21552,62.5853 6.54885,60.9187 7.5,59.5 Z M 39.5,55.5 C 40.5,55.5 41.5,55.5 42.5,55.5C 42.5,56.5 42.5,57.5 42.5,58.5C 41.1667,58.5 39.8333,58.5 38.5,58.5C 38.2627,57.209 38.596,56.209 39.5,55.5 Z M 6.5,55.5 C 7.5,55.5 8.5,55.5 9.5,55.5C 9.71481,57.1788 9.04814,58.1788 7.5,58.5C 6.59603,57.791 6.26269,56.791 6.5,55.5 Z M 34.5,55.5 C 36.4646,55.9483 36.7979,56.9483 35.5,58.5C 34.6143,57.675 34.281,56.675 34.5,55.5 Z M 31.5,56.5 C 31.56,55.9569 31.8933,55.6236 32.5,55.5C 33.5827,56.365 33.7494,57.365 33,58.5C 32.7216,57.5842 32.2216,56.9175 31.5,56.5 Z M 27.5,56.5 C 27.56,55.9569 27.8933,55.6236 28.5,55.5C 29.5827,56.365 29.7494,57.365 29,58.5C 28.7216,57.5842 28.2216,56.9175 27.5,56.5 Z M 24.5,57.5 C 22.4599,58.4751 22.1266,57.8084 23.5,55.5C 24.2975,55.9569 24.6309,56.6236 24.5,57.5 Z M 19.5,55.5 C 21.4646,55.9483 21.7979,56.9483 20.5,58.5C 19.6143,57.675 19.281,56.675 19.5,55.5 Z M 16.5,56.5 C 16.56,55.9569 16.8933,55.6236 17.5,55.5C 18.5827,56.365 18.7494,57.365 18,58.5C 17.7216,57.5842 17.2216,56.9175 16.5,56.5 Z M 37.5,68.5 C 38.9755,69.262 40.3088,69.5953 41.5,69.5C 40.6798,71.1112 39.3464,71.7778 37.5,71.5C 37.5,70.5 37.5,69.5 37.5,68.5 Z"/></g>
<g><path style="opacity:0.29" fill="#534d4d" d="M 6.5,55.5 C 6.5,55.1667 6.5,54.8333 6.5,54.5C 17.5,54.5 28.5,54.5 39.5,54.5C 39.5,54.8333 39.5,55.1667 39.5,55.5C 38.596,56.209 38.2627,57.209 38.5,58.5C 38.5,58.8333 38.5,59.1667 38.5,59.5C 38.762,60.9778 38.4287,62.3112 37.5,63.5C 36.4593,61.0087 35.6259,61.0087 35,63.5C 33.8658,58.203 33.0325,58.203 32.5,63.5C 29.5203,63.7589 27.687,62.4256 27,59.5C 25.2691,64.6131 23.9358,64.6131 23,59.5C 22.3333,64.8333 21.6667,64.8333 21,59.5C 20.4577,64.7208 19.6244,64.7208 18.5,59.5C 17.3756,64.7208 16.5423,64.7208 16,59.5C 15,64.8333 14,64.8333 13,59.5C 12.4169,61.0016 11.5836,62.3349 10.5,63.5C 9.94316,61.6684 8.94316,60.3351 7.5,59.5C 7.5,59.1667 7.5,58.8333 7.5,58.5C 9.04814,58.1788 9.71481,57.1788 9.5,55.5C 8.5,55.5 7.5,55.5 6.5,55.5 Z M 34.5,55.5 C 34.281,56.675 34.6143,57.675 35.5,58.5C 36.7979,56.9483 36.4646,55.9483 34.5,55.5 Z M 31.5,56.5 C 32.2216,56.9175 32.7216,57.5842 33,58.5C 33.7494,57.365 33.5827,56.365 32.5,55.5C 31.8933,55.6236 31.56,55.9569 31.5,56.5 Z M 27.5,56.5 C 28.2216,56.9175 28.7216,57.5842 29,58.5C 29.7494,57.365 29.5827,56.365 28.5,55.5C 27.8933,55.6236 27.56,55.9569 27.5,56.5 Z M 24.5,57.5 C 24.6309,56.6236 24.2975,55.9569 23.5,55.5C 22.1266,57.8084 22.4599,58.4751 24.5,57.5 Z M 19.5,55.5 C 19.281,56.675 19.6143,57.675 20.5,58.5C 21.7979,56.9483 21.4646,55.9483 19.5,55.5 Z M 16.5,56.5 C 17.2216,56.9175 17.7216,57.5842 18,58.5C 18.7494,57.365 18.5827,56.365 17.5,55.5C 16.8933,55.6236 16.56,55.9569 16.5,56.5 Z"/></g>
<g><path style="opacity:0.004" fill="#fefffe" d="M 215.5,70.5 C 216.833,71.1667 216.833,71.1667 215.5,70.5 Z"/></g>
<g><path style="opacity:0.043" fill="#7a7778" d="M 14.5,67.5 C 14.8333,67.5 15.1667,67.5 15.5,67.5C 15.5,69.1667 15.5,70.8333 15.5,72.5C 16.5,72.5 17.5,72.5 18.5,72.5C 18.5,70.8333 18.5,69.1667 18.5,67.5C 18.8333,67.5 19.1667,67.5 19.5,67.5C 19.5,69.1667 19.5,70.8333 19.5,72.5C 20.5,72.5 21.5,72.5 22.5,72.5C 22.5,71.5 22.5,70.5 22.5,69.5C 22.8333,69.5 23.1667,69.5 23.5,69.5C 23.5,70.5 23.5,71.5 23.5,72.5C 23.5,72.8333 23.5,73.1667 23.5,73.5C 23.1667,78.8333 22.8333,78.8333 22.5,73.5C 21.5,73.5 20.5,73.5 19.5,73.5C 18.9635,76.6646 19.7969,79.3312 22,81.5C 22.1515,84.1193 22.9848,86.4527 24.5,88.5C 25.1924,87.9747 25.6924,87.3081 26,86.5C 28.1777,89.4685 29.3444,89.1351 29.5,85.5C 28.448,85.6495 27.448,85.4828 26.5,85C 29.095,84.7744 31.595,84.2744 34,83.5C 34.414,83.9574 34.914,84.2907 35.5,84.5C 36.8064,83.0878 37.6397,81.4211 38,79.5C 38.2784,80.4158 38.7784,81.0825 39.5,81.5C 39.1961,82.1499 38.8627,82.8165 38.5,83.5C 40.6533,84.0076 41.9866,84.6743 42.5,85.5C 42.1667,85.5 41.8333,85.5 41.5,85.5C 40.209,85.2627 39.209,85.596 38.5,86.5C 38.1667,86.5 37.8333,86.5 37.5,86.5C 37.5654,86.0618 37.3988,85.7284 37,85.5C 36.6258,86.4162 36.1258,87.2496 35.5,88C 35.7284,88.3988 36.0618,88.5654 36.5,88.5C 35.791,89.404 34.791,89.7373 33.5,89.5C 31.6693,90.0522 30.0026,90.0522 28.5,89.5C 27.4777,89.8555 26.811,90.5222 26.5,91.5C 26.1667,91.5 25.8333,91.5 25.5,91.5C 24.8333,88.8333 24.1667,88.8333 23.5,91.5C 22.609,90.8902 21.609,90.5569 20.5,90.5C 20.1667,90.5 19.8333,90.5 19.5,90.5C 19.1667,90.5 18.8333,90.5 18.5,90.5C 17.5,90.5 16.5,90.5 15.5,90.5C 15.1667,90.5 14.8333,90.5 14.5,90.5C 13.5,90.5 12.5,90.5 11.5,90.5C 11.1667,90.5 10.8333,90.5 10.5,90.5C 10.5,89.8333 10.1667,89.5 9.5,89.5C 9.5,89.1667 9.5,88.8333 9.5,88.5C 9.93822,88.5654 10.2716,88.3988 10.5,88C 9.87424,87.2496 9.37424,86.4162 9,85.5C 8.23029,86.5981 7.39695,86.5981 6.5,85.5C 6.5,85.1667 6.5,84.8333 6.5,84.5C 7.3124,76.5241 7.3124,76.1907 6.5,83.5C 5.04125,83.5674 3.70792,83.2341 2.5,82.5C 2.5,79.5 2.5,76.5 2.5,73.5C 3.83333,72.8333 5.16667,72.1667 6.5,71.5C 7.56764,72.4345 8.90097,72.7678 10.5,72.5C 10.5,71.5 10.5,70.5 10.5,69.5C 10.8333,69.5 11.1667,69.5 11.5,69.5C 11.5,70.5 11.5,71.5 11.5,72.5C 12.5,72.5 13.5,72.5 14.5,72.5C 14.5,70.8333 14.5,69.1667 14.5,67.5 Z M 15.5,73.5 C 16.5,73.5 17.5,73.5 18.5,73.5C 18.3536,78.4211 17.3536,78.4211 15.5,73.5 Z M 13.5,83.5 C 11.9582,84.3007 10.2915,84.634 8.5,84.5C 8.98798,81.2893 8.32131,78.456 6.5,76C 13.9118,73.9097 16.2451,76.4097 13.5,83.5 Z M 17.5,79.5 C 15.9719,79.4827 15.4719,78.816 16,77.5C 16.7172,78.0442 17.2172,78.7109 17.5,79.5 Z M 17.5,79.5 C 19.8369,82.0191 20.6703,85.0191 20,88.5C 18.7012,88.0338 17.2012,88.0338 15.5,88.5C 15.5,87.5 15.5,86.5 15.5,85.5C 19.5,85.1667 19.5,84.8333 15.5,84.5C 15.3915,82.4862 16.0582,80.8195 17.5,79.5 Z M 11.5,85.5 C 12.5,85.5 13.5,85.5 14.5,85.5C 14.5,86.5 14.5,87.5 14.5,88.5C 13.5,88.5 12.5,88.5 11.5,88.5C 11.5,87.5 11.5,86.5 11.5,85.5 Z M 30.5,85.5 C 31.5,85.5 32.5,85.5 33.5,85.5C 33.5,86.5 33.5,87.5 33.5,88.5C 32.5,88.5 31.5,88.5 30.5,88.5C 30.5,87.5 30.5,86.5 30.5,85.5 Z M 25.5,91.5 C 24.8333,91.5 24.1667,91.5 23.5,91.5C 24.1667,88.8333 24.8333,88.8333 25.5,91.5 Z"/></g>
<g><path style="opacity:0.447" fill="#5a5757" d="M 41.5,67.5 C 42.4511,68.9187 42.7845,70.5853 42.5,72.5C 42.5,72.8333 42.5,73.1667 42.5,73.5C 42.2053,75.7354 42.5386,77.7354 43.5,79.5C 43.0897,82.4307 41.7564,83.0974 39.5,81.5C 41.2018,79.1998 41.8685,76.5331 41.5,73.5C 37.8333,73.5 34.1667,73.5 30.5,73.5C 30.6567,74.8734 30.49,76.2068 30,77.5C 29.6458,75.1925 28.6458,74.8592 27,76.5C 25.8261,75.4558 24.6594,74.4558 23.5,73.5C 23.5,73.1667 23.5,72.8333 23.5,72.5C 24.8333,71.5 24.8333,70.5 23.5,69.5C 23.1667,69.5 22.8333,69.5 22.5,69.5C 22.5,68.8333 22.5,68.1667 22.5,67.5C 23.1667,67.5 23.8333,67.5 24.5,67.5C 26.1667,68.8333 27.8333,68.8333 29.5,67.5C 30.1667,67.5 30.8333,67.5 31.5,67.5C 30.6993,69.0418 30.366,70.7085 30.5,72.5C 31.5,72.5 32.5,72.5 33.5,72.5C 33.5,70.8333 33.5,69.1667 33.5,67.5C 33.8333,67.5 34.1667,67.5 34.5,67.5C 34.2148,69.288 34.5481,70.9547 35.5,72.5C 34.9107,70.2883 35.5773,68.2883 37.5,66.5C 37.56,65.9569 37.8933,65.6236 38.5,65.5C 39.5178,66.1925 40.5178,66.8592 41.5,67.5 Z M 26.5,70.5 C 28.8519,71.5426 29.0185,72.8759 27,74.5C 26.51,73.2068 26.3433,71.8734 26.5,70.5 Z M 37.5,68.5 C 37.5,69.5 37.5,70.5 37.5,71.5C 39.3464,71.7778 40.6798,71.1112 41.5,69.5C 40.3088,69.5953 38.9755,69.262 37.5,68.5 Z"/></g>
<g><path style="opacity:0.004" fill="#fefffe" d="M 257.5,74.5 C 258.833,75.1667 258.833,75.1667 257.5,74.5 Z"/></g>
<g><path style="opacity:0.004" fill="#fefffe" d="M -0.5,76.5 C 0.833333,77.1667 0.833333,77.1667 -0.5,76.5 Z"/></g>
<g><path style="opacity:0.004" fill="#fefffe" d="M 290.5,82.5 C 291.833,83.1667 291.833,83.1667 290.5,82.5 Z"/></g>
<g><path style="opacity:0.556" fill="#393838" d="M 41.5,85.5 C 41.8333,85.5 42.1667,85.5 42.5,85.5C 42.5,86.5 42.5,87.5 42.5,88.5C 46.1119,90.432 50.1119,91.432 54.5,91.5C 54.2612,96.4952 56.2612,100.162 60.5,102.5C 60.5,102.833 60.5,103.167 60.5,103.5C 56.7601,102.092 54.4267,99.425 53.5,95.5C 51.2573,94.5258 48.924,94.1924 46.5,94.5C 46.0679,93.2905 45.4013,92.2905 44.5,91.5C 44.1583,90.6618 43.4916,90.3284 42.5,90.5C 42.1667,90.5 41.8333,90.5 41.5,90.5C 40.209,90.2627 39.209,90.596 38.5,91.5C 38.3893,92.1174 38.056,92.6174 37.5,93C 36.1667,93.1667 34.8333,93.3333 33.5,93.5C 28.6025,93.4944 24.1025,93.1611 20,92.5C 19.5357,93.0944 19.369,93.7611 19.5,94.5C 17.5853,94.2155 15.9187,94.5489 14.5,95.5C 14.1667,95.5 13.8333,95.5 13.5,95.5C 13.5,94.8333 13.1667,94.5 12.5,94.5C 11.1667,93.5 11.1667,92.5 12.5,91.5C 13.4916,91.6716 14.1583,91.3382 14.5,90.5C 14.8333,90.5 15.1667,90.5 15.5,90.5C 16.5,91.8333 17.5,91.8333 18.5,90.5C 18.8333,90.5 19.1667,90.5 19.5,90.5C 19.8333,91.8333 20.1667,91.8333 20.5,90.5C 21.609,90.5569 22.609,90.8902 23.5,91.5C 24.1667,91.5 24.8333,91.5 25.5,91.5C 25.8333,91.5 26.1667,91.5 26.5,91.5C 30.1817,91.6653 33.8484,91.4986 37.5,91C 35.9419,90.79 34.6085,90.29 33.5,89.5C 34.791,89.7373 35.791,89.404 36.5,88.5C 37.3382,88.1583 37.6716,87.4916 37.5,86.5C 37.8333,86.5 38.1667,86.5 38.5,86.5C 38.8212,88.0481 39.8212,88.7148 41.5,88.5C 41.5,87.5 41.5,86.5 41.5,85.5 Z"/></g>
<g><path style="opacity:0.004" fill="#fefffe" d="M 392.5,92.5 C 393.833,93.1667 393.833,93.1667 392.5,92.5 Z"/></g>
<g><path style="opacity:0.157" fill="#666364" d="M 120.5,85.5 C 121.167,85.5 121.833,85.5 122.5,85.5C 121.737,87.3684 120.737,89.0351 119.5,90.5C 118.833,90.5 118.167,90.5 117.5,90.5C 117.918,89.7784 118.584,89.2784 119.5,89C 117.866,88.5065 116.199,88.3398 114.5,88.5C 114.157,90.4832 114.824,91.8166 116.5,92.5C 115.833,93.1667 115.167,93.8333 114.5,94.5C 114.167,94.5 113.833,94.5 113.5,94.5C 111.901,94.7678 110.568,94.4345 109.5,93.5C 110.167,91.8333 110.833,90.1667 111.5,88.5C 111.5,88.1667 111.5,87.8333 111.5,87.5C 112.492,87.6716 113.158,87.3382 113.5,86.5C 113.833,86.5 114.167,86.5 114.5,86.5C 115.5,87.8333 116.5,87.8333 117.5,86.5C 117.833,86.5 118.167,86.5 118.5,86.5C 119.623,87.7574 120.289,87.4241 120.5,85.5 Z M 111.5,88.5 C 112.649,88.7911 113.316,89.6244 113.5,91C 113.167,91.8333 112.833,92.6667 112.5,93.5C 111.548,91.9547 111.215,90.288 111.5,88.5 Z"/></g>
<g><path style="opacity:0.617" fill="#211f20" d="M 41.5,90.5 C 41.8333,90.5 42.1667,90.5 42.5,90.5C 42.8417,91.3382 43.5084,91.6716 44.5,91.5C 45.4013,92.2905 46.0679,93.2905 46.5,94.5C 45.5206,97.6248 45.1872,100.958 45.5,104.5C 42.8333,104.5 40.1667,104.5 37.5,104.5C 37.5,104.167 37.5,103.833 37.5,103.5C 39.1667,103.5 40.8333,103.5 42.5,103.5C 42.5,102.167 42.5,100.833 42.5,99.5C 41.5,99.5 40.5,99.5 39.5,99.5C 39.5,99.1667 39.5,98.8333 39.5,98.5C 38.7777,97.4489 37.7777,96.7822 36.5,96.5C 36.38,95.4138 35.7133,94.7472 34.5,94.5C 33.5836,94.5427 32.9169,94.8761 32.5,95.5C 32.1667,95.5 31.8333,95.5 31.5,95.5C 28.5,94.1667 25.5,94.1667 22.5,95.5C 22.1667,95.5 21.8333,95.5 21.5,95.5C 21.1667,94.1667 20.8333,94.1667 20.5,95.5C 20.1667,95.5 19.8333,95.5 19.5,95.5C 19.5,95.1667 19.5,94.8333 19.5,94.5C 19.369,93.7611 19.5357,93.0944 20,92.5C 24.1025,93.1611 28.6025,93.4944 33.5,93.5C 34.8333,93.3333 36.1667,93.1667 37.5,93C 38.056,92.6174 38.3893,92.1174 38.5,91.5C 39.791,91.7373 40.791,91.404 41.5,90.5 Z M 39.5,98.5 C 39.6399,96.8762 38.9733,95.7096 37.5,95C 39.1341,94.5065 40.8008,94.3398 42.5,94.5C 42.5,95.8333 42.5,97.1667 42.5,98.5C 41.5,98.5 40.5,98.5 39.5,98.5 Z"/></g>
<g><path style="opacity:0.004" fill="#fefffe" d="M 443.5,97.5 C 444.833,98.1667 444.833,98.1667 443.5,97.5 Z"/></g>
<g><path style="opacity:0.129" fill="#635d5d" d="M 9.5,95.5 C 10.1667,95.5 10.8333,95.5 11.5,95.5C 12.6953,99.2861 13.362,99.2861 13.5,95.5C 13.8333,95.5 14.1667,95.5 14.5,95.5C 15.5,95.5 16.5,95.5 17.5,95.5C 18.1667,99.5 18.8333,99.5 19.5,95.5C 19.8333,95.5 20.1667,95.5 20.5,95.5C 20.8333,99.5 21.1667,99.5 21.5,95.5C 21.8333,95.5 22.1667,95.5 22.5,95.5C 22.5958,99.3107 23.2624,99.3107 24.5,95.5C 25.9052,98.8518 27.2385,99.0185 28.5,96C 29.448,95.5172 30.448,95.3505 31.5,95.5C 31.8333,95.5 32.1667,95.5 32.5,95.5C 33.0527,99.4557 33.8861,99.4557 35,95.5C 35.3333,96.5 35.6667,97.5 36,98.5C 36.4643,97.9056 36.631,97.2389 36.5,96.5C 37.7777,96.7822 38.7777,97.4489 39.5,98.5C 39.5,98.8333 39.5,99.1667 39.5,99.5C 39.5,100.5 39.5,101.5 39.5,102.5C 38.5,102.5 37.5,102.5 36.5,102.5C 36.3399,98.7636 35.5066,98.7636 34,102.5C 33.1932,98.551 32.6932,98.551 32.5,102.5C 31.5,102.5 30.5,102.5 29.5,102.5C 29.6495,101.448 29.4828,100.448 29,99.5C 27,103.5 25,103.5 23,99.5C 22.4309,103.361 21.5976,103.361 20.5,99.5C 19.4024,103.361 18.5691,103.361 18,99.5C 17.5172,100.448 17.3505,101.448 17.5,102.5C 16.1667,102.5 14.8333,102.5 13.5,102.5C 13.3068,98.551 12.8068,98.551 12,102.5C 11.3333,98.5 10.6667,98.5 10,102.5C 9.51722,101.552 9.35055,100.552 9.5,99.5C 8.5,99.5 7.5,99.5 6.5,99.5C 6.5,99.1667 6.5,98.8333 6.5,98.5C 7.5,98.5 8.5,98.5 9.5,98.5C 9.5,97.5 9.5,96.5 9.5,95.5 Z"/></g>
<g><path style="opacity:0.004" fill="#fefffe" d="M 185.5,98.5 C 186.833,99.1667 186.833,99.1667 185.5,98.5 Z"/></g>
<g><path style="opacity:0.043" fill="#6e6d6e" d="M 145.5,85.5 C 146.5,86.1667 147.5,86.8333 148.5,87.5C 148.5,88.1667 148.833,88.5 149.5,88.5C 150.938,91.2425 152.938,93.5758 155.5,95.5C 156.281,94.2713 156.781,92.938 157,91.5C 157.333,92.5 157.667,93.5 158,94.5C 159.666,91.6688 161.832,89.3355 164.5,87.5C 164.833,87.5 165.167,87.5 165.5,87.5C 163.291,91.0594 160.624,94.3927 157.5,97.5C 159.078,98.2978 160.744,98.7978 162.5,99C 161.5,99.3333 160.5,99.6667 159.5,100C 161.169,101.669 163.169,102.502 165.5,102.5C 165.238,103.978 165.571,105.311 166.5,106.5C 167.474,104.257 167.808,101.924 167.5,99.5C 168.236,101.229 169.57,102.229 171.5,102.5C 171.5,102.833 171.5,103.167 171.5,103.5C 170.5,103.5 169.5,103.5 168.5,103.5C 168.662,105.527 168.495,107.527 168,109.5C 167.617,110.056 167.117,110.389 166.5,110.5C 166.167,109.167 165.833,109.167 165.5,110.5C 165.167,110.5 164.833,110.5 164.5,110.5C 162.451,104.298 161.451,104.298 161.5,110.5C 161.167,110.5 160.833,110.5 160.5,110.5C 160.5,108.167 160.5,105.833 160.5,103.5C 159.5,103.5 158.5,103.5 157.5,103.5C 157.5,105.167 157.5,106.833 157.5,108.5C 157.167,108.5 156.833,108.5 156.5,108.5C 156.5,106.833 156.5,105.167 156.5,103.5C 151.167,102.833 148.833,105.167 149.5,110.5C 149.167,110.5 148.833,110.5 148.5,110.5C 148.283,106.94 147.283,106.94 145.5,110.5C 144.5,110.5 143.5,110.5 142.5,110.5C 142.167,101.167 141.833,101.167 141.5,110.5C 141.167,110.5 140.833,110.5 140.5,110.5C 140.754,108.599 140.42,107.933 139.5,108.5C 138.833,108.833 138.167,109.167 137.5,109.5C 136.848,108.275 135.681,107.608 134,107.5C 132.615,107.514 131.449,107.848 130.5,108.5C 129.833,108.5 129.167,108.5 128.5,108.5C 128.5,106.833 128.5,105.167 128.5,103.5C 127.5,103.5 126.5,103.5 125.5,103.5C 125.5,105.167 125.5,106.833 125.5,108.5C 125.167,108.5 124.833,108.5 124.5,108.5C 124.5,106.5 124.5,104.5 124.5,102.5C 120.5,102.833 116.5,103.167 112.5,103.5C 111.081,102.549 109.415,102.216 107.5,102.5C 107.5,102.167 107.5,101.833 107.5,101.5C 109.424,101.289 109.757,100.623 108.5,99.5C 108.5,99.1667 108.5,98.8333 108.5,98.5C 110.167,98.5 111.833,98.5 113.5,98.5C 113.5,97.1667 113.5,95.8333 113.5,94.5C 113.833,94.5 114.167,94.5 114.5,94.5C 114.5,95.8333 114.5,97.1667 114.5,98.5C 115.5,98.5 116.5,98.5 117.5,98.5C 117.795,96.2646 117.461,94.2646 116.5,92.5C 116.833,91.8333 117.167,91.1667 117.5,90.5C 118.167,90.5 118.833,90.5 119.5,90.5C 118.612,93.0545 118.279,95.7212 118.5,98.5C 121.499,98.1669 124.332,98.1669 127,98.5C 127.945,98.0946 128.612,97.428 129,96.5C 129.333,98.8333 129.667,101.167 130,103.5C 131,100.5 132,97.5 133,94.5C 135.631,100.111 136.965,99.7776 137,93.5C 137.494,95.1341 137.66,96.8008 137.5,98.5C 138.5,98.5 139.5,98.5 140.5,98.5C 140.677,91.8656 141.177,91.8656 142,98.5C 142.499,94.5138 142.666,90.5138 142.5,86.5C 143.167,88.1667 143.833,89.8333 144.5,91.5C 144.5,93.8333 144.5,96.1667 144.5,98.5C 147.167,98.5 149.833,98.5 152.5,98.5C 152.657,97.1266 152.49,95.7932 152,94.5C 149.361,92.5146 147.194,90.1813 145.5,87.5C 144.494,87.0623 144.494,86.3957 145.5,85.5 Z M 154.5,99.5 C 156.048,99.8212 156.715,100.821 156.5,102.5C 155.448,102.649 154.448,102.483 153.5,102C 154.252,101.329 154.586,100.496 154.5,99.5 Z M 144.5,100.5 C 146.966,99.3659 149.633,99.1993 152.5,100C 151.667,100.833 150.833,101.667 150,102.5C 149.15,101.576 148.15,101.576 147,102.5C 145.989,101.944 145.156,101.278 144.5,100.5 Z M 137.5,99.5 C 138.5,99.5 139.5,99.5 140.5,99.5C 140.5,101.833 140.5,104.167 140.5,106.5C 139.325,106.719 138.325,106.386 137.5,105.5C 137.92,103.674 137.92,101.674 137.5,99.5 Z M 133.5,99.5 C 135.213,100.635 135.88,102.302 135.5,104.5C 134.5,104.5 133.5,104.5 132.5,104.5C 132.366,102.708 132.699,101.042 133.5,99.5 Z M 125.5,99.5 C 126.5,99.5 127.5,99.5 128.5,99.5C 128.5,100.5 128.5,101.5 128.5,102.5C 127.5,102.5 126.5,102.5 125.5,102.5C 125.5,101.5 125.5,100.5 125.5,99.5 Z M 121.5,99.5 C 122.675,99.281 123.675,99.6143 124.5,100.5C 122.948,101.798 121.948,101.465 121.5,99.5 Z M 118.5,99.5 C 120.337,99.6395 120.67,100.306 119.5,101.5C 118.702,101.043 118.369,100.376 118.5,99.5 Z M 114.5,99.5 C 115.675,99.281 116.675,99.6143 117.5,100.5C 115.948,101.798 114.948,101.465 114.5,99.5 Z M 110.5,99.5 C 111.675,99.281 112.675,99.6143 113.5,100.5C 111.948,101.798 110.948,101.465 110.5,99.5 Z M 145.5,87.5 C 147.194,90.1813 149.361,92.5146 152,94.5C 152.49,95.7932 152.657,97.1266 152.5,98.5C 149.833,98.5 147.167,98.5 144.5,98.5C 144.5,96.1667 144.5,93.8333 144.5,91.5C 144.433,90.0413 144.766,88.7079 145.5,87.5 Z M 157.5,100.5 C 158.289,100.783 158.956,101.283 159.5,102C 158.184,102.528 157.517,102.028 157.5,100.5 Z M 148.5,110.5 C 147.5,110.5 146.5,110.5 145.5,110.5C 147.283,106.94 148.283,106.94 148.5,110.5 Z M 164.5,110.5 C 163.5,110.5 162.5,110.5 161.5,110.5C 161.451,104.298 162.451,104.298 164.5,110.5 Z M 162.5,104.5 C 163.077,103.227 163.743,103.227 164.5,104.5C 164.03,105.463 163.363,105.463 162.5,104.5 Z M 160.5,110.5 C 158.821,110.715 157.821,110.048 157.5,108.5C 157.5,106.833 157.5,105.167 157.5,103.5C 158.5,103.5 159.5,103.5 160.5,103.5C 160.5,105.833 160.5,108.167 160.5,110.5 Z M 156.5,108.5 C 156.179,110.048 155.179,110.715 153.5,110.5C 153.167,106.5 152.833,106.5 152.5,110.5C 151.5,110.5 150.5,110.5 149.5,110.5C 148.833,105.167 151.167,102.833 156.5,103.5C 156.5,105.167 156.5,106.833 156.5,108.5 Z M 145.5,103.5 C 149.157,103.974 149.324,105.307 146,107.5C 145.51,106.207 145.343,104.873 145.5,103.5 Z"/></g>
<g><path style="opacity:0.396" fill="#939393" d="M 167.5,91.5 C 168.833,91.5 170.167,91.5 171.5,91.5C 171.5,95.1667 171.5,98.8333 171.5,102.5C 169.57,102.229 168.236,101.229 167.5,99.5C 167.5,98.1667 167.5,96.8333 167.5,95.5C 163.5,95.1667 163.5,94.8333 167.5,94.5C 167.5,93.5 167.5,92.5 167.5,91.5 Z"/></g>
<g><path style="opacity:0.004" fill="#fefffe" d="M 476.5,102.5 C 477.833,103.167 477.833,103.167 476.5,102.5 Z"/></g>
<g><path style="opacity:0.004" fill="#fefffe" d="M 260.5,104.5 C 261.833,105.167 261.833,105.167 260.5,104.5 Z"/></g>
<g><path style="opacity:0.914" fill="#252425" d="M 2.5,82.5 C 3.70792,83.2341 5.04125,83.5674 6.5,83.5C 6.5,83.8333 6.5,84.1667 6.5,84.5C 6.5,84.8333 6.5,85.1667 6.5,85.5C 6.5,86.5 6.5,87.5 6.5,88.5C 7.5,88.5 8.5,88.5 9.5,88.5C 9.5,88.8333 9.5,89.1667 9.5,89.5C 8.32068,91.409 8.65401,91.7424 10.5,90.5C 10.8333,90.5 11.1667,90.5 11.5,90.5C 11.5,91.1667 11.8333,91.5 12.5,91.5C 11.1667,92.5 11.1667,93.5 12.5,94.5C 11.8333,94.5 11.5,94.8333 11.5,95.5C 10.8333,95.5 10.1667,95.5 9.5,95.5C 8.79105,94.596 7.79105,94.2627 6.5,94.5C 6.5,95.8333 6.5,97.1667 6.5,98.5C 6.5,98.8333 6.5,99.1667 6.5,99.5C 6.5,100.833 6.5,102.167 6.5,103.5C 16.8333,103.5 27.1667,103.5 37.5,103.5C 37.5,103.833 37.5,104.167 37.5,104.5C 27.1667,104.5 16.8333,104.5 6.5,104.5C 6.1936,107.385 6.52693,110.052 7.5,112.5C 7.5,112.833 7.5,113.167 7.5,113.5C 6.53862,115.265 6.20528,117.265 6.5,119.5C 7.83333,119.5 9.16667,119.5 10.5,119.5C 10.5569,120.609 10.8902,121.609 11.5,122.5C 10.5041,122.414 9.67076,122.748 9,123.5C 8.33333,126.167 8.33333,128.833 9,131.5C 10.0113,132.337 11.1779,132.67 12.5,132.5C 12.5,133.167 12.5,133.833 12.5,134.5C 9.10748,134.375 7.77415,136.042 8.5,139.5C 7.77415,142.958 9.10748,144.625 12.5,144.5C 12.5,145.5 12.5,146.5 12.5,147.5C 9.51917,147.544 9.18584,147.877 11.5,148.5C 15.6721,148.268 20.0054,148.268 24.5,148.5C 25.1667,148.5 25.5,148.833 25.5,149.5C 17.8333,149.5 10.1667,149.5 2.5,149.5C 2.5,127.167 2.5,104.833 2.5,82.5 Z M 6.5,121.5 C 7.23891,121.369 7.90558,121.536 8.5,122C 8.50681,130.007 8.17348,137.841 7.5,145.5C 6.5023,137.528 6.16897,129.528 6.5,121.5 Z"/></g>
<g><path style="opacity:0.004" fill="#fefffe" d="M 365.5,110.5 C 366.833,111.167 366.833,111.167 365.5,110.5 Z"/></g>
<g><path style="opacity:0.488" fill="#2f2e2f" d="M 112.5,103.5 C 111.146,106.033 111.98,107.7 115,108.5C 116.813,107.391 117.646,108.058 117.5,110.5C 120.388,111.01 122.721,110.344 124.5,108.5C 124.833,108.5 125.167,108.5 125.5,108.5C 126.5,111.167 127.5,111.167 128.5,108.5C 129.167,108.5 129.833,108.5 130.5,108.5C 131.152,109.725 132.319,110.392 134,110.5C 135.385,110.486 136.551,110.152 137.5,109.5C 138.167,109.167 138.833,108.833 139.5,108.5C 139.328,109.492 139.662,110.158 140.5,110.5C 140.833,110.5 141.167,110.5 141.5,110.5C 141.833,110.5 142.167,110.5 142.5,110.5C 143.5,110.5 144.5,110.5 145.5,110.5C 146.5,110.5 147.5,110.5 148.5,110.5C 148.833,110.5 149.167,110.5 149.5,110.5C 150.5,110.5 151.5,110.5 152.5,110.5C 152.833,106.5 153.167,106.5 153.5,110.5C 155.179,110.715 156.179,110.048 156.5,108.5C 156.833,108.5 157.167,108.5 157.5,108.5C 157.821,110.048 158.821,110.715 160.5,110.5C 160.833,110.5 161.167,110.5 161.5,110.5C 162.5,110.5 163.5,110.5 164.5,110.5C 164.833,110.5 165.167,110.5 165.5,110.5C 165.833,110.5 166.167,110.5 166.5,110.5C 167.117,110.389 167.617,110.056 168,109.5C 168.495,107.527 168.662,105.527 168.5,103.5C 169.5,103.5 170.5,103.5 171.5,103.5C 171.5,109.167 171.5,114.833 171.5,120.5C 171.167,120.5 170.833,120.5 170.5,120.5C 169.833,120.5 169.167,120.5 168.5,120.5C 168.167,120.5 167.833,120.5 167.5,120.5C 167.5,117.833 167.5,115.167 167.5,112.5C 161.729,111.887 156.396,112.554 151.5,114.5C 151.167,114.5 150.833,114.5 150.5,114.5C 150.289,112.576 149.623,112.243 148.5,113.5C 148.167,113.5 147.833,113.5 147.5,113.5C 146.58,112.933 146.246,113.599 146.5,115.5C 146.167,115.5 145.833,115.5 145.5,115.5C 144.833,111.5 144.167,111.5 143.5,115.5C 143.167,115.5 142.833,115.5 142.5,115.5C 142.719,114.325 142.386,113.325 141.5,112.5C 140.893,112.624 140.56,112.957 140.5,113.5C 140.167,113.5 139.833,113.5 139.5,113.5C 138.794,112.443 138.461,112.776 138.5,114.5C 137.833,114.5 137.167,114.5 136.5,114.5C 136.539,112.776 136.206,112.443 135.5,113.5C 135.167,113.5 134.833,113.5 134.5,113.5C 133.377,112.243 132.711,112.576 132.5,114.5C 132.167,114.5 131.833,114.5 131.5,114.5C 131.631,113.624 131.298,112.957 130.5,112.5C 129.571,113.689 129.238,115.022 129.5,116.5C 129.167,116.5 128.833,116.5 128.5,116.5C 128.657,115.127 128.49,113.793 128,112.5C 127.536,113.094 127.369,113.761 127.5,114.5C 126.833,114.167 126.167,113.833 125.5,113.5C 124.794,112.443 124.461,112.776 124.5,114.5C 124.167,114.5 123.833,114.5 123.5,114.5C 119.285,112.564 114.619,111.897 109.5,112.5C 109.167,111.833 108.833,111.167 108.5,110.5C 110.288,110.785 111.955,110.452 113.5,109.5C 110.189,107.66 109.856,105.66 112.5,103.5 Z M 148.5,110.5 C 147.5,110.5 146.5,110.5 145.5,110.5C 147.283,106.94 148.283,106.94 148.5,110.5 Z M 137.5,109.5 C 136.551,110.152 135.385,110.486 134,110.5C 132.319,110.392 131.152,109.725 130.5,108.5C 131.449,107.848 132.615,107.514 134,107.5C 135.681,107.608 136.848,108.275 137.5,109.5 Z M 164.5,110.5 C 163.5,110.5 162.5,110.5 161.5,110.5C 161.451,104.298 162.451,104.298 164.5,110.5 Z M 162.5,104.5 C 163.363,105.463 164.03,105.463 164.5,104.5C 163.743,103.227 163.077,103.227 162.5,104.5 Z M 160.5,110.5 C 158.821,110.715 157.821,110.048 157.5,108.5C 157.5,106.833 157.5,105.167 157.5,103.5C 158.5,103.5 159.5,103.5 160.5,103.5C 160.5,105.833 160.5,108.167 160.5,110.5 Z M 156.5,108.5 C 156.179,110.048 155.179,110.715 153.5,110.5C 153.167,106.5 152.833,106.5 152.5,110.5C 151.5,110.5 150.5,110.5 149.5,110.5C 148.833,105.167 151.167,102.833 156.5,103.5C 156.5,105.167 156.5,106.833 156.5,108.5 Z M 145.5,103.5 C 145.343,104.873 145.51,106.207 146,107.5C 149.324,105.307 149.157,103.974 145.5,103.5 Z M 128.5,108.5 C 127.5,111.167 126.5,111.167 125.5,108.5C 125.5,106.833 125.5,105.167 125.5,103.5C 126.5,103.5 127.5,103.5 128.5,103.5C 128.5,105.167 128.5,106.833 128.5,108.5 Z"/></g>
<g><path style="opacity:0.502" fill="#050505" d="M 230.5,115.5 C 234.5,115.5 238.5,115.5 242.5,115.5C 243.188,120.242 242.188,121.075 239.5,118C 237.527,117.505 235.527,117.338 233.5,117.5C 234.095,120.654 234.095,123.654 233.5,126.5C 236.079,126.917 238.246,126.25 240,124.5C 240.667,126.5 240.667,128.5 240,130.5C 238.246,128.75 236.079,128.083 233.5,128.5C 233.5,131.5 233.5,134.5 233.5,137.5C 238.084,138.031 241.584,136.365 244,132.5C 244.138,134.432 243.638,136.266 242.5,138C 237.833,138.667 233.167,138.667 228.5,138C 229.786,134.767 230.453,131.267 230.5,127.5C 230.453,123.733 229.786,120.233 228.5,117C 229.416,116.722 230.082,116.222 230.5,115.5 Z"/></g>
<g><path style="opacity:0.626" fill="#020202" d="M 294.5,115.5 C 296.655,115.372 298.655,115.872 300.5,117C 299.214,120.233 298.547,123.733 298.5,127.5C 298.547,131.267 299.214,134.767 300.5,138C 297.833,138.667 295.167,138.667 292.5,138C 293.416,137.626 294.25,137.126 295,136.5C 295.667,130.5 295.667,124.5 295,118.5C 294.25,117.874 293.416,117.374 292.5,117C 293.416,116.722 294.082,116.222 294.5,115.5 Z"/></g>
<g><path style="opacity:0.004" fill="#fefffe" d="M 314.5,115.5 C 315.833,116.167 315.833,116.167 314.5,115.5 Z"/></g>
<g><path style="opacity:0.581" fill="#020202" d="M 323.5,130.5 C 325.669,137.41 330.002,139.076 336.5,135.5C 337.971,132.679 337.637,130.179 335.5,128C 337.833,127.333 340.167,127.333 342.5,128C 340.677,138.41 334.677,141.744 324.5,138C 319.789,133.86 318.289,128.694 320,122.5C 324.575,115.384 330.742,113.717 338.5,117.5C 339.641,119.421 339.808,121.421 339,123.5C 336.265,117.878 332.099,116.378 326.5,119C 322.888,122.308 321.888,126.141 323.5,130.5 Z"/></g>
<g><path style="opacity:0.569" fill="#020202" d="M 361.5,115.5 C 362.239,115.369 362.906,115.536 363.5,116C 368.3,121.802 373.467,127.302 379,132.5C 379.667,127.833 379.667,123.167 379,118.5C 375.881,117.128 376.214,116.128 380,115.5C 381.225,115.862 382.391,116.362 383.5,117C 381.718,124.23 380.885,131.73 381,139.5C 375.301,134.135 369.967,128.469 365,122.5C 364.833,125 364.667,127.5 364.5,130C 364.568,132.95 365.234,135.617 366.5,138C 364.167,138.667 361.833,138.667 359.5,138C 361.444,130.778 362.111,123.278 361.5,115.5 Z"/></g>
<g><path style="opacity:0.496" fill="#040404" d="M 405.5,115.5 C 407.857,115.337 410.19,115.503 412.5,116C 413.747,117.494 413.747,118.994 412.5,120.5C 409.871,116.431 407.538,116.598 405.5,121C 407.95,124.453 410.783,127.62 414,130.5C 414.609,138.295 411.109,140.962 403.5,138.5C 402.359,136.579 402.192,134.579 403,132.5C 403.608,136.461 405.774,137.961 409.5,137C 410.804,136.196 411.471,135.029 411.5,133.5C 408.569,130.39 405.736,127.057 403,123.5C 402.388,120.389 403.221,117.723 405.5,115.5 Z"/></g>
<g><path style="opacity:0.613" fill="#040404" d="M 189.5,115.5 C 194.232,115.378 198.898,115.878 203.5,117C 211.497,122.975 212.164,129.641 205.5,137C 199.612,138.576 193.612,138.909 187.5,138C 188.786,134.767 189.453,131.267 189.5,127.5C 189.453,123.733 188.786,120.233 187.5,117C 188.416,116.722 189.082,116.222 189.5,115.5 Z M 192.5,117.5 C 203.02,116.518 207.52,121.185 206,131.5C 202.948,136.472 198.448,138.472 192.5,137.5C 192.5,130.833 192.5,124.167 192.5,117.5 Z"/></g>
<g><path style="opacity:0.131" fill="#817f80" d="M 125.5,113.5 C 126.167,113.833 126.833,114.167 127.5,114.5C 127.824,118.555 127.491,122.555 126.5,126.5C 125.508,122.217 125.174,117.884 125.5,113.5 Z"/></g>
<g><path style="opacity:0.004" fill="#fefffe" d="M 449.5,122.5 C 450.833,123.167 450.833,123.167 449.5,122.5 Z"/></g>
<g><path style="opacity:0.004" fill="#fefffe" d="M -0.5,123.5 C 0.833333,124.167 0.833333,124.167 -0.5,123.5 Z"/></g>
<g><path style="opacity:0.651" fill="#030303" d="M 265.5,115.5 C 267.857,115.337 270.19,115.503 272.5,116C 273.747,117.494 273.747,118.994 272.5,120.5C 269.871,116.431 267.538,116.598 265.5,121C 267.95,124.453 270.783,127.62 274,130.5C 274.609,138.295 271.109,140.962 263.5,138.5C 262.359,136.579 262.192,134.579 263,132.5C 263.608,136.461 265.774,137.961 269.5,137C 270.804,136.196 271.471,135.029 271.5,133.5C 268.569,130.39 265.736,127.057 263,123.5C 262.388,120.389 263.221,117.723 265.5,115.5 Z"/></g>
<g><path style="opacity:0.004" fill="#fefffe" d="M 446.5,124.5 C 447.833,125.167 447.833,125.167 446.5,124.5 Z"/></g>
<g><path style="opacity:0.004" fill="#fefffe" d="M 293.5,126.5 C 294.833,127.167 294.833,127.167 293.5,126.5 Z"/></g>
<g><path style="opacity:0.004" fill="#fefffe" d="M 398.5,127.5 C 399.833,128.167 399.833,128.167 398.5,127.5 Z"/></g>
<g><path style="opacity:0.004" fill="#fefffe" d="M 323.5,129.5 C 324.833,130.167 324.833,130.167 323.5,129.5 Z"/></g>
<g><path style="opacity:0.727" fill="#141414" d="M 81.5,146.5 C 80.8902,147.391 80.5569,148.391 80.5,149.5C 70.8333,149.5 61.1667,149.5 51.5,149.5C 51.9175,148.778 52.5842,148.278 53.5,148C 52.944,147.617 52.6107,147.117 52.5,146.5C 57.5,146.5 62.5,146.5 67.5,146.5C 67.8328,129.154 67.4995,111.821 66.5,94.5C 65.513,97.7683 65.1796,101.102 65.5,104.5C 63.7839,104.371 62.1172,104.038 60.5,103.5C 60.5,103.167 60.5,102.833 60.5,102.5C 61.8221,102.33 62.9887,102.663 64,103.5C 64.4988,99.5138 64.6655,95.5138 64.5,91.5C 66.1667,91.5 67.8333,91.5 69.5,91.5C 69.5,109.833 69.5,128.167 69.5,146.5C 73.5,146.5 77.5,146.5 81.5,146.5 Z"/></g>
<g><path style="opacity:0.323" fill="#7d7b7d" d="M 134.5,113.5 C 134.833,113.5 135.167,113.5 135.5,113.5C 135.334,118.179 135.501,122.845 136,127.5C 136.499,123.179 136.666,118.846 136.5,114.5C 137.167,114.5 137.833,114.5 138.5,114.5C 137.726,118.875 137.726,123.208 138.5,127.5C 139.493,122.88 139.827,118.214 139.5,113.5C 139.833,113.5 140.167,113.5 140.5,113.5C 140.173,118.214 140.507,122.88 141.5,127.5C 142.491,123.555 142.824,119.555 142.5,115.5C 142.833,115.5 143.167,115.5 143.5,115.5C 144.167,131.5 144.833,131.5 145.5,115.5C 145.833,115.5 146.167,115.5 146.5,115.5C 146.334,119.514 146.501,123.514 147,127.5C 147.499,122.845 147.666,118.179 147.5,113.5C 147.833,113.5 148.167,113.5 148.5,113.5C 148.173,118.214 148.507,122.88 149.5,127.5C 150.492,123.217 150.826,118.884 150.5,114.5C 150.833,114.5 151.167,114.5 151.5,114.5C 151.5,115.833 151.5,117.167 151.5,118.5C 154.833,118.5 158.167,118.5 161.5,118.5C 161.83,125.532 161.497,132.532 160.5,139.5C 159.503,132.866 159.17,126.2 159.5,119.5C 156.788,119.737 154.288,119.737 152,119.5C 151.5,128.494 151.334,137.494 151.5,146.5C 156.833,146.5 162.167,146.5 167.5,146.5C 168.151,147.091 168.818,147.757 169.5,148.5C 170.182,147.757 170.849,147.091 171.5,146.5C 171.5,147.5 171.5,148.5 171.5,149.5C 162.167,149.5 152.833,149.5 143.5,149.5C 142.89,148.609 142.557,147.609 142.5,146.5C 142.827,141.786 142.493,137.12 141.5,132.5C 140.509,136.445 140.176,140.445 140.5,144.5C 140.167,144.5 139.833,144.5 139.5,144.5C 138.833,127.167 138.167,127.167 137.5,144.5C 137.167,144.5 136.833,144.5 136.5,144.5C 136.167,127.167 135.833,127.167 135.5,144.5C 135.167,144.5 134.833,144.5 134.5,144.5C 134.826,140.116 134.492,135.783 133.5,131.5C 132.507,136.12 132.173,140.786 132.5,145.5C 132.167,145.5 131.833,145.5 131.5,145.5C 131.827,140.786 131.493,136.12 130.5,131.5C 129.506,136.456 129.173,141.456 129.5,146.5C 129.167,146.5 128.833,146.5 128.5,146.5C 128.167,138.5 127.833,138.5 127.5,146.5C 126.833,146.167 126.167,145.833 125.5,145.5C 125.666,140.821 125.499,136.155 125,131.5C 124.501,135.486 124.334,139.486 124.5,143.5C 123.833,143.5 123.167,143.5 122.5,143.5C 122.167,143.5 121.833,143.5 121.5,143.5C 121.344,132.994 122.011,123.327 123.5,114.5C 123.833,114.5 124.167,114.5 124.5,114.5C 124.5,118.833 124.5,123.167 124.5,127.5C 125.833,127.5 127.167,127.5 128.5,127.5C 128.5,123.833 128.5,120.167 128.5,116.5C 128.833,116.5 129.167,116.5 129.5,116.5C 129.177,120.226 129.511,123.893 130.5,127.5C 131.492,123.217 131.826,118.884 131.5,114.5C 131.833,114.5 132.167,114.5 132.5,114.5C 132.174,118.884 132.508,123.217 133.5,127.5C 134.493,122.88 134.827,118.214 134.5,113.5 Z M 123.5,128.5 C 132.192,128.169 140.859,128.502 149.5,129.5C 145.167,129.833 140.833,130.167 136.5,130.5C 131.778,130.492 127.445,129.825 123.5,128.5 Z M 131.5,145.5 C 131.158,146.338 130.492,146.672 129.5,146.5C 129.173,141.456 129.506,136.456 130.5,131.5C 131.493,136.12 131.827,140.786 131.5,145.5 Z M 134.5,144.5 C 134.289,146.424 133.623,146.757 132.5,145.5C 132.173,140.786 132.507,136.12 133.5,131.5C 134.492,135.783 134.826,140.116 134.5,144.5 Z M 139.5,144.5 C 138.833,147.167 138.167,147.167 137.5,144.5C 138.167,127.167 138.833,127.167 139.5,144.5 Z M 143.5,131.5 C 144.809,133.571 145.475,136.071 145.5,139C 145.167,141.5 144.833,144 144.5,146.5C 143.506,141.544 143.173,136.544 143.5,131.5 Z M 148.5,131.5 C 149.725,132.152 150.392,133.319 150.5,135C 150.167,136.167 149.833,137.333 149.5,138.5C 148.526,136.257 148.192,133.924 148.5,131.5 Z M 142.5,146.5 C 141.167,146.5 140.5,145.833 140.5,144.5C 140.176,140.445 140.509,136.445 141.5,132.5C 142.493,137.12 142.827,141.786 142.5,146.5 Z M 148.5,139.5 C 149.725,140.152 150.392,141.319 150.5,143C 150.167,144.167 149.833,145.333 149.5,146.5C 148.526,144.257 148.192,141.924 148.5,139.5 Z"/></g>
<g><path style="opacity:0.243" fill="#414141" d="M 7.5,113.5 C 7.5,113.167 7.5,112.833 7.5,112.5C 9.16667,112.5 10.8333,112.5 12.5,112.5C 11.9898,115.388 12.6565,117.721 14.5,119.5C 14.8333,120.167 15.1667,120.833 15.5,121.5C 15.6491,129.351 15.6491,137.184 15.5,145C 17.8098,145.497 20.1432,145.663 22.5,145.5C 23.5511,146.222 24.2178,147.222 24.5,148.5C 20.0054,148.268 15.6721,148.268 11.5,148.5C 9.18584,147.877 9.51917,147.544 12.5,147.5C 12.5,146.5 12.5,145.5 12.5,144.5C 13.4959,144.586 14.3292,144.252 15,143.5C 15.6667,140.833 15.6667,138.167 15,135.5C 14.3292,134.748 13.4959,134.414 12.5,134.5C 12.5,133.833 12.5,133.167 12.5,132.5C 13.4959,132.586 14.3292,132.252 15,131.5C 15.6667,128.833 15.6667,126.167 15,123.5C 13.9887,122.663 12.8221,122.33 11.5,122.5C 10.8902,121.609 10.5569,120.609 10.5,119.5C 11.4614,117.735 11.7947,115.735 11.5,113.5C 10.1667,113.5 8.83333,113.5 7.5,113.5 Z"/></g>
<g><path style="opacity:0.004" fill="#fefffe" d="M 185.5,134.5 C 186.833,135.167 186.833,135.167 185.5,134.5 Z"/></g>
<g><path style="opacity:0.004" fill="#fefffe" d="M -0.5,138.5 C 0.833333,139.167 0.833333,139.167 -0.5,138.5 Z"/></g>
<g><path style="opacity:0.809" fill="#b5b5b8" d="M 167.5,120.5 C 167.833,120.5 168.167,120.5 168.5,120.5C 169.167,121.833 169.833,121.833 170.5,120.5C 170.833,120.5 171.167,120.5 171.5,120.5C 171.5,129.167 171.5,137.833 171.5,146.5C 170.849,147.091 170.182,147.757 169.5,148.5C 168.818,147.757 168.151,147.091 167.5,146.5C 167.5,137.833 167.5,129.167 167.5,120.5 Z"/></g>
<g><path style="opacity:0.004" fill="#fefffe" d="M 233.5,141.5 C 234.833,142.167 234.833,142.167 233.5,141.5 Z"/></g>
<g><path style="opacity:0.392" fill="#5f5d5e" d="M 14.5,119.5 C 24.5,119.5 34.5,119.5 44.5,119.5C 44.7966,128.65 44.7966,137.65 44.5,146.5C 47.1667,146.5 49.8333,146.5 52.5,146.5C 52.6107,147.117 52.944,147.617 53.5,148C 52.5842,148.278 51.9175,148.778 51.5,149.5C 42.8333,149.5 34.1667,149.5 25.5,149.5C 25.5,148.833 25.1667,148.5 24.5,148.5C 24.2178,147.222 23.5511,146.222 22.5,145.5C 21.5423,144.038 20.3756,142.705 19,141.5C 18.5004,134.842 18.3337,128.175 18.5,121.5C 17.5,121.5 16.5,121.5 15.5,121.5C 15.1667,120.833 14.8333,120.167 14.5,119.5 Z M 20.5,141.5 C 21.5676,140.566 22.901,140.232 24.5,140.5C 24.6567,141.873 24.49,143.207 24,144.5C 22.9609,143.29 21.7942,142.29 20.5,141.5 Z M 19.5,121.5 C 27.5,121.5 35.5,121.5 43.5,121.5C 43.5,129.5 43.5,137.5 43.5,145.5C 37.5,145.5 31.5,145.5 25.5,145.5C 25.5,143.5 25.5,141.5 25.5,139.5C 23.5,139.5 21.5,139.5 19.5,139.5C 19.5,133.5 19.5,127.5 19.5,121.5 Z"/></g>
<g><path style="opacity:0.004" fill="#fefffe" d="M 299.5,145.5 C 300.833,146.167 300.833,146.167 299.5,145.5 Z"/></g>
<g><path style="opacity:0.004" fill="#fefffe" d="M 371.5,145.5 C 372.833,146.167 372.833,146.167 371.5,145.5 Z"/></g>
<g><path style="opacity:1" fill="#373737" d="M 122.5,143.5 C 123.167,143.5 123.833,143.5 124.5,143.5C 124.246,145.401 124.58,146.067 125.5,145.5C 126.167,145.833 126.833,146.167 127.5,146.5C 127.833,146.5 128.167,146.5 128.5,146.5C 128.833,146.5 129.167,146.5 129.5,146.5C 130.492,146.672 131.158,146.338 131.5,145.5C 131.833,145.5 132.167,145.5 132.5,145.5C 133.623,146.757 134.289,146.424 134.5,144.5C 134.833,144.5 135.167,144.5 135.5,144.5C 135.833,147.167 136.167,147.167 136.5,144.5C 136.833,144.5 137.167,144.5 137.5,144.5C 138.167,147.167 138.833,147.167 139.5,144.5C 139.833,144.5 140.167,144.5 140.5,144.5C 140.5,145.833 141.167,146.5 142.5,146.5C 142.557,147.609 142.89,148.609 143.5,149.5C 143.167,149.5 142.833,149.5 142.5,149.5C 135.703,149.296 128.703,148.796 121.5,148C 122.38,146.644 122.714,145.144 122.5,143.5 Z"/></g>
<g><path style="opacity:0.31" fill="#635d5d" d="M 81.5,146.5 C 90.5,146.5 99.5,146.5 108.5,146.5C 109.833,147.5 109.833,148.5 108.5,149.5C 99.1667,149.5 89.8333,149.5 80.5,149.5C 80.5569,148.391 80.8902,147.391 81.5,146.5 Z"/></g>
<g><path style="opacity:0.422" fill="#1c1c1c" d="M 121.5,143.5 C 121.833,143.5 122.167,143.5 122.5,143.5C 122.714,145.144 122.38,146.644 121.5,148C 128.703,148.796 135.703,149.296 142.5,149.5C 131.265,150.819 119.931,150.819 108.5,149.5C 109.833,148.5 109.833,147.5 108.5,146.5C 112.833,146.5 117.167,146.5 121.5,146.5C 121.5,145.5 121.5,144.5 121.5,143.5 Z"/></g>
</svg>
